B612MonoLigaNerdFont-Bold.ufo
<glyph name="exclam" format="2">
  <advance width="1300"/>
  <unicode hex="0021"/>
  <outline>
    <contour>
      <point x="352" y="1500" type="line"/>
      <point x="352" y="409" type="line"/>
      <point x="652" y="444" type="line"/>
      <point x="652" y="1500" type="line"/>
    </contour>
    <contour>
      <point x="338" y="149" type="curve" smooth="yes"/>
      <point x="338" y="60"/>
      <point x="411" y="-17"/>
      <point x="502" y="-17" type="curve" smooth="yes"/>
      <point x="593" y="-17"/>
      <point x="664" y="60"/>
      <point x="664" y="149" type="curve" smooth="yes"/>
      <point x="664" y="239"/>
      <point x="591" y="313"/>
      <point x="501" y="313" type="curve" smooth="yes"/>
      <point x="411" y="313"/>
      <point x="338" y="239"/>
    </contour>
  </outline>
</glyph>
<glyph name="dollar" format="2">
  <advance width="1300"/>
  <unicode hex="0024"/>
  <outline>
    <contour>
      <point x="500" y="-190" type="line"/>
      <point x="790" y="-190" type="line"/>
      <point x="790" y="16" type="line"/>
      <point x="989" y="77"/>
      <point x="1145" y="222"/>
      <point x="1145" y="448" type="curve" smooth="yes"/>
      <point x="1145" y="671"/>
      <point x="973" y="783"/>
      <point x="800" y="866" type="curve" name=".hr01"/>
      <point x="800" y="1252" type="line"/>
      <point x="839" y="1233"/>
      <point x="884" y="1210"/>
      <point x="940" y="1178" type="curve"/>
      <point x="1090" y="1369" type="line"/>
      <point x="993" y="1434"/>
      <point x="900" y="1476"/>
      <point x="800" y="1499" type="curve"/>
      <point x="800" y="1719" type="line"/>
      <point x="500" y="1681" type="line" name=".hr02"/>
      <point x="500" y="1500" type="line"/>
      <point x="299" y="1454"/>
      <point x="130" y="1315"/>
      <point x="130" y="1097" type="curve" smooth="yes"/>
      <point x="130" y="896"/>
      <point x="316" y="800"/>
      <point x="500" y="712" type="curve"/>
      <point x="500" y="233" type="line"/>
      <point x="411" y="252"/>
      <point x="313" y="308"/>
      <point x="255" y="348" type="curve"/>
      <point x="117" y="121" type="line"/>
      <point x="242" y="41"/>
      <point x="359" y="-3"/>
      <point x="500" y="-14" type="curve"/>
    </contour>
    <contour>
      <point x="436" y="1125" type="curve" smooth="yes"/>
      <point x="436" y="1207"/>
      <point x="492" y="1247"/>
      <point x="558" y="1268" type="curve" name=".hr03"/>
      <point x="558" y="972" type="line"/>
      <point x="490" y="1004"/>
      <point x="436" y="1048"/>
    </contour>
    <contour>
      <point x="859" y="430" type="curve" smooth="yes"/>
      <point x="859" y="323"/>
      <point x="807" y="273"/>
      <point x="742" y="249" type="curve"/>
      <point x="742" y="596" type="line" name=".hr04"/>
      <point x="810" y="553"/>
      <point x="859" y="502"/>
    </contour>
  </outline>
</glyph>
<glyph name="parenright" format="2">
  <advance width="1300"/>
  <unicode hex="0029"/>
  <outline>
    <contour>
      <point x="1020" y="1158" type="line" smooth="yes"/>
      <point x="1020" y="1406"/>
      <point x="985" y="1600"/>
      <point x="680" y="1600" type="curve" smooth="yes"/>
      <point x="611" y="1600"/>
      <point x="525" y="1580"/>
      <point x="468" y="1545" type="curve"/>
      <point x="558" y="1431" type="line"/>
      <point x="607" y="1431"/>
      <point x="699" y="1417"/>
      <point x="699" y="1227" type="curve" smooth="yes"/>
      <point x="699" y="-46" type="line" smooth="yes"/>
      <point x="699" y="-242"/>
      <point x="605" y="-245"/>
      <point x="566" y="-245" type="curve"/>
      <point x="468" y="-365" type="line"/>
      <point x="525" y="-400"/>
      <point x="611" y="-420"/>
      <point x="680" y="-420" type="curve" smooth="yes"/>
      <point x="985" y="-420"/>
      <point x="1020" y="-210"/>
      <point x="1020" y="38" type="curve" smooth="yes"/>
    </contour>
  </outline>
</glyph>
<glyph name="comma" format="2">
  <advance width="1300"/>
  <unicode hex="002C"/>
  <outline>
    <contour>
      <point x="122" y="156" type="curve" smooth="yes"/>
      <point x="122" y="45"/>
      <point x="201" y="-14"/>
      <point x="282" y="-17" type="curve"/>
      <point x="282" y="-89"/>
      <point x="258" y="-164"/>
      <point x="234" y="-228" type="curve"/>
      <point x="219" y="-265"/>
      <point x="204" y="-302"/>
      <point x="185" y="-337" type="curve"/>
      <point x="247" y="-365" type="line"/>
      <point x="447" y="-181"/>
      <point x="478" y="-32"/>
      <point x="478" y="136" type="curve" smooth="yes"/>
      <point x="478" y="261"/>
      <point x="391" y="329"/>
      <point x="300" y="329" type="curve" smooth="yes"/>
      <point x="203" y="329"/>
      <point x="122" y="249"/>
    </contour>
  </outline>
</glyph>
<glyph name="hyphen" format="2">
  <advance width="1300"/>
  <unicode hex="002D"/>
  <outline>
    <contour>
      <point x="335" y="400" type="line"/>
      <point x="962" y="400" type="line"/>
      <point x="962" y="624" type="line"/>
      <point x="335" y="624" type="line"/>
    </contour>
  </outline>
</glyph>
<glyph name="period" format="2">
  <advance width="1300"/>
  <unicode hex="002E"/>
  <outline>
    <contour>
      <point x="103" y="183" type="curve" smooth="yes"/>
      <point x="103" y="74"/>
      <point x="192" y="-17"/>
      <point x="302" y="-17" type="curve" smooth="yes"/>
      <point x="410" y="-17"/>
      <point x="498" y="74"/>
      <point x="498" y="183" type="curve" smooth="yes"/>
      <point x="498" y="292"/>
      <point x="409" y="381"/>
      <point x="300" y="381" type="curve" smooth="yes"/>
      <point x="192" y="381"/>
      <point x="103" y="292"/>
    </contour>
  </outline>
</glyph>
<glyph name="colon" format="2">
  <advance width="1300"/>
  <unicode hex="003A"/>
  <outline>
    <contour>
      <point x="103" y="700" type="curve" smooth="yes"/>
      <point x="103" y="591"/>
      <point x="192" y="500"/>
      <point x="302" y="500" type="curve" smooth="yes"/>
      <point x="410" y="500"/>
      <point x="498" y="591"/>
      <point x="498" y="700" type="curve" smooth="yes"/>
      <point x="498" y="809"/>
      <point x="409" y="898"/>
      <point x="300" y="898" type="curve" smooth="yes"/>
      <point x="192" y="898"/>
      <point x="103" y="809"/>
    </contour>
    <contour>
      <point x="103" y="183" type="curve" smooth="yes"/>
      <point x="103" y="74"/>
      <point x="192" y="-17"/>
      <point x="302" y="-17" type="curve" smooth="yes"/>
      <point x="410" y="-17"/>
      <point x="498" y="74"/>
      <point x="498" y="183" type="curve" smooth="yes"/>
      <point x="498" y="292"/>
      <point x="409" y="381"/>
      <point x="300" y="381" type="curve" smooth="yes"/>
      <point x="192" y="381"/>
      <point x="103" y="292"/>
    </contour>
  </outline>
</glyph>
<glyph name="semicolon" format="2">
  <advance width="1300"/>
  <unicode hex="003B"/>
  <outline>
    <contour>
      <point x="103" y="700" type="curve" smooth="yes"/>
      <point x="103" y="591"/>
      <point x="192" y="500"/>
      <point x="302" y="500" type="curve" smooth="yes"/>
      <point x="410" y="500"/>
      <point x="498" y="591"/>
      <point x="498" y="700" type="curve" smooth="yes"/>
      <point x="498" y="809"/>
      <point x="409" y="898"/>
      <point x="300" y="898" type="curve" smooth="yes"/>
      <point x="192" y="898"/>
      <point x="103" y="809"/>
    </contour>
    <contour>
      <point x="122" y="156" type="curve" smooth="yes"/>
      <point x="122" y="45" name=".hr01"/>
      <point x="201" y="-14"/>
      <point x="282" y="-17" type="curve"/>
      <point x="282" y="-89"/>
      <point x="258" y="-164"/>
      <point x="234" y="-228" type="curve"/>
      <point x="219" y="-265"/>
      <point x="204" y="-302"/>
      <point x="185" y="-337" type="curve"/>
      <point x="247" y="-365" type="line"/>
      <point x="447" y="-181"/>
      <point x="478" y="-32"/>
      <point x="478" y="136" type="curve" smooth="yes"/>
      <point x="478" y="261"/>
      <point x="391" y="329"/>
      <point x="300" y="329" type="curve" smooth="yes"/>
      <point x="203" y="329"/>
      <point x="122" y="249"/>
    </contour>
  </outline>
</glyph>
<glyph name="equal" format="2">
  <advance width="1300"/>
  <unicode hex="003D"/>
  <outline>
    <contour>
      <point x="200" y="581" type="line"/>
      <point x="1000" y="581" type="line"/>
      <point x="1000" y="800" type="line"/>
      <point x="200" y="800" type="line"/>
    </contour>
    <contour>
      <point x="200" y="181" type="line"/>
      <point x="1000" y="181" type="line"/>
      <point x="1000" y="400" type="line"/>
      <point x="200" y="400" type="line"/>
    </contour>
  </outline>
</glyph>
<glyph name="greater" format="2">
  <advance width="1300"/>
  <unicode hex="003E"/>
  <outline>
    <contour>
      <point x="130" y="1278" type="line"/>
      <point x="130" y="1009" type="line"/>
      <point x="797" y="654" type="line"/>
      <point x="130" y="302" type="line"/>
      <point x="130" y="34" type="line"/>
      <point x="1137" y="545" type="line"/>
      <point x="1137" y="770" type="line"/>
    </contour>
  </outline>
</glyph>
<glyph name="A" format="2">
  <advance width="1300"/>
  <unicode hex="0041"/>
  <outline>
    <contour>
      <point x="753" y="646" type="line"/>
      <point x="529" y="646" type="line"/>
      <point x="604" y="990" type="line"/>
      <point x="643" y="1331" type="line"/>
      <point x="681" y="990" type="line"/>
    </contour>
    <contour>
      <point x="470" y="427" type="line"/>
      <point x="812" y="427" type="line"/>
      <point x="916" y="0" type="line"/>
      <point x="1250" y="0" type="line"/>
      <point x="819" y="1520" type="line"/>
      <point x="441" y="1500" type="line"/>
      <point x="405" y="1284" type="line"/>
      <point x="50" y="0" type="line"/>
      <point x="369" y="0" type="line"/>
    </contour>
  </outline>
</glyph>
<glyph name="G" format="2">
  <advance width="1300"/>
  <unicode hex="0047"/>
  <outline>
    <contour>
      <point x="1251" y="840" type="line"/>
      <point x="625" y="840" type="line"/>
      <point x="625" y="635" type="line"/>
      <point x="919" y="616" type="line"/>
      <point x="919" y="289" type="line"/>
      <point x="877" y="255"/>
      <point x="800" y="221"/>
      <point x="733" y="221" type="curve" smooth="yes"/>
      <point x="494" y="221"/>
      <point x="395" y="528"/>
      <point x="395" y="772" type="curve" smooth="yes"/>
      <point x="395" y="1048"/>
      <point x="492" y="1280"/>
      <point x="745" y="1280" type="curve" smooth="yes"/>
      <point x="838" y="1280"/>
      <point x="946" y="1229"/>
      <point x="1034" y="1170" type="curve"/>
      <point x="1182" y="1344" type="line"/>
      <point x="1065" y="1457"/>
      <point x="903" y="1517"/>
      <point x="730" y="1517" type="curve" smooth="yes"/>
      <point x="259" y="1517"/>
      <point x="44" y="1173"/>
      <point x="44" y="769" type="curve" smooth="yes"/>
      <point x="44" y="340"/>
      <point x="295" y="-17"/>
      <point x="708" y="-17" type="curve" smooth="yes"/>
      <point x="951" y="-17"/>
      <point x="1131" y="88"/>
      <point x="1251" y="221" type="curve"/>
    </contour>
  </outline>
</glyph>
<glyph name="I" format="2">
  <advance width="1300"/>
  <unicode hex="0049"/>
  <outline>
    <contour>
      <point x="148" y="1272" type="line"/>
      <point x="454" y="1272" type="line"/>
      <point x="454" y="228" type="line"/>
      <point x="176" y="228" type="line"/>
      <point x="176" y="0" type="line"/>
      <point x="1054" y="0" type="line"/>
      <point x="1089" y="228" type="line"/>
      <point x="788" y="228" type="line"/>
      <point x="788" y="1272" type="line"/>
      <point x="1061" y="1272" type="line"/>
      <point x="1061" y="1500" type="line"/>
      <point x="183" y="1500" type="line"/>
    </contour>
  </outline>
</glyph>
<glyph name="J" format="2">
  <advance width="1300"/>
  <unicode hex="004A"/>
  <outline>
    <contour>
      <point x="358" y="1266" type="line"/>
      <point x="779" y="1266" type="line"/>
      <point x="759" y="1132" type="line"/>
      <point x="759" y="444" type="line" smooth="yes"/>
      <point x="759" y="289"/>
      <point x="672" y="244"/>
      <point x="592" y="244" type="curve" smooth="yes"/>
      <point x="424" y="244"/>
      <point x="340" y="353"/>
      <point x="300" y="400" type="curve"/>
      <point x="146" y="200" type="line"/>
      <point x="241" y="84"/>
      <point x="364" y="-17"/>
      <point x="623" y="-17" type="curve" smooth="yes"/>
      <point x="778" y="-17"/>
      <point x="923" y="34"/>
      <point x="994" y="121" type="curve" smooth="yes"/>
      <point x="1071" y="214"/>
      <point x="1110" y="323"/>
      <point x="1110" y="446" type="curve" smooth="yes"/>
      <point x="1110" y="1500" type="line"/>
      <point x="338" y="1500" type="line"/>
    </contour>
  </outline>
</glyph>
<glyph name="T" format="2">
  <advance width="1300"/>
  <unicode hex="0054"/>
  <outline>
    <contour>
      <point x="802" y="0" type="line"/>
      <point x="802" y="1272" type="line"/>
      <point x="1200" y="1272" type="line"/>
      <point x="1200" y="1500" type="line"/>
      <point x="66" y="1500" type="line"/>
      <point x="66" y="1272" type="line"/>
      <point x="469" y="1272" type="line"/>
      <point x="469" y="0" type="line"/>
    </contour>
  </outline>
</glyph>
<glyph name="U" format="2">
  <advance width="1300"/>
  <unicode hex="0055"/>
  <outline>
    <contour>
      <point x="828" y="1500" type="line"/>
      <point x="828" y="516" type="line" smooth="yes"/>
      <point x="828" y="320"/>
      <point x="783" y="221"/>
      <point x="650" y="221" type="curve" smooth="yes"/>
      <point x="483" y="221"/>
      <point x="458" y="347"/>
      <point x="458" y="564" type="curve" smooth="yes"/>
      <point x="458" y="1520" type="line"/>
      <point x="92" y="1500" type="line"/>
      <point x="126" y="1263" type="line"/>
      <point x="126" y="582" type="line" smooth="yes"/>
      <point x="126" y="224"/>
      <point x="256" y="-17"/>
      <point x="619" y="-17" type="curve" smooth="yes"/>
      <point x="956" y="-17"/>
      <point x="1160" y="163"/>
      <point x="1160" y="534" type="curve" smooth="yes"/>
      <point x="1160" y="1500" type="line"/>
    </contour>
  </outline>
</glyph>
<glyph name="a" format="2">
  <advance width="1300"/>
  <unicode hex="0061"/>
  <outline>
    <contour>
      <point x="1112" y="200" type="line"/>
      <point x="1112" y="681" type="line" smooth="yes"/>
      <point x="1112" y="941"/>
      <point x="983" y="1117"/>
      <point x="642" y="1117" type="curve" smooth="yes"/>
      <point x="438" y="1117"/>
      <point x="349" y="1080"/>
      <point x="225" y="1023" type="curve"/>
      <point x="319" y="838" type="line"/>
      <point x="390" y="870"/>
      <point x="514" y="900"/>
      <point x="632" y="900" type="curve" smooth="yes"/>
      <point x="740" y="900"/>
      <point x="790" y="828"/>
      <point x="795" y="715" type="curve"/>
      <point x="742" y="724"/>
      <point x="680" y="729"/>
      <point x="604" y="729" type="curve" smooth="yes"/>
      <point x="357" y="729"/>
      <point x="106" y="614"/>
      <point x="106" y="358" type="curve" smooth="yes"/>
      <point x="106" y="115"/>
      <point x="356" y="-17"/>
      <point x="577" y="-17" type="curve" smooth="yes"/>
      <point x="617" y="-17"/>
      <point x="664" y="-10"/>
      <point x="711" y="5" type="curve"/>
      <point x="795" y="100" type="line"/>
      <point x="795" y="0" type="line" name=".hr01"/>
      <point x="1135" y="0" type="line"/>
    </contour>
    <contour>
      <point x="795" y="300" type="line"/>
      <point x="730" y="244"/>
      <point x="661" y="208" name=".hr02"/>
      <point x="585" y="208" type="curve" smooth="yes"/>
      <point x="508" y="208"/>
      <point x="435" y="269"/>
      <point x="435" y="359" type="curve" smooth="yes"/>
      <point x="435" y="471"/>
      <point x="540" y="505"/>
      <point x="642" y="505" type="curve" smooth="yes"/>
      <point x="683" y="505"/>
      <point x="755" y="503"/>
      <point x="795" y="500" type="curve"/>
    </contour>
  </outline>
</glyph>
<glyph name="e" format="2">
  <advance width="1300"/>
  <unicode hex="0065"/>
  <outline>
    <contour>
      <point x="1000" y="300" type="line"/>
      <point x="963" y="268"/>
      <point x="843" y="200"/>
      <point x="706" y="200" type="curve" smooth="yes"/>
      <point x="563" y="200"/>
      <point x="405" y="322"/>
      <point x="400" y="466" type="curve"/>
      <point x="1147" y="466" type="line"/>
      <point x="1154" y="534"/>
      <point x="1159" y="596"/>
      <point x="1159" y="632" type="curve" smooth="yes"/>
      <point x="1159" y="919"/>
      <point x="973" y="1116"/>
      <point x="653" y="1116" type="curve" smooth="yes"/>
      <point x="309" y="1116"/>
      <point x="100" y="833"/>
      <point x="100" y="550" type="curve" smooth="yes"/>
      <point x="100" y="255"/>
      <point x="302" y="-16"/>
      <point x="686" y="-16" type="curve" smooth="yes"/>
      <point x="906" y="-16"/>
      <point x="1042" y="60"/>
      <point x="1148" y="158" type="curve"/>
    </contour>
    <contour>
      <point x="516" y="671" type="line"/>
      <point x="343" y="653" type="line"/>
      <point x="434" y="756" type="line"/>
      <point x="456" y="808"/>
      <point x="522" y="900"/>
      <point x="657" y="900" type="curve" smooth="yes"/>
      <point x="793" y="900"/>
      <point x="865" y="794"/>
      <point x="865" y="672" type="curve"/>
    </contour>
  </outline>
</glyph>
<glyph name="g" format="2">
  <advance width="1300"/>
  <unicode hex="0067"/>
  <outline>
    <contour>
      <point x="828" y="-27" type="line" smooth="yes"/>
      <point x="828" y="-176"/>
      <point x="718" y="-293"/>
      <point x="605" y="-293" type="curve" smooth="yes"/>
      <point x="513" y="-293"/>
      <point x="412" y="-229"/>
      <point x="369" y="-192" type="curve"/>
      <point x="225" y="-359" type="line"/>
      <point x="329" y="-460"/>
      <point x="440" y="-517"/>
      <point x="614" y="-517" type="curve" smooth="yes"/>
      <point x="944" y="-517"/>
      <point x="1153" y="-304"/>
      <point x="1153" y="-41" type="curve" smooth="yes"/>
      <point x="1153" y="1100" type="line"/>
      <point x="827" y="1120" type="line"/>
      <point x="827" y="958" type="line"/>
      <point x="736" y="1114" type="line"/>
      <point x="723" y="1117"/>
      <point x="708" y="1117"/>
      <point x="684" y="1117" type="curve" smooth="yes"/>
      <point x="341" y="1117"/>
      <point x="125" y="857"/>
      <point x="125" y="545" type="curve" smooth="yes"/>
      <point x="125" y="237"/>
      <point x="372" y="-17"/>
      <point x="641" y="-17" type="curve" smooth="yes"/>
      <point x="718" y="-17"/>
      <point x="785" y="-3"/>
      <point x="828" y="16" type="curve"/>
    </contour>
    <contour>
      <point x="827" y="287" type="line"/>
      <point x="784" y="238"/>
      <point x="735" y="200"/>
      <point x="656" y="200" type="curve" smooth="yes"/>
      <point x="557" y="200"/>
      <point x="452" y="345"/>
      <point x="452" y="534" type="curve" smooth="yes"/>
      <point x="452" y="685"/>
      <point x="519" y="900"/>
      <point x="679" y="900" type="curve" smooth="yes"/>
      <point x="739" y="900"/>
      <point x="790" y="863"/>
      <point x="827" y="820" type="curve"/>
    </contour>
  </outline>
</glyph>
<glyph name="h" format="2">
  <advance width="1300"/>
  <unicode hex="0068"/>
  <outline>
    <contour>
      <point x="461" y="808" type="line"/>
      <point x="504" y="848"/>
      <point x="543" y="892"/>
      <point x="656" y="892" type="curve" smooth="yes"/>
      <point x="716" y="892"/>
      <point x="786" y="838"/>
      <point x="786" y="698" type="curve" smooth="yes"/>
      <point x="786" y="0" type="line"/>
      <point x="1112" y="0" type="line"/>
      <point x="1112" y="718" type="line" smooth="yes"/>
      <point x="1112" y="977"/>
      <point x="986" y="1116"/>
      <point x="749" y="1116" type="curve" smooth="yes"/>
      <point x="664" y="1116"/>
      <point x="598" y="1113"/>
      <point x="538" y="1100" type="curve"/>
      <point x="461" y="1000" type="line"/>
      <point x="461" y="1600" type="line"/>
      <point x="122" y="1568" type="line"/>
      <point x="144" y="1339" type="line"/>
      <point x="144" y="0" type="line"/>
      <point x="461" y="0" type="line"/>
    </contour>
  </outline>
</glyph>
<glyph name="m" format="2">
  <advance width="1300"/>
  <unicode hex="006D"/>
  <outline>
    <contour>
      <point x="365" y="804" type="line"/>
      <point x="377" y="861"/>
      <point x="413" y="885"/>
      <point x="452" y="885" type="curve" smooth="yes"/>
      <point x="493" y="885"/>
      <point x="500" y="821"/>
      <point x="500" y="708" type="curve" smooth="yes"/>
      <point x="500" y="0" type="line"/>
      <point x="804" y="0" type="line"/>
      <point x="804" y="715" type="line"/>
      <point x="804" y="716" type="line"/>
      <point x="804" y="717" type="line"/>
      <point x="804" y="718" type="line"/>
      <point x="804" y="719" type="line"/>
      <point x="804" y="720" type="line"/>
      <point x="804" y="721" type="line"/>
      <point x="804" y="727" type="line"/>
      <point x="804" y="727" type="line"/>
      <point x="804" y="729" type="line"/>
      <point x="804" y="730" type="line"/>
      <point x="804" y="745"/>
      <point x="803" y="762"/>
      <point x="803" y="779" type="curve"/>
      <point x="803" y="780" type="line"/>
      <point x="803" y="782" type="line"/>
      <point x="803" y="783" type="line"/>
      <point x="803" y="784" type="line"/>
      <point x="803" y="784" type="line"/>
      <point x="803" y="785" type="line"/>
      <point x="803" y="786" type="line"/>
      <point x="803" y="788" type="line"/>
      <point x="803" y="788" type="line"/>
      <point x="803" y="795" type="line"/>
      <point x="803" y="796" type="line"/>
      <point x="803" y="797" type="line"/>
      <point x="803" y="798" type="line"/>
      <point x="808" y="845"/>
      <point x="851" y="885"/>
      <point x="895" y="885" type="curve" smooth="yes"/>
      <point x="942" y="885"/>
      <point x="943" y="835"/>
      <point x="943" y="727" type="curve" smooth="yes"/>
      <point x="943" y="0" type="line"/>
      <point x="1258" y="0" type="line"/>
      <point x="1258" y="736" type="line" smooth="yes"/>
      <point x="1258" y="968"/>
      <point x="1233" y="1117"/>
      <point x="975" y="1117" type="curve" smooth="yes"/>
      <point x="894" y="1117"/>
      <point x="801" y="1074"/>
      <point x="750" y="1039" type="curve"/>
      <point x="699" y="1100"/>
      <point x="652" y="1117"/>
      <point x="522" y="1117" type="curve" smooth="yes"/>
      <point x="497" y="1117"/>
      <point x="455" y="1108"/>
      <point x="442" y="1100" type="curve"/>
      <point x="365" y="1000" type="line"/>
      <point x="365" y="1120" type="line"/>
      <point x="50" y="1100" type="line"/>
      <point x="50" y="0" type="line"/>
      <point x="365" y="0" type="line"/>
    </contour>
  </outline>
</glyph>
<glyph name="o" format="2">
  <advance width="1300"/>
  <unicode hex="006F"/>
  <outline>
    <contour>
      <point x="627" y="-17" type="curve" smooth="yes"/>
      <point x="957" y="-17"/>
      <point x="1164" y="229"/>
      <point x="1164" y="553" type="curve" smooth="yes"/>
      <point x="1164" y="714"/>
      <point x="1110" y="857"/>
      <point x="1016" y="958" type="curve" smooth="yes"/>
      <point x="922" y="1059"/>
      <point x="791" y="1117"/>
      <point x="647" y="1117" type="curve" smooth="yes"/>
      <point x="627" y="1117" type="line"/>
      <point x="606" y="1117" type="line" smooth="yes"/>
      <point x="458" y="1117"/>
      <point x="326" y="1059"/>
      <point x="231" y="958" type="curve" smooth="yes"/>
      <point x="135" y="857"/>
      <point x="81" y="714"/>
      <point x="81" y="553" type="curve" smooth="yes"/>
      <point x="81" y="229"/>
      <point x="308" y="-17"/>
    </contour>
    <contour>
      <point x="838" y="528" type="curve" smooth="yes"/>
      <point x="838" y="364"/>
      <point x="776" y="203"/>
      <point x="631" y="203" type="curve" smooth="yes"/>
      <point x="475" y="203"/>
      <point x="408" y="388"/>
      <point x="408" y="571" type="curve" smooth="yes"/>
      <point x="408" y="736"/>
      <point x="475" y="897"/>
      <point x="623" y="897" type="curve" smooth="yes"/>
      <point x="779" y="897"/>
      <point x="838" y="709"/>
    </contour>
  </outline>
</glyph>
<glyph name="p" format="2">
  <advance width="1300"/>
  <unicode hex="0070"/>
  <outline>
    <contour>
      <point x="476" y="-500" type="line"/>
      <point x="476" y="0" type="line"/>
      <point x="537" y="0" type="line" smooth="yes"/>
      <point x="903" y="0"/>
      <point x="1178" y="236"/>
      <point x="1178" y="564" type="curve" smooth="yes"/>
      <point x="1178" y="900"/>
      <point x="937" y="1117"/>
      <point x="690" y="1117" type="curve" smooth="yes"/>
      <point x="658" y="1117"/>
      <point x="628" y="1114"/>
      <point x="600" y="1110" type="curve"/>
      <point x="476" y="944" type="line"/>
      <point x="476" y="1120" type="line"/>
      <point x="150" y="1100" type="line" name=".hr01"/>
      <point x="150" y="-500" type="line"/>
    </contour>
    <contour>
      <point x="476" y="811" type="line"/>
      <point x="521" y="854"/>
      <point x="590" y="900" name=".hr02"/>
      <point x="663" y="900" type="curve" smooth="yes"/>
      <point x="784" y="900"/>
      <point x="880" y="793"/>
      <point x="880" y="576" type="curve" smooth="yes"/>
      <point x="880" y="368"/>
      <point x="733" y="200"/>
      <point x="554" y="200" type="curve" smooth="yes"/>
      <point x="476" y="200" type="line"/>
    </contour>
  </outline>
</glyph>
<glyph name="q" format="2">
  <advance width="1300"/>
  <unicode hex="0071"/>
  <outline>
    <contour>
      <point x="819" y="-500" type="line"/>
      <point x="1145" y="-500" type="line"/>
      <point x="1145" y="1038" type="line"/>
      <point x="1076" y="1062"/>
      <point x="868" y="1117"/>
      <point x="698" y="1117" type="curve" smooth="yes"/>
      <point x="381" y="1117"/>
      <point x="117" y="891"/>
      <point x="117" y="526" type="curve" smooth="yes"/>
      <point x="117" y="189"/>
      <point x="365" y="-17"/>
      <point x="610" y="-17" type="curve" smooth="yes"/>
      <point x="639" y="-17"/>
      <point x="670" y="-14"/>
      <point x="702" y="-8" type="curve"/>
      <point x="819" y="136" type="line"/>
    </contour>
    <contour>
      <point x="819" y="278" type="line"/>
      <point x="780" y="231"/>
      <point x="745" y="200"/>
      <point x="648" y="200" type="curve" smooth="yes"/>
      <point x="543" y="200"/>
      <point x="438" y="303"/>
      <point x="438" y="526" type="curve" smooth="yes"/>
      <point x="438" y="697"/>
      <point x="527" y="900"/>
      <point x="694" y="900" type="curve" smooth="yes"/>
      <point x="745" y="900"/>
      <point x="779" y="896"/>
      <point x="819" y="891" type="curve"/>
    </contour>
  </outline>
</glyph>
<glyph name="t" format="2">
  <advance width="1300"/>
  <unicode hex="0074"/>
  <outline>
    <contour>
      <point x="658" y="876" type="line"/>
      <point x="1086" y="876" type="line"/>
      <point x="1113" y="1100" type="line"/>
      <point x="654" y="1100" type="line"/>
      <point x="654" y="1420" type="line"/>
      <point x="342" y="1310" type="line"/>
      <point x="342" y="1100" type="line"/>
      <point x="100" y="1100" type="line"/>
      <point x="100" y="876" type="line"/>
      <point x="342" y="876" type="line"/>
      <point x="342" y="410" type="line" smooth="yes"/>
      <point x="342" y="177"/>
      <point x="383" y="-17"/>
      <point x="672" y="-17" type="curve" smooth="yes"/>
      <point x="939" y="-17"/>
      <point x="1077" y="106"/>
      <point x="1111" y="135" type="curve"/>
      <point x="1007" y="316" type="line"/>
      <point x="1006" y="316" type="line"/>
      <point x="1005" y="315" type="line"/>
      <point x="992" y="306"/>
      <point x="976" y="295"/>
      <point x="958" y="283" type="curve" smooth="yes"/>
      <point x="902" y="246"/>
      <point x="824" y="208"/>
      <point x="731" y="208" type="curve" smooth="yes"/>
      <point x="668" y="208"/>
      <point x="658" y="252"/>
      <point x="658" y="388" type="curve" smooth="yes"/>
    </contour>
  </outline>
</glyph>
<glyph name="u" format="2">
  <advance width="1300"/>
  <unicode hex="0075"/>
  <outline>
    <contour>
      <point x="816" y="318" type="line"/>
      <point x="790" y="274"/>
      <point x="728" y="213"/>
      <point x="640" y="213" type="curve" smooth="yes"/>
      <point x="503" y="213"/>
      <point x="461" y="299"/>
      <point x="461" y="438" type="curve" smooth="yes"/>
      <point x="461" y="1120" type="line"/>
      <point x="145" y="1100" type="line"/>
      <point x="145" y="438" type="line" smooth="yes"/>
      <point x="145" y="203"/>
      <point x="257" y="-17"/>
      <point x="614" y="-17" type="curve" smooth="yes"/>
      <point x="657" y="-17"/>
      <point x="698" y="-11"/>
      <point x="735" y="0" type="curve"/>
      <point x="816" y="100" type="line"/>
      <point x="816" y="0" type="line"/>
      <point x="1133" y="0" type="line"/>
      <point x="1133" y="1120" type="line"/>
      <point x="816" y="1100" type="line"/>
    </contour>
  </outline>
</glyph>
<glyph name="v" format="2">
  <advance width="1300"/>
  <unicode hex="0076"/>
  <outline>
    <contour>
      <point x="447" y="1120" type="line"/>
      <point x="133" y="1100" type="line"/>
      <point x="484" y="0" type="line"/>
      <point x="800" y="-17" type="line"/>
      <point x="1173" y="1120" type="line"/>
      <point x="860" y="1100" type="line"/>
      <point x="729" y="700" type="line"/>
      <point x="657" y="300" type="line"/>
      <point x="583" y="700" type="line"/>
    </contour>
  </outline>
</glyph>
<glyph name="braceleft" format="2">
  <advance width="1300"/>
  <unicode hex="007B"/>
  <outline>
    <contour>
      <point x="1099" y="1445" type="line"/>
      <point x="1012" y="1487"/>
      <point x="944" y="1517"/>
      <point x="805" y="1517" type="curve" smooth="yes"/>
      <point x="504" y="1517"/>
      <point x="415" y="1336"/>
      <point x="415" y="1099" type="curve" smooth="yes"/>
      <point x="415" y="864" type="line" smooth="yes"/>
      <point x="415" y="747"/>
      <point x="399" y="675"/>
      <point x="338" y="660" type="curve"/>
      <point x="200" y="640" type="line"/>
      <point x="200" y="462" type="line"/>
      <point x="338" y="442" type="line"/>
      <point x="399" y="429"/>
      <point x="415" y="358"/>
      <point x="415" y="238" type="curve" smooth="yes"/>
      <point x="415" y="-2" type="line" smooth="yes"/>
      <point x="415" y="-239"/>
      <point x="503" y="-420"/>
      <point x="804" y="-420" type="curve" smooth="yes"/>
      <point x="943" y="-420"/>
      <point x="1011" y="-388"/>
      <point x="1099" y="-348" type="curve"/>
      <point x="1003" y="-163" type="line"/>
      <point x="958" y="-190"/>
      <point x="894" y="-208"/>
      <point x="847" y="-208" type="curve" smooth="yes"/>
      <point x="767" y="-208"/>
      <point x="757" y="-130"/>
      <point x="757" y="-2" type="curve" smooth="yes"/>
      <point x="757" y="238" type="line" smooth="yes"/>
      <point x="757" y="386"/>
      <point x="665" y="497"/>
      <point x="593" y="550" type="curve"/>
      <point x="665" y="603"/>
      <point x="757" y="714"/>
      <point x="757" y="864" type="curve" smooth="yes"/>
      <point x="757" y="1099" type="line" smooth="yes"/>
      <point x="757" y="1227"/>
      <point x="767" y="1300"/>
      <point x="847" y="1305" type="curve"/>
      <point x="894" y="1305"/>
      <point x="958" y="1287"/>
      <point x="1003" y="1260" type="curve"/>
    </contour>
  </outline>
</glyph>
<glyph name="asciitilde" format="2">
  <advance width="1300"/>
  <unicode hex="007E"/>
  <outline>
    <contour>
      <point x="331" y="410" type="line"/>
      <point x="347" y="476"/>
      <point x="405" y="532"/>
      <point x="481" y="532" type="curve" smooth="yes"/>
      <point x="636" y="532"/>
      <point x="662" y="400" name=".hr01"/>
      <point x="862" y="400" type="curve" smooth="yes"/>
      <point x="1155" y="400"/>
      <point x="1253" y="607"/>
      <point x="1266" y="802" type="curve"/>
      <point x="991" y="838" type="line"/>
      <point x="978" y="759"/>
      <point x="919" y="703"/>
      <point x="827" y="703" type="curve" smooth="yes"/>
      <point x="691" y="703"/>
      <point x="661" y="835" name=".hr02"/>
      <point x="444" y="835" type="curve" smooth="yes"/>
      <point x="166" y="835"/>
      <point x="47" y="620"/>
      <point x="31" y="441" type="curve"/>
    </contour>
  </outline>
</glyph>
<glyph name="currency" format="2">
  <advance width="1300"/>
  <unicode hex="00A4"/>
  <outline>
    <contour>
      <point x="966" y="383" type="line"/>
      <point x="1003" y="446"/>
      <point x="1022" y="512"/>
      <point x="1022" y="573" type="curve" smooth="yes"/>
      <point x="1022" y="634"/>
      <point x="1003" y="697"/>
      <point x="966" y="762" type="curve"/>
      <point x="1117" y="913" type="line"/>
      <point x="942" y="1092" type="line"/>
      <point x="775" y="925" type="line"/>
      <point x="722" y="948"/>
      <point x="663" y="957"/>
      <point x="600" y="957" type="curve" smooth="yes"/>
      <point x="536" y="957"/>
      <point x="477" y="948"/>
      <point x="424" y="925" type="curve"/>
      <point x="258" y="1092" type="line"/>
      <point x="82" y="913" type="line"/>
      <point x="234" y="762" type="line"/>
      <point x="195" y="698"/>
      <point x="177" y="633"/>
      <point x="177" y="573" type="curve" smooth="yes"/>
      <point x="177" y="510"/>
      <point x="196" y="447"/>
      <point x="234" y="383" type="curve"/>
      <point x="82" y="232" type="line"/>
      <point x="259" y="55" type="line"/>
      <point x="424" y="221" type="line"/>
      <point x="476" y="198"/>
      <point x="536" y="188"/>
      <point x="600" y="188" type="curve" smooth="yes"/>
      <point x="663" y="188"/>
      <point x="722" y="199"/>
      <point x="775" y="221" type="curve"/>
      <point x="941" y="55" type="line"/>
      <point x="1117" y="232" type="line"/>
    </contour>
    <contour>
      <point x="435" y="573" type="curve" smooth="yes"/>
      <point x="435" y="702"/>
      <point x="527" y="744"/>
      <point x="600" y="744" type="curve" smooth="yes"/>
      <point x="672" y="744"/>
      <point x="764" y="702"/>
      <point x="764" y="573" type="curve" smooth="yes"/>
      <point x="764" y="444"/>
      <point x="672" y="400"/>
      <point x="600" y="400" type="curve" smooth="yes"/>
      <point x="527" y="400"/>
      <point x="435" y="444"/>
    </contour>
  </outline>
</glyph>
<glyph name="yen" format="2">
  <advance width="1300"/>
  <unicode hex="00A5"/>
  <outline>
    <contour>
      <point x="160" y="400" type="line"/>
      <point x="469" y="400" type="line"/>
      <point x="469" y="0" type="line"/>
      <point x="820" y="0" type="line"/>
      <point x="820" y="400" type="line"/>
      <point x="1160" y="400" type="line"/>
      <point x="1160" y="589" type="line"/>
      <point x="820" y="589" type="line"/>
      <point x="820" y="650" type="line"/>
      <point x="845" y="700" type="line"/>
      <point x="1160" y="700" type="line"/>
      <point x="1160" y="889" type="line"/>
      <point x="942" y="889" type="line"/>
      <point x="1253" y="1500" type="line"/>
      <point x="918" y="1500" type="line"/>
      <point x="736" y="1143" type="line"/>
      <point x="678" y="773" type="line"/>
      <point x="571" y="1143" type="line"/>
      <point x="379" y="1520" type="line"/>
      <point x="40" y="1500" type="line"/>
      <point x="347" y="889" type="line"/>
      <point x="160" y="889" type="line"/>
      <point x="160" y="700" type="line"/>
      <point x="443" y="700" type="line"/>
      <point x="469" y="650" type="line"/>
      <point x="469" y="589" type="line"/>
      <point x="160" y="589" type="line"/>
    </contour>
  </outline>
</glyph>
<glyph name="section" format="2">
  <advance width="1300"/>
  <unicode hex="00A7"/>
  <outline>
    <contour>
      <point x="993" y="1419" type="line"/>
      <point x="870" y="1494"/>
      <point x="764" y="1517"/>
      <point x="640" y="1517" type="curve" smooth="yes"/>
      <point x="352" y="1517"/>
      <point x="185" y="1385"/>
      <point x="185" y="1166" type="curve" smooth="yes"/>
      <point x="185" y="1056"/>
      <point x="259" y="965"/>
      <point x="357" y="885" type="curve"/>
      <point x="251" y="824"/>
      <point x="166" y="733" name=".hr01"/>
      <point x="166" y="593" type="curve" smooth="yes"/>
      <point x="166" y="372"/>
      <point x="345" y="261"/>
      <point x="504" y="163" type="curve"/>
      <point x="601" y="101"/>
      <point x="688" y="50"/>
      <point x="688" y="-54" type="curve" smooth="yes"/>
      <point x="688" y="-159"/>
      <point x="617" y="-200"/>
      <point x="534" y="-200" type="curve" smooth="yes"/>
      <point x="478" y="-200"/>
      <point x="414" y="-190"/>
      <point x="303" y="-129" type="curve"/>
      <point x="197" y="-299" type="line"/>
      <point x="318" y="-375"/>
      <point x="426" y="-400"/>
      <point x="551" y="-400" type="curve" smooth="yes"/>
      <point x="839" y="-400"/>
      <point x="1006" y="-265"/>
      <point x="1006" y="-46" type="curve" smooth="yes"/>
      <point x="1006" y="63"/>
      <point x="931" y="157"/>
      <point x="833" y="234" type="curve"/>
      <point x="942" y="282"/>
      <point x="1025" y="398" name=".hr02"/>
      <point x="1025" y="527" type="curve" smooth="yes"/>
      <point x="1025" y="747"/>
      <point x="846" y="860"/>
      <point x="687" y="958" type="curve" smooth="yes"/>
      <point x="591" y="1017"/>
      <point x="502" y="1072"/>
      <point x="502" y="1174" type="curve" smooth="yes"/>
      <point x="502" y="1281"/>
      <point x="574" y="1318"/>
      <point x="657" y="1318" type="curve" smooth="yes"/>
      <point x="713" y="1318"/>
      <point x="777" y="1310"/>
      <point x="888" y="1249" type="curve"/>
    </contour>
    <contour>
      <point x="571" y="731" type="line"/>
      <point x="643" y="678"/>
      <point x="722" y="614"/>
      <point x="722" y="525" type="curve" smooth="yes"/>
      <point x="722" y="456"/>
      <point x="684" y="407"/>
      <point x="655" y="383" type="curve"/>
      <point x="643" y="372" type="line"/>
      <point x="621" y="387" type="line" smooth="yes"/>
      <point x="547" y="440"/>
      <point x="469" y="506" name=".hr03"/>
      <point x="469" y="595" type="curve" smooth="yes"/>
      <point x="469" y="666"/>
      <point x="506" y="713"/>
      <point x="536" y="737" type="curve" smooth="yes"/>
      <point x="548" y="747" type="line"/>
    </contour>
  </outline>
</glyph>
<glyph name="ordfeminine" format="2">
  <advance width="1300"/>
  <unicode hex="00AA"/>
  <outline>
    <contour>
      <point x="601" y="1059" type="line"/>
      <point x="601" y="1299" type="line" smooth="yes"/>
      <point x="601" y="1430"/>
      <point x="536" y="1517"/>
      <point x="366" y="1517" type="curve" smooth="yes"/>
      <point x="263" y="1517"/>
      <point x="219" y="1500"/>
      <point x="157" y="1470" type="curve"/>
      <point x="204" y="1378" type="line"/>
      <point x="240" y="1394"/>
      <point x="301" y="1409"/>
      <point x="361" y="1409" type="curve" smooth="yes"/>
      <point x="414" y="1409"/>
      <point x="439" y="1373"/>
      <point x="442" y="1316" type="curve"/>
      <point x="415" y="1321"/>
      <point x="384" y="1323"/>
      <point x="347" y="1323" type="curve" smooth="yes"/>
      <point x="223" y="1323"/>
      <point x="98" y="1266"/>
      <point x="98" y="1138" type="curve" smooth="yes"/>
      <point x="98" y="1016"/>
      <point x="223" y="950"/>
      <point x="333" y="950" type="curve" smooth="yes"/>
      <point x="353" y="950"/>
      <point x="377" y="954"/>
      <point x="400" y="961" type="curve"/>
      <point x="442" y="1009" type="line"/>
      <point x="442" y="959" type="line" name=".hr01"/>
      <point x="612" y="959" type="line"/>
    </contour>
    <contour>
      <point x="442" y="1109" type="line"/>
      <point x="410" y="1081"/>
      <point x="376" y="1063" name=".hr02"/>
      <point x="337" y="1063" type="curve" smooth="yes"/>
      <point x="300" y="1063"/>
      <point x="262" y="1094"/>
      <point x="262" y="1138" type="curve" smooth="yes"/>
      <point x="262" y="1194"/>
      <point x="314" y="1211"/>
      <point x="366" y="1211" type="curve" smooth="yes"/>
      <point x="369" y="1211" type="line"/>
      <point x="370" y="1211" type="line"/>
      <point x="371" y="1211" type="line"/>
      <point x="372" y="1211" type="line"/>
      <point x="373" y="1211" type="line"/>
      <point x="374" y="1211" type="line"/>
      <point x="384" y="1211" type="line" smooth="yes"/>
      <point x="403" y="1211"/>
      <point x="428" y="1209"/>
      <point x="442" y="1209" type="curve"/>
    </contour>
    <contour>
      <point x="159" y="690" type="line"/>
      <point x="601" y="690" type="line"/>
      <point x="601" y="810" type="line"/>
      <point x="159" y="810" type="line"/>
    </contour>
  </outline>
</glyph>
<glyph name="guillemotleft" format="2">
  <advance width="1300"/>
  <unicode hex="00AB"/>
  <outline>
    <contour>
      <point x="26" y="620" type="line"/>
      <point x="26" y="476" type="line"/>
      <point x="581" y="-13" type="line"/>
      <point x="675" y="224" type="line"/>
      <point x="341" y="517" type="line"/>
      <point x="266" y="550" type="line"/>
      <point x="342" y="583" type="line"/>
      <point x="673" y="880" type="line"/>
      <point x="584" y="1106" type="line"/>
    </contour>
    <contour>
      <point x="526" y="620" type="line"/>
      <point x="526" y="476" type="line"/>
      <point x="1081" y="-13" type="line"/>
      <point x="1175" y="224" type="line"/>
      <point x="841" y="517" type="line"/>
      <point x="766" y="550" type="line"/>
      <point x="842" y="583" type="line"/>
      <point x="1173" y="880" type="line"/>
      <point x="1084" y="1106" type="line"/>
    </contour>
  </outline>
</glyph>
<glyph name="plusminus" format="2">
  <advance width="1300"/>
  <unicode hex="00B1"/>
  <outline>
    <contour>
      <point x="179" y="702" type="line"/>
      <point x="539" y="702" type="line"/>
      <point x="539" y="382" type="line"/>
      <point x="759" y="382" type="line"/>
      <point x="759" y="702" type="line"/>
      <point x="1119" y="702" type="line"/>
      <point x="1119" y="862" type="line"/>
      <point x="759" y="862" type="line"/>
      <point x="759" y="1196" type="line"/>
      <point x="539" y="1196" type="line"/>
      <point x="539" y="862" type="line"/>
      <point x="179" y="862" type="line"/>
    </contour>
    <contour>
      <point x="200" y="88" type="line"/>
      <point x="1100" y="88" type="line"/>
      <point x="1100" y="290" type="line"/>
      <point x="200" y="290" type="line"/>
    </contour>
  </outline>
</glyph>
<glyph name="uni00B5" format="2">
  <advance width="1300"/>
  <unicode hex="00B5"/>
  <outline>
    <contour>
      <point x="1170" y="223" type="line"/>
      <point x="1137" y="206"/>
      <point x="1120" y="199"/>
      <point x="1084" y="199" type="curve" smooth="yes"/>
      <point x="1037" y="199"/>
      <point x="1011" y="242"/>
      <point x="1011" y="365" type="curve" smooth="yes"/>
      <point x="1011" y="1125" type="line"/>
      <point x="700" y="1093" type="line"/>
      <point x="700" y="268" type="line"/>
      <point x="661" y="231"/>
      <point x="612" y="199"/>
      <point x="555" y="199" type="curve" smooth="yes"/>
      <point x="484" y="199"/>
      <point x="411" y="260"/>
      <point x="411" y="362" type="curve" smooth="yes"/>
      <point x="411" y="1125" type="line"/>
      <point x="100" y="1093" type="line"/>
      <point x="100" y="-500" type="line"/>
      <point x="411" y="-500" type="line"/>
      <point x="411" y="-166" type="line"/>
      <point x="346" y="40" type="line"/>
      <point x="378" y="14"/>
      <point x="492" y="-17"/>
      <point x="545" y="-17" type="curve" smooth="yes"/>
      <point x="659" y="-17"/>
      <point x="737" y="29"/>
      <point x="785" y="72" type="curve"/>
      <point x="832" y="190" type="line"/>
      <point x="874" y="44"/>
      <point x="965" y="-17"/>
      <point x="1055" y="-17" type="curve" smooth="yes"/>
      <point x="1182" y="-17"/>
      <point x="1230" y="15"/>
      <point x="1269" y="51" type="curve"/>
    </contour>
  </outline>
</glyph>
<glyph name="cedilla" format="2">
  <advance width="1300"/>
  <unicode hex="00B8"/>
  <outline>
    <contour>
      <point x="622" y="0" type="line"/>
      <point x="640" y="-16"/>
      <point x="716" y="-90"/>
      <point x="716" y="-147" type="curve" smooth="yes"/>
      <point x="716" y="-184"/>
      <point x="683" y="-200" name=".hr01"/>
      <point x="652" y="-200" type="curve" smooth="yes"/>
      <point x="623" y="-200"/>
      <point x="580" y="-183"/>
      <point x="545" y="-166" type="curve" smooth="yes"/>
      <point x="524" y="-156"/>
      <point x="502" y="-144"/>
      <point x="481" y="-131" type="curve"/>
      <point x="366" y="-290" type="line"/>
      <point x="400" y="-312"/>
      <point x="435" y="-332"/>
      <point x="472" y="-349" type="curve" smooth="yes"/>
      <point x="536" y="-378"/>
      <point x="615" y="-407"/>
      <point x="695" y="-407" type="curve" smooth="yes"/>
      <point x="847" y="-407"/>
      <point x="983" y="-303"/>
      <point x="983" y="-171" type="curve" smooth="yes"/>
      <point x="983" y="-119"/>
      <point x="958" y="-77"/>
      <point x="933" y="-46" type="curve"/>
      <point x="918" y="-29"/>
      <point x="902" y="-13"/>
      <point x="884" y="0" type="curve" name=".hr02"/>
    </contour>
  </outline>
</glyph>
<glyph name="guillemotright" format="2">
  <advance width="1300"/>
  <unicode hex="00BB"/>
  <outline>
    <contour>
      <point x="218" y="1106" type="line"/>
      <point x="129" y="880" type="line"/>
      <point x="460" y="582" type="line"/>
      <point x="535" y="550" type="line"/>
      <point x="461" y="517" type="line"/>
      <point x="127" y="224" type="line"/>
      <point x="221" y="-13" type="line"/>
      <point x="777" y="476" type="line"/>
      <point x="777" y="619" type="line"/>
    </contour>
    <contour>
      <point x="718" y="1106" type="line"/>
      <point x="629" y="880" type="line"/>
      <point x="960" y="582" type="line"/>
      <point x="1035" y="550" type="line"/>
      <point x="961" y="517" type="line"/>
      <point x="627" y="224" type="line"/>
      <point x="721" y="-13" type="line"/>
      <point x="1277" y="476" type="line"/>
      <point x="1277" y="619" type="line"/>
    </contour>
  </outline>
</glyph>
<glyph name="questiondown" format="2">
  <advance width="1300"/>
  <unicode hex="00BF"/>
  <outline>
    <contour>
      <point x="798" y="951" type="curve" smooth="yes"/>
      <point x="798" y="1040"/>
      <point x="725" y="1117"/>
      <point x="634" y="1117" type="curve" smooth="yes"/>
      <point x="543" y="1117"/>
      <point x="472" y="1040"/>
      <point x="472" y="951" type="curve" smooth="yes"/>
      <point x="472" y="861"/>
      <point x="545" y="787"/>
      <point x="635" y="787" type="curve" smooth="yes"/>
      <point x="725" y="787"/>
      <point x="798" y="861"/>
    </contour>
    <contour>
      <point x="96" y="-24" type="curve" smooth="yes"/>
      <point x="96" y="-293"/>
      <point x="336" y="-417"/>
      <point x="589" y="-417" type="curve" smooth="yes"/>
      <point x="747" y="-417"/>
      <point x="948" y="-371"/>
      <point x="1100" y="-168" type="curve"/>
      <point x="918" y="-17" type="line"/>
      <point x="827" y="-141"/>
      <point x="682" y="-183"/>
      <point x="613" y="-183" type="curve" smooth="yes"/>
      <point x="521" y="-183"/>
      <point x="437" y="-139"/>
      <point x="437" y="-32" type="curve" smooth="yes"/>
      <point x="437" y="55"/>
      <point x="494" y="107"/>
      <point x="553" y="158" type="curve"/>
      <point x="742" y="299"/>
      <point x="799" y="469"/>
      <point x="802" y="701" type="curve"/>
      <point x="491" y="666" type="line"/>
      <point x="491" y="498"/>
      <point x="405" y="402"/>
      <point x="327" y="335" type="curve" smooth="yes"/>
      <point x="212" y="234"/>
      <point x="96" y="136"/>
    </contour>
  </outline>
</glyph>
<glyph name="Adieresis" format="2">
  <advance width="1300"/>
  <unicode hex="00C4"/>
  <outline>
    <contour>
      <point x="753" y="646" type="line"/>
      <point x="529" y="646" type="line"/>
      <point x="604" y="990" type="line"/>
      <point x="643" y="1331" type="line"/>
      <point x="681" y="990" type="line"/>
    </contour>
    <contour>
      <point x="470" y="427" type="line"/>
      <point x="812" y="427" type="line"/>
      <point x="916" y="0" type="line"/>
      <point x="1250" y="0" type="line"/>
      <point x="819" y="1520" type="line"/>
      <point x="441" y="1500" type="line"/>
      <point x="405" y="1284" type="line"/>
      <point x="50" y="0" type="line"/>
      <point x="369" y="0" type="line"/>
    </contour>
    <contour>
      <point x="580" y="1600" type="line"/>
      <point x="580" y="1866" type="line"/>
      <point x="304" y="1866" type="line"/>
      <point x="304" y="1600" type="line"/>
    </contour>
    <contour>
      <point x="980" y="1600" type="line"/>
      <point x="980" y="1866" type="line"/>
      <point x="704" y="1866" type="line"/>
      <point x="704" y="1600" type="line"/>
    </contour>
  </outline>
</glyph>
<glyph name="Aring" format="2">
  <advance width="1300"/>
  <unicode hex="00C5"/>
  <outline>
    <contour>
      <point x="369" y="0" type="line"/>
      <point x="470" y="427" type="line"/>
      <point x="812" y="427" type="line"/>
      <point x="916" y="0" type="line"/>
      <point x="1250" y="0" type="line"/>
      <point x="843" y="1435" type="line"/>
      <point x="844" y="1436"/>
      <point x="845" y="1438"/>
      <point x="846" y="1439" type="curve" smooth="yes"/>
      <point x="897" y="1491"/>
      <point x="928" y="1563"/>
      <point x="928" y="1642" type="curve" smooth="yes"/>
      <point x="928" y="1799"/>
      <point x="800" y="1927"/>
      <point x="644" y="1927" type="curve" smooth="yes"/>
      <point x="487" y="1927"/>
      <point x="358" y="1799"/>
      <point x="358" y="1642" type="curve" smooth="yes"/>
      <point x="358" y="1603"/>
      <point x="366" y="1566"/>
      <point x="381" y="1531" type="curve" smooth="yes"/>
      <point x="394" y="1500"/>
      <point x="412" y="1473"/>
      <point x="433" y="1450" type="curve"/>
      <point x="405" y="1284" type="line"/>
      <point x="50" y="0" type="line"/>
    </contour>
    <contour>
      <point x="645" y="1542" type="curve" smooth="yes"/>
      <point x="591" y="1542"/>
      <point x="547" y="1588"/>
      <point x="547" y="1641" type="curve" smooth="yes"/>
      <point x="547" y="1694"/>
      <point x="590" y="1738"/>
      <point x="644" y="1738" type="curve" smooth="yes"/>
      <point x="698" y="1738"/>
      <point x="741" y="1694"/>
      <point x="741" y="1641" type="curve" smooth="yes"/>
      <point x="741" y="1588"/>
      <point x="698" y="1542"/>
    </contour>
    <contour>
      <point x="681" y="990" type="line"/>
      <point x="753" y="646" type="line"/>
      <point x="529" y="646" type="line"/>
      <point x="604" y="990" type="line"/>
      <point x="643" y="1331" type="line"/>
    </contour>
  </outline>
</glyph>
<glyph name="AE" format="2">
  <advance width="1300"/>
  <unicode hex="00C6"/>
  <outline>
    <contour>
      <point x="880" y="228" type="line"/>
      <point x="887" y="360" type="line"/>
      <point x="887" y="703" type="line"/>
      <point x="1196" y="703" type="line"/>
      <point x="1196" y="916" type="line"/>
      <point x="887" y="916" type="line"/>
      <point x="887" y="1133" type="line"/>
      <point x="883" y="1178"/>
      <point x="878" y="1225"/>
      <point x="871" y="1272" type="curve"/>
      <point x="1263" y="1272" type="line"/>
      <point x="1263" y="1500" type="line"/>
      <point x="491" y="1500" type="line"/>
      <point x="445" y="1284" type="line"/>
      <point x="0" y="0" type="line"/>
      <point x="284" y="0" type="line"/>
      <point x="331" y="136"/>
      <point x="383" y="290"/>
      <point x="430" y="427" type="curve"/>
      <point x="601" y="427" type="line"/>
      <point x="601" y="231" type="line"/>
      <point x="583" y="0" type="line"/>
      <point x="1273" y="0" type="line"/>
      <point x="1300" y="228" type="line"/>
    </contour>
    <contour>
      <point x="601" y="599" type="line"/>
      <point x="478" y="599" type="line"/>
      <point x="543" y="851" type="line"/>
      <point x="601" y="1200" type="line"/>
    </contour>
  </outline>
</glyph>
<glyph name="Ccedilla" format="2">
  <advance width="1300"/>
  <unicode hex="00C7"/>
  <outline>
    <contour>
      <point x="1091" y="340" type="line"/>
      <point x="947" y="260"/>
      <point x="869" y="233"/>
      <point x="778" y="233" type="curve" smooth="yes"/>
      <point x="539" y="233"/>
      <point x="440" y="528"/>
      <point x="440" y="772" type="curve" smooth="yes"/>
      <point x="440" y="1048"/>
      <point x="521" y="1270"/>
      <point x="774" y="1270" type="curve" smooth="yes"/>
      <point x="865" y="1270"/>
      <point x="974" y="1219"/>
      <point x="1062" y="1160" type="curve"/>
      <point x="1210" y="1344" type="line"/>
      <point x="1093" y="1457"/>
      <point x="931" y="1517"/>
      <point x="758" y="1517" type="curve" smooth="yes"/>
      <point x="289" y="1517"/>
      <point x="90" y="1173"/>
      <point x="90" y="769" type="curve" smooth="yes"/>
      <point x="90" y="662"/>
      <point x="105" y="560"/>
      <point x="136" y="465" type="curve"/>
      <point x="196" y="274"/>
      <point x="312" y="129"/>
      <point x="476" y="46" type="curve" smooth="yes"/>
      <point x="521" y="23"/>
      <point x="570" y="6"/>
      <point x="621" y="-4" type="curve"/>
      <point x="639" y="-22" type="line" smooth="yes"/>
      <point x="668" y="-51"/>
      <point x="710" y="-106"/>
      <point x="710" y="-147" type="curve" smooth="yes"/>
      <point x="710" y="-184"/>
      <point x="677" y="-200"/>
      <point x="646" y="-200" type="curve" smooth="yes"/>
      <point x="617" y="-200"/>
      <point x="574" y="-183"/>
      <point x="539" y="-166" type="curve" smooth="yes"/>
      <point x="518" y="-156"/>
      <point x="496" y="-144"/>
      <point x="475" y="-131" type="curve"/>
      <point x="360" y="-290" type="line"/>
      <point x="394" y="-312"/>
      <point x="429" y="-332"/>
      <point x="466" y="-349" type="curve" smooth="yes"/>
      <point x="530" y="-378"/>
      <point x="609" y="-407"/>
      <point x="689" y="-407" type="curve" smooth="yes"/>
      <point x="841" y="-407"/>
      <point x="977" y="-303"/>
      <point x="977" y="-171" type="curve" smooth="yes"/>
      <point x="977" y="-119"/>
      <point x="952" y="-77"/>
      <point x="927" y="-46" type="curve"/>
      <point x="915" y="-32"/>
      <point x="902" y="-19"/>
      <point x="887" y="-7" type="curve"/>
      <point x="925" y="-2"/>
      <point x="962" y="7"/>
      <point x="997" y="18" type="curve" smooth="yes"/>
      <point x="1071" y="41"/>
      <point x="1142" y="79"/>
      <point x="1210" y="133" type="curve"/>
    </contour>
  </outline>
</glyph>
<glyph name="Edieresis" format="2">
  <advance width="1300"/>
  <unicode hex="00CB"/>
  <outline>
    <contour>
      <point x="510" y="228" type="line"/>
      <point x="518" y="360" type="line"/>
      <point x="518" y="703" type="line"/>
      <point x="1034" y="703" type="line"/>
      <point x="1034" y="916" type="line"/>
      <point x="518" y="916" type="line"/>
      <point x="518" y="1134" type="line"/>
      <point x="503" y="1272" type="line"/>
      <point x="1100" y="1272" type="line"/>
      <point x="1100" y="1500" type="line"/>
      <point x="132" y="1500" type="line"/>
      <point x="167" y="1263" type="line"/>
      <point x="167" y="231" type="line"/>
      <point x="150" y="0" type="line"/>
      <point x="1110" y="0" type="line"/>
      <point x="1137" y="228" type="line"/>
    </contour>
    <contour>
      <point x="312" y="1600" type="line"/>
      <point x="588" y="1600" type="line"/>
      <point x="588" y="1866" type="line"/>
      <point x="312" y="1866" type="line"/>
    </contour>
    <contour>
      <point x="712" y="1600" type="line"/>
      <point x="988" y="1600" type="line"/>
      <point x="988" y="1866" type="line"/>
      <point x="712" y="1866" type="line"/>
    </contour>
  </outline>
</glyph>
<glyph name="Eth" format="2">
  <advance width="1300"/>
  <unicode hex="00D0"/>
  <outline>
    <contour>
      <point x="0" y="665" type="line"/>
      <point x="160" y="665" type="line"/>
      <point x="160" y="0" type="line"/>
      <point x="512" y="0" type="line" smooth="yes"/>
      <point x="932" y="0"/>
      <point x="1299" y="226"/>
      <point x="1299" y="807" type="curve" smooth="yes"/>
      <point x="1299" y="1308"/>
      <point x="967" y="1517"/>
      <point x="520" y="1517" type="curve" smooth="yes"/>
      <point x="432" y="1517"/>
      <point x="256" y="1513"/>
      <point x="126" y="1500" type="curve"/>
      <point x="160" y="1263" type="line"/>
      <point x="160" y="888" type="line"/>
      <point x="0" y="888" type="line"/>
    </contour>
    <contour>
      <point x="512" y="1289" type="line" smooth="yes"/>
      <point x="872" y="1289"/>
      <point x="948" y="1078"/>
      <point x="948" y="778" type="curve" smooth="yes"/>
      <point x="948" y="584"/>
      <point x="932" y="254"/>
      <point x="511" y="230" type="curve"/>
      <point x="511" y="665" type="line"/>
      <point x="691" y="665" type="line"/>
      <point x="691" y="888" type="line"/>
      <point x="511" y="888" type="line"/>
      <point x="511" y="1127" type="line"/>
      <point x="490" y="1288" type="line"/>
      <point x="494" y="1289"/>
      <point x="498" y="1289"/>
      <point x="502" y="1289" type="curve"/>
      <point x="503" y="1289" type="line"/>
      <point x="504" y="1289" type="line"/>
      <point x="505" y="1289" type="line"/>
      <point x="506" y="1289" type="line"/>
      <point x="506" y="1289" type="line"/>
    </contour>
  </outline>
</glyph>
<glyph name="Ograve" format="2">
  <advance width="1300"/>
  <unicode hex="00D2"/>
  <outline>
    <contour>
      <point x="637" y="1900" type="line"/>
      <point x="300" y="1920" type="line"/>
      <point x="585" y="1600" type="line"/>
      <point x="800" y="1600" type="line"/>
    </contour>
    <contour>
      <point x="623" y="-17" type="curve" smooth="yes"/>
      <point x="1024" y="-17"/>
      <point x="1221" y="330"/>
      <point x="1221" y="750" type="curve" smooth="yes"/>
      <point x="1221" y="1170"/>
      <point x="1014" y="1517"/>
      <point x="623" y="1517" type="curve" smooth="yes"/>
      <point x="220" y="1517"/>
      <point x="24" y="1170"/>
      <point x="24" y="750" type="curve" smooth="yes"/>
      <point x="24" y="330"/>
      <point x="231" y="-17"/>
    </contour>
    <contour>
      <point x="871" y="721" type="curve" smooth="yes"/>
      <point x="871" y="506"/>
      <point x="835" y="226"/>
      <point x="628" y="226" type="curve" smooth="yes"/>
      <point x="407" y="226"/>
      <point x="374" y="532"/>
      <point x="374" y="783" type="curve" smooth="yes"/>
      <point x="374" y="999"/>
      <point x="409" y="1274"/>
      <point x="617" y="1274" type="curve" smooth="yes"/>
      <point x="839" y="1274"/>
      <point x="871" y="969"/>
    </contour>
  </outline>
</glyph>
<glyph name="Oacute" format="2">
  <advance width="1300"/>
  <unicode hex="00D3"/>
  <outline>
    <contour>
      <point x="400" y="1600" type="line"/>
      <point x="615" y="1600" type="line"/>
      <point x="900" y="1920" type="line"/>
      <point x="563" y="1900" type="line"/>
    </contour>
    <contour>
      <point x="623" y="-17" type="curve" smooth="yes"/>
      <point x="1024" y="-17"/>
      <point x="1221" y="330"/>
      <point x="1221" y="750" type="curve" smooth="yes"/>
      <point x="1221" y="1170"/>
      <point x="1014" y="1517"/>
      <point x="623" y="1517" type="curve" smooth="yes"/>
      <point x="220" y="1517"/>
      <point x="24" y="1170"/>
      <point x="24" y="750" type="curve" smooth="yes"/>
      <point x="24" y="330"/>
      <point x="231" y="-17"/>
    </contour>
    <contour>
      <point x="871" y="721" type="curve" smooth="yes"/>
      <point x="871" y="506"/>
      <point x="835" y="226"/>
      <point x="628" y="226" type="curve" smooth="yes"/>
      <point x="407" y="226"/>
      <point x="374" y="532"/>
      <point x="374" y="783" type="curve" smooth="yes"/>
      <point x="374" y="999"/>
      <point x="409" y="1274"/>
      <point x="617" y="1274" type="curve" smooth="yes"/>
      <point x="839" y="1274"/>
      <point x="871" y="969"/>
    </contour>
  </outline>
</glyph>
<glyph name="Ocircumflex" format="2">
  <advance width="1300"/>
  <unicode hex="00D4"/>
  <outline>
    <contour>
      <point x="767" y="1920" type="line"/>
      <point x="477" y="1900" type="line"/>
      <point x="282" y="1620" type="line"/>
      <point x="521" y="1620" type="line"/>
      <point x="602" y="1723" type="line"/>
      <point x="632" y="1850" type="line"/>
      <point x="662" y="1723" type="line"/>
      <point x="732" y="1620" type="line"/>
      <point x="952" y="1620" type="line"/>
    </contour>
    <contour>
      <point x="622" y="-17" type="curve" smooth="yes"/>
      <point x="1023" y="-17"/>
      <point x="1220" y="330"/>
      <point x="1220" y="750" type="curve" smooth="yes"/>
      <point x="1220" y="1170"/>
      <point x="1013" y="1517"/>
      <point x="622" y="1517" type="curve" smooth="yes"/>
      <point x="219" y="1517"/>
      <point x="23" y="1170"/>
      <point x="23" y="750" type="curve" smooth="yes"/>
      <point x="23" y="330"/>
      <point x="230" y="-17"/>
    </contour>
    <contour>
      <point x="870" y="721" type="curve" smooth="yes"/>
      <point x="870" y="506"/>
      <point x="834" y="226"/>
      <point x="627" y="226" type="curve" smooth="yes"/>
      <point x="406" y="226"/>
      <point x="373" y="532"/>
      <point x="373" y="783" type="curve" smooth="yes"/>
      <point x="373" y="999"/>
      <point x="408" y="1274"/>
      <point x="616" y="1274" type="curve" smooth="yes"/>
      <point x="838" y="1274"/>
      <point x="870" y="969"/>
    </contour>
  </outline>
</glyph>
<glyph name="Otilde" format="2">
  <advance width="1300"/>
  <unicode hex="00D5"/>
  <outline>
    <contour>
      <point x="407" y="1620" type="line" name=".hr04"/>
      <point x="418" y="1660"/>
      <point x="432" y="1700" name=".hr01"/>
      <point x="480" y="1700" type="curve" smooth="yes"/>
      <point x="575" y="1700"/>
      <point x="606" y="1620" name=".hr02"/>
      <point x="729" y="1620" type="curve" smooth="yes"/>
      <point x="906" y="1620"/>
      <point x="966" y="1765"/>
      <point x="974" y="1882" type="curve"/>
      <point x="807" y="1892" type="line"/>
      <point x="799" y="1844"/>
      <point x="782" y="1804"/>
      <point x="726" y="1804" type="curve" smooth="yes"/>
      <point x="644" y="1804"/>
      <point x="606" y="1884" name=".hr03"/>
      <point x="476" y="1884" type="curve" smooth="yes"/>
      <point x="307" y="1884"/>
      <point x="236" y="1735"/>
      <point x="225" y="1627" type="curve"/>
    </contour>
    <contour>
      <point x="623" y="-17" type="curve" smooth="yes"/>
      <point x="1024" y="-17"/>
      <point x="1221" y="330"/>
      <point x="1221" y="750" type="curve" smooth="yes"/>
      <point x="1221" y="1170"/>
      <point x="1014" y="1517"/>
      <point x="623" y="1517" type="curve" smooth="yes"/>
      <point x="220" y="1517"/>
      <point x="24" y="1170"/>
      <point x="24" y="750" type="curve" smooth="yes"/>
      <point x="24" y="330"/>
      <point x="231" y="-17"/>
    </contour>
    <contour>
      <point x="871" y="721" type="curve" smooth="yes"/>
      <point x="871" y="506"/>
      <point x="835" y="226"/>
      <point x="628" y="226" type="curve" smooth="yes"/>
      <point x="407" y="226"/>
      <point x="374" y="532"/>
      <point x="374" y="783" type="curve" smooth="yes"/>
      <point x="374" y="999"/>
      <point x="409" y="1274"/>
      <point x="617" y="1274" type="curve" smooth="yes"/>
      <point x="839" y="1274"/>
      <point x="871" y="969"/>
    </contour>
  </outline>
</glyph>
<glyph name="Ucircumflex" format="2">
  <advance width="1300"/>
  <unicode hex="00DB"/>
  <outline>
    <contour>
      <point x="784" y="1920" type="line"/>
      <point x="494" y="1900" type="line"/>
      <point x="299" y="1620" type="line"/>
      <point x="538" y="1620" type="line"/>
      <point x="619" y="1723" type="line"/>
      <point x="649" y="1850" type="line"/>
      <point x="679" y="1723" type="line"/>
      <point x="749" y="1620" type="line"/>
      <point x="969" y="1620" type="line"/>
    </contour>
    <contour>
      <point x="828" y="1500" type="line"/>
      <point x="828" y="516" type="line" smooth="yes"/>
      <point x="828" y="320"/>
      <point x="783" y="221"/>
      <point x="650" y="221" type="curve" smooth="yes"/>
      <point x="483" y="221"/>
      <point x="458" y="347"/>
      <point x="458" y="564" type="curve" smooth="yes"/>
      <point x="458" y="1520" type="line"/>
      <point x="92" y="1500" type="line"/>
      <point x="126" y="1263" type="line"/>
      <point x="126" y="582" type="line" smooth="yes"/>
      <point x="126" y="224"/>
      <point x="256" y="-17"/>
      <point x="619" y="-17" type="curve" smooth="yes"/>
      <point x="956" y="-17"/>
      <point x="1160" y="163"/>
      <point x="1160" y="534" type="curve" smooth="yes"/>
      <point x="1160" y="1500" type="line"/>
    </contour>
  </outline>
</glyph>
<glyph name="Udieresis" format="2">
  <advance width="1300"/>
  <unicode hex="00DC"/>
  <outline>
    <contour>
      <point x="311" y="1600" type="line"/>
      <point x="587" y="1600" type="line"/>
      <point x="587" y="1866" type="line"/>
      <point x="311" y="1866" type="line"/>
    </contour>
    <contour>
      <point x="711" y="1600" type="line"/>
      <point x="987" y="1600" type="line"/>
      <point x="987" y="1866" type="line"/>
      <point x="711" y="1866" type="line"/>
    </contour>
    <contour>
      <point x="828" y="1500" type="line" name=".hr01"/>
      <point x="828" y="516" type="line" smooth="yes"/>
      <point x="828" y="320"/>
      <point x="783" y="221"/>
      <point x="650" y="221" type="curve" smooth="yes"/>
      <point x="483" y="221"/>
      <point x="458" y="347"/>
      <point x="458" y="564" type="curve" smooth="yes"/>
      <point x="458" y="1520" type="line"/>
      <point x="92" y="1500" type="line"/>
      <point x="126" y="1263" type="line"/>
      <point x="126" y="582" type="line" smooth="yes"/>
      <point x="126" y="224"/>
      <point x="256" y="-17"/>
      <point x="619" y="-17" type="curve" smooth="yes"/>
      <point x="956" y="-17"/>
      <point x="1160" y="163"/>
      <point x="1160" y="534" type="curve" smooth="yes"/>
      <point x="1160" y="1500" type="line"/>
    </contour>
  </outline>
</glyph>
<glyph name="germandbls" format="2">
  <advance width="1300"/>
  <unicode hex="00DF"/>
  <outline>
    <contour>
      <point x="470" y="1119" type="line" smooth="yes"/>
      <point x="470" y="1231"/>
      <point x="515" y="1276"/>
      <point x="610" y="1276" type="curve" smooth="yes"/>
      <point x="677" y="1276"/>
      <point x="740" y="1201"/>
      <point x="740" y="1107" type="curve" smooth="yes"/>
      <point x="740" y="977"/>
      <point x="645" y="915"/>
      <point x="500" y="902" type="curve"/>
      <point x="595" y="681" type="line"/>
      <point x="730" y="681"/>
      <point x="826" y="614" name=".hr01"/>
      <point x="826" y="457" type="curve" smooth="yes"/>
      <point x="826" y="300"/>
      <point x="715" y="228"/>
      <point x="520" y="224" type="curve"/>
      <point x="601" y="0" type="line"/>
      <point x="857" y="0"/>
      <point x="1162" y="121"/>
      <point x="1162" y="466" type="curve" smooth="yes"/>
      <point x="1162" y="649"/>
      <point x="1028" y="755"/>
      <point x="859" y="811" type="curve"/>
      <point x="984" y="875"/>
      <point x="1068" y="986" name=".hr02"/>
      <point x="1068" y="1127" type="curve" smooth="yes"/>
      <point x="1068" y="1234"/>
      <point x="1020" y="1301"/>
      <point x="954" y="1373" type="curve"/>
      <point x="881" y="1450"/>
      <point x="767" y="1489"/>
      <point x="613" y="1489" type="curve" smooth="yes"/>
      <point x="326" y="1489"/>
      <point x="127" y="1349"/>
      <point x="127" y="1073" type="curve" smooth="yes"/>
      <point x="127" y="0" type="line"/>
      <point x="470" y="-17" type="line"/>
    </contour>
  </outline>
</glyph>
<glyph name="aacute" format="2">
  <advance width="1300"/>
  <unicode hex="00E1"/>
  <outline>
    <contour>
      <point x="500" y="1200" type="line"/>
      <point x="715" y="1200" type="line"/>
      <point x="1000" y="1520" type="line"/>
      <point x="663" y="1500" type="line"/>
    </contour>
    <contour>
      <point x="1112" y="200" type="line"/>
      <point x="1112" y="681" type="line" smooth="yes"/>
      <point x="1112" y="941"/>
      <point x="983" y="1117"/>
      <point x="642" y="1117" type="curve" smooth="yes"/>
      <point x="438" y="1117"/>
      <point x="349" y="1080"/>
      <point x="225" y="1023" type="curve"/>
      <point x="319" y="838" type="line"/>
      <point x="390" y="870"/>
      <point x="514" y="900"/>
      <point x="632" y="900" type="curve" smooth="yes"/>
      <point x="740" y="900"/>
      <point x="790" y="828"/>
      <point x="795" y="715" type="curve"/>
      <point x="742" y="724"/>
      <point x="680" y="729"/>
      <point x="604" y="729" type="curve" smooth="yes"/>
      <point x="357" y="729"/>
      <point x="106" y="614"/>
      <point x="106" y="358" type="curve" smooth="yes"/>
      <point x="106" y="115"/>
      <point x="356" y="-17"/>
      <point x="577" y="-17" type="curve" smooth="yes"/>
      <point x="617" y="-17"/>
      <point x="664" y="-10"/>
      <point x="711" y="5" type="curve"/>
      <point x="795" y="100" type="line"/>
      <point x="795" y="0" type="line" name=".hr01"/>
      <point x="1135" y="0" type="line"/>
    </contour>
    <contour>
      <point x="795" y="300" type="line"/>
      <point x="730" y="244"/>
      <point x="661" y="208" name=".hr02"/>
      <point x="585" y="208" type="curve" smooth="yes"/>
      <point x="508" y="208"/>
      <point x="435" y="269"/>
      <point x="435" y="359" type="curve" smooth="yes"/>
      <point x="435" y="471"/>
      <point x="540" y="505"/>
      <point x="642" y="505" type="curve" smooth="yes"/>
      <point x="683" y="505"/>
      <point x="755" y="503"/>
      <point x="795" y="500" type="curve"/>
    </contour>
  </outline>
</glyph>
<glyph name="eacute" format="2">
  <advance width="1300"/>
  <unicode hex="00E9"/>
  <outline>
    <contour>
      <point x="500" y="1200" type="line"/>
      <point x="715" y="1200" type="line"/>
      <point x="1000" y="1520" type="line"/>
      <point x="663" y="1500" type="line"/>
    </contour>
    <contour>
      <point x="1000" y="300" type="line"/>
      <point x="963" y="268"/>
      <point x="843" y="200"/>
      <point x="706" y="200" type="curve" smooth="yes"/>
      <point x="563" y="200"/>
      <point x="405" y="322"/>
      <point x="400" y="466" type="curve"/>
      <point x="1147" y="466" type="line"/>
      <point x="1154" y="534"/>
      <point x="1159" y="596"/>
      <point x="1159" y="632" type="curve" smooth="yes"/>
      <point x="1159" y="919"/>
      <point x="973" y="1116"/>
      <point x="653" y="1116" type="curve" smooth="yes"/>
      <point x="309" y="1116"/>
      <point x="100" y="833"/>
      <point x="100" y="550" type="curve" smooth="yes"/>
      <point x="100" y="255"/>
      <point x="302" y="-16"/>
      <point x="686" y="-16" type="curve" smooth="yes"/>
      <point x="906" y="-16"/>
      <point x="1042" y="60"/>
      <point x="1148" y="158" type="curve"/>
    </contour>
    <contour>
      <point x="516" y="671" type="line"/>
      <point x="343" y="653" type="line"/>
      <point x="434" y="756" type="line"/>
      <point x="456" y="808"/>
      <point x="522" y="900"/>
      <point x="657" y="900" type="curve" smooth="yes"/>
      <point x="793" y="900"/>
      <point x="865" y="794"/>
      <point x="865" y="672" type="curve"/>
    </contour>
  </outline>
</glyph>
<glyph name="iacute" format="2">
  <advance width="1300"/>
  <unicode hex="00ED"/>
  <outline>
    <contour>
      <point x="470" y="1200" type="line"/>
      <point x="685" y="1200" type="line"/>
      <point x="970" y="1520" type="line"/>
      <point x="633" y="1500" type="line"/>
    </contour>
    <contour>
      <point x="464" y="432" type="line" smooth="yes"/>
      <point x="464" y="189"/>
      <point x="602" y="-17"/>
      <point x="908" y="-17" type="curve" smooth="yes"/>
      <point x="1097" y="-17"/>
      <point x="1168" y="70"/>
      <point x="1204" y="98" type="curve"/>
      <point x="1145" y="330" type="line"/>
      <point x="1076" y="263"/>
      <point x="1015" y="236"/>
      <point x="927" y="236" type="curve" smooth="yes"/>
      <point x="847" y="236"/>
      <point x="791" y="314"/>
      <point x="791" y="423" type="curve" smooth="yes"/>
      <point x="791" y="1100" type="line"/>
      <point x="161" y="1100" type="line"/>
      <point x="189" y="876" type="line"/>
      <point x="452" y="876" type="line"/>
      <point x="544" y="896" type="line" name=".hr01"/>
      <point x="464" y="834" type="line"/>
    </contour>
  </outline>
</glyph>
<glyph name="icircumflex" format="2">
  <advance width="1300"/>
  <unicode hex="00EE"/>
  <outline>
    <contour>
      <point x="736" y="1520" type="line"/>
      <point x="446" y="1500" type="line"/>
      <point x="251" y="1220" type="line"/>
      <point x="490" y="1220" type="line"/>
      <point x="571" y="1323" type="line"/>
      <point x="601" y="1450" type="line" name=".hr01"/>
      <point x="631" y="1323" type="line"/>
      <point x="701" y="1220" type="line" name=".hr02"/>
      <point x="921" y="1220" type="line"/>
    </contour>
    <contour>
      <point x="464" y="432" type="line" smooth="yes"/>
      <point x="464" y="189"/>
      <point x="602" y="-17"/>
      <point x="908" y="-17" type="curve" smooth="yes"/>
      <point x="1097" y="-17"/>
      <point x="1168" y="70"/>
      <point x="1204" y="98" type="curve"/>
      <point x="1145" y="330" type="line"/>
      <point x="1076" y="263"/>
      <point x="1015" y="236"/>
      <point x="927" y="236" type="curve" smooth="yes"/>
      <point x="847" y="236"/>
      <point x="791" y="314"/>
      <point x="791" y="423" type="curve" smooth="yes"/>
      <point x="791" y="1100" type="line"/>
      <point x="161" y="1100" type="line"/>
      <point x="189" y="876" type="line"/>
      <point x="452" y="876" type="line"/>
      <point x="544" y="896" type="line" name=".hr03"/>
      <point x="464" y="834" type="line"/>
    </contour>
  </outline>
</glyph>
<glyph name="idieresis" format="2">
  <advance width="1300"/>
  <unicode hex="00EF"/>
  <outline>
    <contour>
      <point x="262" y="1300" type="line"/>
      <point x="538" y="1300" type="line"/>
      <point x="538" y="1566" type="line"/>
      <point x="262" y="1566" type="line"/>
    </contour>
    <contour>
      <point x="662" y="1300" type="line"/>
      <point x="938" y="1300" type="line"/>
      <point x="938" y="1566" type="line"/>
      <point x="662" y="1566" type="line"/>
    </contour>
    <contour>
      <point x="464" y="432" type="line" smooth="yes" name=".hr01"/>
      <point x="464" y="189"/>
      <point x="602" y="-17"/>
      <point x="908" y="-17" type="curve" smooth="yes"/>
      <point x="1097" y="-17"/>
      <point x="1168" y="70"/>
      <point x="1204" y="98" type="curve"/>
      <point x="1145" y="330" type="line"/>
      <point x="1076" y="263"/>
      <point x="1015" y="236"/>
      <point x="927" y="236" type="curve" smooth="yes"/>
      <point x="847" y="236"/>
      <point x="791" y="314"/>
      <point x="791" y="423" type="curve" smooth="yes"/>
      <point x="791" y="1100" type="line"/>
      <point x="161" y="1100" type="line"/>
      <point x="189" y="876" type="line"/>
      <point x="452" y="876" type="line"/>
      <point x="544" y="896" type="line" name=".hr02"/>
      <point x="464" y="834" type="line"/>
    </contour>
  </outline>
</glyph>
<glyph name="ntilde" format="2">
  <advance width="1300"/>
  <unicode hex="00F1"/>
  <outline>
    <contour>
      <point x="408" y="1240" type="line" name=".hr04"/>
      <point x="419" y="1280"/>
      <point x="433" y="1320" name=".hr01"/>
      <point x="481" y="1320" type="curve" smooth="yes"/>
      <point x="576" y="1320"/>
      <point x="607" y="1240" name=".hr02"/>
      <point x="730" y="1240" type="curve" smooth="yes"/>
      <point x="907" y="1240"/>
      <point x="967" y="1385"/>
      <point x="975" y="1502" type="curve"/>
      <point x="808" y="1512" type="line"/>
      <point x="800" y="1464"/>
      <point x="783" y="1424"/>
      <point x="727" y="1424" type="curve" smooth="yes"/>
      <point x="645" y="1424"/>
      <point x="607" y="1504" name=".hr03"/>
      <point x="477" y="1504" type="curve" smooth="yes"/>
      <point x="308" y="1504"/>
      <point x="237" y="1355"/>
      <point x="226" y="1247" type="curve"/>
    </contour>
    <contour>
      <point x="460" y="808" type="line"/>
      <point x="513" y="865"/>
      <point x="566" y="892"/>
      <point x="650" y="892" type="curve" smooth="yes"/>
      <point x="724" y="892"/>
      <point x="795" y="845"/>
      <point x="795" y="736" type="curve" smooth="yes"/>
      <point x="795" y="0" type="line"/>
      <point x="1112" y="0" type="line"/>
      <point x="1112" y="736" type="line" smooth="yes"/>
      <point x="1112" y="968"/>
      <point x="964" y="1117"/>
      <point x="720" y="1117" type="curve" smooth="yes"/>
      <point x="643" y="1117"/>
      <point x="588" y="1113"/>
      <point x="537" y="1100" type="curve"/>
      <point x="460" y="1000" type="line"/>
      <point x="460" y="1120" type="line"/>
      <point x="143" y="1100" type="line"/>
      <point x="143" y="0" type="line"/>
      <point x="460" y="0" type="line"/>
    </contour>
  </outline>
</glyph>
<glyph name="ocircumflex" format="2">
  <advance width="1300"/>
  <unicode hex="00F4"/>
  <outline>
    <contour>
      <point x="774" y="1520" type="line"/>
      <point x="484" y="1500" type="line"/>
      <point x="289" y="1220" type="line"/>
      <point x="528" y="1220" type="line"/>
      <point x="609" y="1323" type="line"/>
      <point x="639" y="1450" type="line" name=".hr01"/>
      <point x="669" y="1323" type="line"/>
      <point x="739" y="1220" type="line" name=".hr02"/>
      <point x="959" y="1220" type="line"/>
    </contour>
    <contour>
      <point x="627" y="-17" type="curve" smooth="yes"/>
      <point x="957" y="-17"/>
      <point x="1164" y="229"/>
      <point x="1164" y="553" type="curve" smooth="yes"/>
      <point x="1164" y="714"/>
      <point x="1110" y="857"/>
      <point x="1016" y="958" type="curve" smooth="yes"/>
      <point x="922" y="1059"/>
      <point x="791" y="1117"/>
      <point x="647" y="1117" type="curve" smooth="yes"/>
      <point x="627" y="1117" type="line"/>
      <point x="606" y="1117" type="line" smooth="yes"/>
      <point x="458" y="1117"/>
      <point x="326" y="1059"/>
      <point x="231" y="958" type="curve" smooth="yes"/>
      <point x="135" y="857"/>
      <point x="81" y="714"/>
      <point x="81" y="553" type="curve" smooth="yes"/>
      <point x="81" y="229"/>
      <point x="308" y="-17"/>
    </contour>
    <contour>
      <point x="838" y="528" type="curve" smooth="yes"/>
      <point x="838" y="364"/>
      <point x="776" y="203"/>
      <point x="631" y="203" type="curve" smooth="yes"/>
      <point x="475" y="203"/>
      <point x="408" y="388"/>
      <point x="408" y="571" type="curve" smooth="yes"/>
      <point x="408" y="736"/>
      <point x="475" y="897"/>
      <point x="623" y="897" type="curve" smooth="yes"/>
      <point x="779" y="897"/>
      <point x="838" y="709"/>
    </contour>
  </outline>
</glyph>
<glyph name="uacute" format="2">
  <advance width="1300"/>
  <unicode hex="00FA"/>
  <outline>
    <contour>
      <point x="462" y="1200" type="line"/>
      <point x="677" y="1200" type="line"/>
      <point x="962" y="1520" type="line"/>
      <point x="625" y="1500" type="line"/>
    </contour>
    <contour>
      <point x="815" y="318" type="line"/>
      <point x="789" y="274"/>
      <point x="727" y="213"/>
      <point x="639" y="213" type="curve" smooth="yes"/>
      <point x="502" y="213"/>
      <point x="460" y="299"/>
      <point x="460" y="438" type="curve" smooth="yes"/>
      <point x="460" y="1120" type="line"/>
      <point x="144" y="1100" type="line"/>
      <point x="144" y="438" type="line" smooth="yes"/>
      <point x="144" y="203"/>
      <point x="256" y="-17"/>
      <point x="613" y="-17" type="curve" smooth="yes"/>
      <point x="656" y="-17"/>
      <point x="697" y="-11"/>
      <point x="734" y="0" type="curve"/>
      <point x="815" y="100" type="line"/>
      <point x="815" y="0" type="line"/>
      <point x="1132" y="0" type="line"/>
      <point x="1132" y="1120" type="line"/>
      <point x="815" y="1100" type="line"/>
    </contour>
  </outline>
</glyph>
<glyph name="thorn" format="2">
  <advance width="1300"/>
  <unicode hex="00FE"/>
  <outline>
    <contour>
      <point x="130" y="1500" type="line"/>
      <point x="130" y="-380" type="line"/>
      <point x="472" y="-380" type="line"/>
      <point x="472" y="-99" type="line"/>
      <point x="390" y="75" type="line"/>
      <point x="571" y="-9" type="line"/>
      <point x="603" y="-14"/>
      <point x="635" y="-17"/>
      <point x="670" y="-17" type="curve" smooth="yes"/>
      <point x="1001" y="-17"/>
      <point x="1211" y="229"/>
      <point x="1211" y="553" type="curve" smooth="yes"/>
      <point x="1211" y="877"/>
      <point x="990" y="1117"/>
      <point x="670" y="1117" type="curve" smooth="yes"/>
      <point x="635" y="1117"/>
      <point x="603" y="1114"/>
      <point x="571" y="1109" type="curve"/>
      <point x="390" y="1030" type="line"/>
      <point x="472" y="1201" type="line"/>
      <point x="472" y="1520" type="line"/>
    </contour>
    <contour>
      <point x="885" y="528" type="curve" smooth="yes"/>
      <point x="885" y="364"/>
      <point x="820" y="203"/>
      <point x="673" y="203" type="curve" smooth="yes"/>
      <point x="518" y="203"/>
      <point x="456" y="388"/>
      <point x="456" y="571" type="curve" smooth="yes"/>
      <point x="456" y="736"/>
      <point x="518" y="897"/>
      <point x="666" y="897" type="curve" smooth="yes"/>
      <point x="823" y="897"/>
      <point x="885" y="709"/>
    </contour>
  </outline>
</glyph>
<glyph name="ydieresis" format="2">
  <advance width="1300"/>
  <unicode hex="00FF"/>
  <outline>
    <contour>
      <point x="323" y="1300" type="line"/>
      <point x="599" y="1300" type="line"/>
      <point x="599" y="1566" type="line"/>
      <point x="323" y="1566" type="line"/>
    </contour>
    <contour>
      <point x="723" y="1300" type="line"/>
      <point x="999" y="1300" type="line"/>
      <point x="999" y="1566" type="line"/>
      <point x="723" y="1566" type="line"/>
    </contour>
    <contour>
      <point x="417" y="1120" type="line"/>
      <point x="91" y="1100" type="line"/>
      <point x="510" y="-47" type="line"/>
      <point x="461" y="-164"/>
      <point x="418" y="-234"/>
      <point x="361" y="-234" type="curve" smooth="yes"/>
      <point x="325" y="-234"/>
      <point x="290" y="-214"/>
      <point x="259" y="-194" type="curve"/>
      <point x="136" y="-374" type="line"/>
      <point x="213" y="-442"/>
      <point x="303" y="-480"/>
      <point x="392" y="-480" type="curve" smooth="yes"/>
      <point x="615" y="-480"/>
      <point x="730" y="-213"/>
      <point x="811" y="8" type="curve" smooth="yes"/>
      <point x="1219" y="1120" type="line"/>
      <point x="899" y="1100" type="line"/>
      <point x="736" y="670" type="line"/>
      <point x="657" y="200" type="line"/>
      <point x="580" y="670" type="line"/>
    </contour>
  </outline>
</glyph>
<glyph name="OE" format="2">
  <advance width="1300"/>
  <unicode hex="0152"/>
  <outline>
    <contour>
      <point x="1273" y="0" type="line"/>
      <point x="1300" y="228" type="line" name=".hr01"/>
      <point x="881" y="228" type="line"/>
      <point x="888" y="360" type="line"/>
      <point x="888" y="703" type="line"/>
      <point x="1197" y="703" type="line"/>
      <point x="1197" y="916" type="line"/>
      <point x="888" y="916" type="line"/>
      <point x="888" y="1134" type="line"/>
      <point x="873" y="1272" type="line"/>
      <point x="1263" y="1272" type="line"/>
      <point x="1263" y="1500" type="line"/>
      <point x="650" y="1500" type="line"/>
      <point x="600" y="1440" type="line"/>
      <point x="577" y="1517" type="line"/>
      <point x="225" y="1517"/>
      <point x="-31" y="1299"/>
      <point x="-31" y="750" type="curve" smooth="yes"/>
      <point x="-31" y="200"/>
      <point x="225" y="-17"/>
      <point x="577" y="-17" type="curve"/>
      <point x="600" y="60" type="line"/>
      <point x="650" y="0" type="line" name=".hr02"/>
    </contour>
    <contour>
      <point x="601" y="231" type="line"/>
      <point x="585" y="224"/>
      <point x="567" y="221"/>
      <point x="550" y="221" type="curve" smooth="yes"/>
      <point x="399" y="221"/>
      <point x="300" y="396"/>
      <point x="300" y="783" type="curve" smooth="yes"/>
      <point x="300" y="1106"/>
      <point x="398" y="1279"/>
      <point x="539" y="1279" type="curve" smooth="yes"/>
      <point x="558" y="1279"/>
      <point x="581" y="1273"/>
      <point x="601" y="1265" type="curve"/>
    </contour>
  </outline>
</glyph>
<glyph name="oe" format="2">
  <advance width="1300"/>
  <unicode hex="0153"/>
  <outline>
    <contour>
      <point x="401" y="1117" type="curve" smooth="yes"/>
      <point x="231" y="1117"/>
      <point x="132" y="1038"/>
      <point x="75" y="921" type="curve" smooth="yes"/>
      <point x="18" y="806"/>
      <point x="2" y="666"/>
      <point x="2" y="553" type="curve" smooth="yes"/>
      <point x="2" y="289"/>
      <point x="73" y="-17"/>
      <point x="409" y="-17" type="curve" smooth="yes"/>
      <point x="526" y="-17"/>
      <point x="603" y="23"/>
      <point x="659" y="87" type="curve"/>
      <point x="726" y="23"/>
      <point x="823" y="-17"/>
      <point x="924" y="-17" type="curve" smooth="yes"/>
      <point x="1133" y="-17"/>
      <point x="1185" y="64"/>
      <point x="1266" y="161" type="curve"/>
      <point x="1100" y="299" type="line"/>
      <point x="1074" y="265"/>
      <point x="1024" y="200"/>
      <point x="950" y="200" type="curve" smooth="yes"/>
      <point x="801" y="200"/>
      <point x="800" y="349"/>
      <point x="800" y="466" type="curve"/>
      <point x="1266" y="466" type="line"/>
      <point x="1282" y="511"/>
      <point x="1299" y="599"/>
      <point x="1299" y="643" type="curve" smooth="yes"/>
      <point x="1299" y="954"/>
      <point x="1159" y="1117"/>
      <point x="919" y="1117" type="curve" smooth="yes"/>
      <point x="907" y="1117" type="line" smooth="yes"/>
      <point x="843" y="1117"/>
      <point x="804" y="1106"/>
      <point x="758" y="1085" type="curve" smooth="yes"/>
      <point x="712" y="1064"/>
      <point x="671" y="1034"/>
      <point x="640" y="1005" type="curve"/>
      <point x="587" y="1069"/>
      <point x="512" y="1117"/>
    </contour>
    <contour>
      <point x="790" y="768" type="line"/>
      <point x="800" y="815"/>
      <point x="830" y="892"/>
      <point x="910" y="892" type="curve" smooth="yes" name=".hr01"/>
      <point x="993" y="892"/>
      <point x="1020" y="815"/>
      <point x="1020" y="768" type="curve" smooth="yes"/>
      <point x="1020" y="681" type="line"/>
      <point x="710" y="681" type="line"/>
    </contour>
    <contour>
      <point x="406" y="244" type="curve" smooth="yes"/>
      <point x="282" y="244"/>
      <point x="260" y="402"/>
      <point x="260" y="569" type="curve" smooth="yes"/>
      <point x="260" y="688"/>
      <point x="277" y="856"/>
      <point x="396" y="856" type="curve" smooth="yes" name=".hr02"/>
      <point x="534" y="856"/>
      <point x="532" y="657"/>
      <point x="532" y="529" type="curve" smooth="yes"/>
      <point x="532" y="393"/>
      <point x="523" y="244"/>
    </contour>
  </outline>
</glyph>
<glyph name="florin" format="2">
  <advance width="1300"/>
  <unicode hex="0192"/>
  <outline>
    <contour>
      <point x="898" y="846" type="line"/>
      <point x="966" y="1191" type="line" smooth="yes"/>
      <point x="977" y="1247"/>
      <point x="1015" y="1272"/>
      <point x="1051" y="1272" type="curve" smooth="yes"/>
      <point x="1115" y="1272"/>
      <point x="1168" y="1241"/>
      <point x="1220" y="1200" type="curve"/>
      <point x="1260" y="1397" type="line"/>
      <point x="1160" y="1480"/>
      <point x="1033" y="1489"/>
      <point x="955" y="1489" type="curve" smooth="yes"/>
      <point x="806" y="1489"/>
      <point x="668" y="1397"/>
      <point x="625" y="1162" type="curve"/>
      <point x="552" y="777" type="line"/>
      <point x="512" y="846" type="line"/>
      <point x="357" y="846" type="line"/>
      <point x="300" y="628" type="line"/>
      <point x="528" y="628" type="line"/>
      <point x="404" y="25" type="line"/>
      <point x="404" y="26" type="line"/>
      <point x="373" y="-95"/>
      <point x="321" y="-151"/>
      <point x="261" y="-151" type="curve" smooth="yes"/>
      <point x="210" y="-151"/>
      <point x="151" y="-135"/>
      <point x="108" y="-100" type="curve"/>
      <point x="34" y="-309" type="line"/>
      <point x="122" y="-369"/>
      <point x="242" y="-402"/>
      <point x="355" y="-402" type="curve" smooth="yes"/>
      <point x="633" y="-402"/>
      <point x="672" y="-242"/>
      <point x="720" y="-54" type="curve"/>
      <point x="776" y="213"/>
      <point x="832" y="494"/>
      <point x="872" y="700" type="curve"/>
      <point x="911" y="628" type="line"/>
      <point x="1064" y="628" type="line"/>
      <point x="1121" y="846" type="line"/>
    </contour>
  </outline>
</glyph>
<glyph name="caron" format="2">
  <advance width="1300"/>
  <unicode hex="02C7"/>
  <outline>
    <contour>
      <point x="915" y="1520" type="line"/>
      <point x="710" y="1520" type="line"/>
      <point x="634" y="1427" type="line"/>
      <point x="600" y="1300" type="line"/>
      <point x="564" y="1427" type="line"/>
      <point x="489" y="1520" type="line"/>
      <point x="259" y="1520" type="line"/>
      <point x="432" y="1245" type="line"/>
      <point x="728" y="1216" type="line"/>
    </contour>
  </outline>
</glyph>
<glyph name="breve" format="2">
  <advance width="1300"/>
  <unicode hex="02D8"/>
  <outline>
    <contour>
      <point x="245" y="1519" type="line"/>
      <point x="245" y="1468" type="line" smooth="yes"/>
      <point x="245" y="1408"/>
      <point x="335" y="1254"/>
      <point x="584" y="1254" type="curve" smooth="yes"/>
      <point x="833" y="1254"/>
      <point x="929" y="1409" name=".hr01"/>
      <point x="929" y="1469" type="curve" smooth="yes"/>
      <point x="929" y="1519" type="line" name=".hr01"/>
      <point x="708" y="1519" type="line" name=".hr02"/>
      <point x="705" y="1498"/>
      <point x="698" y="1480"/>
      <point x="689" y="1464" type="curve"/>
      <point x="672" y="1437"/>
      <point x="643" y="1410" name=".hr03"/>
      <point x="584" y="1410" type="curve" smooth="yes"/>
      <point x="525" y="1410"/>
      <point x="497" y="1437"/>
      <point x="482" y="1464" type="curve" smooth="yes"/>
      <point x="473" y="1480"/>
      <point x="468" y="1498"/>
      <point x="467" y="1519" type="curve" name=".hr04"/>
    </contour>
  </outline>
</glyph>
<glyph name="Zeta" format="2">
  <advance width="1300"/>
  <unicode hex="0396"/>
  <outline>
    <contour>
      <point x="540" y="228" type="line"/>
      <point x="407" y="200" type="line"/>
      <point x="541" y="314" type="line"/>
      <point x="1088" y="1442" type="line"/>
      <point x="1047" y="1500" type="line"/>
      <point x="133" y="1500" type="line"/>
      <point x="160" y="1272" type="line"/>
      <point x="618" y="1272" type="line"/>
      <point x="749" y="1300" type="line"/>
      <point x="611" y="1187" type="line"/>
      <point x="70" y="86" type="line"/>
      <point x="104" y="0" type="line"/>
      <point x="1143" y="0" type="line"/>
      <point x="1116" y="228" type="line"/>
    </contour>
  </outline>
</glyph>
<glyph name="Nu" format="2">
  <advance width="1300"/>
  <unicode hex="039D"/>
  <outline>
    <contour>
      <point x="1173" y="0" type="line"/>
      <point x="1173" y="1520" type="line"/>
      <point x="851" y="1500" type="line"/>
      <point x="851" y="852" type="line"/>
      <point x="910" y="600" type="line"/>
      <point x="900" y="600" type="line"/>
      <point x="422" y="1520" type="line"/>
      <point x="96" y="1500" type="line"/>
      <point x="129" y="1263" type="line"/>
      <point x="129" y="0" type="line"/>
      <point x="452" y="0" type="line"/>
      <point x="452" y="649" type="line"/>
      <point x="390" y="950" type="line"/>
      <point x="400" y="950" type="line"/>
      <point x="884" y="0" type="line"/>
    </contour>
  </outline>
</glyph>
<glyph name="Omicron" format="2">
  <advance width="1300"/>
  <unicode hex="039F"/>
  <outline>
    <contour>
      <point x="823" y="-17" type="curve" smooth="yes"/>
      <point x="1224" y="-17"/>
      <point x="1421" y="330"/>
      <point x="1421" y="750" type="curve" smooth="yes"/>
      <point x="1421" y="1170"/>
      <point x="1214" y="1517"/>
      <point x="823" y="1517" type="curve" smooth="yes"/>
      <point x="420" y="1517"/>
      <point x="224" y="1170"/>
      <point x="224" y="750" type="curve" smooth="yes"/>
      <point x="224" y="330"/>
      <point x="431" y="-17"/>
    </contour>
    <contour>
      <point x="1071" y="721" type="curve" smooth="yes"/>
      <point x="1071" y="506"/>
      <point x="1035" y="226"/>
      <point x="828" y="226" type="curve" smooth="yes"/>
      <point x="607" y="226"/>
      <point x="574" y="532"/>
      <point x="574" y="783" type="curve" smooth="yes"/>
      <point x="574" y="999"/>
      <point x="609" y="1274"/>
      <point x="817" y="1274" type="curve" smooth="yes"/>
      <point x="1039" y="1274"/>
      <point x="1071" y="969"/>
    </contour>
  </outline>
</glyph>
<glyph name="Rho" format="2">
  <advance width="1300"/>
  <unicode hex="03A1"/>
  <outline>
    <contour>
      <point x="494" y="583" type="line"/>
      <point x="974" y="594"/>
      <point x="1217" y="731"/>
      <point x="1217" y="1081" type="curve" smooth="yes"/>
      <point x="1217" y="1334"/>
      <point x="1003" y="1517"/>
      <point x="520" y="1517" type="curve" smooth="yes"/>
      <point x="418" y="1517"/>
      <point x="243" y="1503"/>
      <point x="124" y="1484" type="curve"/>
      <point x="135" y="1422"/>
      <point x="151" y="1324"/>
      <point x="162" y="1262" type="curve"/>
      <point x="162" y="0" type="line"/>
      <point x="494" y="0" type="line"/>
    </contour>
    <contour>
      <point x="478" y="1289" type="line"/>
      <point x="504" y="1291"/>
      <point x="519" y="1292"/>
      <point x="539" y="1292" type="curve"/>
      <point x="540" y="1292" type="line"/>
      <point x="541" y="1292" type="line"/>
      <point x="542" y="1292" type="line"/>
      <point x="543" y="1292" type="line"/>
      <point x="544" y="1292" type="line"/>
      <point x="545" y="1292" type="line"/>
      <point x="546" y="1292" type="line"/>
      <point x="547" y="1292" type="line"/>
      <point x="548" y="1292" type="line"/>
      <point x="548" y="1292" type="line"/>
      <point x="563" y="1292" type="line" smooth="yes"/>
      <point x="707" y="1292"/>
      <point x="884" y="1223"/>
      <point x="884" y="1078" type="curve" smooth="yes"/>
      <point x="884" y="888"/>
      <point x="771" y="824"/>
      <point x="494" y="813" type="curve"/>
      <point x="494" y="1121" type="line"/>
    </contour>
  </outline>
</glyph>
<glyph name="Upsilon" format="2">
  <advance width="1300"/>
  <unicode hex="03A5"/>
  <outline>
    <contour>
      <point x="408" y="1520" type="line"/>
      <point x="69" y="1500" type="line"/>
      <point x="498" y="650" type="line"/>
      <point x="498" y="0" type="line"/>
      <point x="849" y="0" type="line"/>
      <point x="849" y="650" type="line"/>
      <point x="1282" y="1500" type="line"/>
      <point x="947" y="1500" type="line"/>
      <point x="765" y="1143" type="line"/>
      <point x="707" y="773" type="line"/>
      <point x="600" y="1143" type="line"/>
    </contour>
  </outline>
</glyph>
<glyph name="Chi" format="2">
  <advance width="1300"/>
  <unicode hex="03A7"/>
  <outline>
    <contour>
      <point x="1284" y="0" type="line"/>
      <point x="855" y="800" type="line"/>
      <point x="1255" y="1500" type="line"/>
      <point x="910" y="1500" type="line"/>
      <point x="749" y="1199" type="line"/>
      <point x="718" y="995" type="line"/>
      <point x="424" y="1520" type="line"/>
      <point x="76" y="1500" type="line"/>
      <point x="313" y="1085"/>
      <point x="447" y="851"/>
      <point x="478" y="797" type="curve"/>
      <point x="17" y="0" type="line"/>
      <point x="360" y="0" type="line"/>
      <point x="588" y="400" type="line"/>
      <point x="609" y="583" type="line"/>
      <point x="921" y="0" type="line"/>
    </contour>
  </outline>
</glyph>
<glyph name="delta" format="2">
  <advance width="1300"/>
  <unicode hex="03B4"/>
  <outline>
    <contour>
      <point x="624" y="1500" type="line" smooth="yes"/>
      <point x="456" y="1500"/>
      <point x="218" y="1478"/>
      <point x="218" y="1286" type="curve" smooth="yes"/>
      <point x="218" y="1210"/>
      <point x="293" y="1148"/>
      <point x="370" y="1108" type="curve"/>
      <point x="610" y="1015" type="line"/>
      <point x="429" y="1015" type="line"/>
      <point x="186" y="916"/>
      <point x="108" y="717" name=".hr01"/>
      <point x="108" y="540" type="curve" smooth="yes"/>
      <point x="108" y="267"/>
      <point x="324" y="-17"/>
      <point x="644" y="-17" type="curve" smooth="yes"/>
      <point x="940" y="-17"/>
      <point x="1180" y="241"/>
      <point x="1180" y="528" type="curve" smooth="yes"/>
      <point x="1180" y="795"/>
      <point x="1043" y="963"/>
      <point x="790" y="1107" type="curve" smooth="yes"/>
      <point x="677" y="1172"/>
      <point x="514" y="1209" name=".hr02"/>
      <point x="514" y="1253" type="curve" smooth="yes"/>
      <point x="514" y="1288"/>
      <point x="544" y="1300"/>
      <point x="587" y="1300" type="curve" smooth="yes"/>
      <point x="1000" y="1300" type="line"/>
      <point x="1059" y="1500" type="line"/>
    </contour>
    <contour>
      <point x="640" y="183" type="curve" smooth="yes"/>
      <point x="520" y="183"/>
      <point x="436" y="338" name=".hr03"/>
      <point x="436" y="528" type="curve" smooth="yes"/>
      <point x="436" y="741"/>
      <point x="512" y="859"/>
      <point x="643" y="859" type="curve" smooth="yes"/>
      <point x="772" y="859"/>
      <point x="842" y="672"/>
      <point x="842" y="528" type="curve" smooth="yes"/>
      <point x="842" y="338"/>
      <point x="755" y="183"/>
    </contour>
  </outline>
</glyph>
<glyph name="iota" format="2">
  <advance width="1300"/>
  <unicode hex="03B9"/>
  <outline>
    <contour>
      <point x="433" y="413" type="line" smooth="yes"/>
      <point x="433" y="170"/>
      <point x="468" y="-17"/>
      <point x="788" y="-17" type="curve" smooth="yes"/>
      <point x="856" y="-17"/>
      <point x="941" y="11"/>
      <point x="979" y="35" type="curve"/>
      <point x="883" y="209" type="line"/>
      <point x="862" y="200"/>
      <point x="837" y="195"/>
      <point x="808" y="195" type="curve" smooth="yes"/>
      <point x="759" y="195"/>
      <point x="760" y="300"/>
      <point x="760" y="400" type="curve" smooth="yes"/>
      <point x="760" y="1120" type="line"/>
      <point x="412" y="1100" type="line"/>
      <point x="433" y="874" type="line"/>
    </contour>
  </outline>
</glyph>
<glyph name="pi" format="2">
  <advance width="1300"/>
  <unicode hex="03C0"/>
  <outline>
    <contour>
      <point x="1148" y="900" type="line"/>
      <point x="1175" y="1100" type="line"/>
      <point x="220" y="1100" type="line" smooth="yes"/>
      <point x="122" y="1100"/>
      <point x="43" y="1065"/>
      <point x="1" y="1041" type="curve"/>
      <point x="116" y="874" type="line"/>
      <point x="127" y="879"/>
      <point x="139" y="884"/>
      <point x="151" y="888" type="curve" smooth="yes"/>
      <point x="171" y="895"/>
      <point x="197" y="903"/>
      <point x="221" y="903" type="curve" smooth="yes"/>
      <point x="258" y="903"/>
      <point x="259" y="841"/>
      <point x="259" y="698" type="curve" smooth="yes"/>
      <point x="259" y="0" type="line"/>
      <point x="576" y="0" type="line"/>
      <point x="576" y="752" type="line"/>
      <point x="461" y="900" type="line"/>
      <point x="725" y="900" type="line"/>
      <point x="725" y="413" type="line" smooth="yes"/>
      <point x="725" y="170"/>
      <point x="759" y="-17"/>
      <point x="1079" y="-17" type="curve" smooth="yes"/>
      <point x="1180" y="-17"/>
      <point x="1256" y="21"/>
      <point x="1299" y="43" type="curve"/>
      <point x="1192" y="218" type="line"/>
      <point x="1183" y="211"/>
      <point x="1173" y="205"/>
      <point x="1162" y="200" type="curve" smooth="yes"/>
      <point x="1143" y="191"/>
      <point x="1122" y="183"/>
      <point x="1099" y="183" type="curve" smooth="yes"/>
      <point x="1063" y="183"/>
      <point x="1042" y="223"/>
      <point x="1042" y="400" type="curve" smooth="yes"/>
      <point x="1042" y="900" type="line"/>
    </contour>
  </outline>
</glyph>
<glyph name="uni03C2" format="2">
  <advance width="1300"/>
  <unicode hex="03C2"/>
  <outline>
    <contour>
      <point x="843" y="900" type="line" smooth="yes"/>
      <point x="365" y="900"/>
      <point x="224" y="677"/>
      <point x="224" y="445" type="curve" smooth="yes"/>
      <point x="224" y="253"/>
      <point x="394" y="107"/>
      <point x="527" y="33" type="curve"/>
      <point x="618" y="-21"/>
      <point x="768" y="-74"/>
      <point x="768" y="-180" type="curve" smooth="yes"/>
      <point x="768" y="-230"/>
      <point x="697" y="-281"/>
      <point x="614" y="-324" type="curve"/>
      <point x="749" y="-517" type="line"/>
      <point x="944" y="-429"/>
      <point x="1100" y="-296"/>
      <point x="1100" y="-162" type="curve" smooth="yes"/>
      <point x="1100" y="10"/>
      <point x="964" y="88"/>
      <point x="806" y="176" type="curve" smooth="yes"/>
      <point x="582" y="299"/>
      <point x="544" y="378"/>
      <point x="544" y="454" type="curve" smooth="yes"/>
      <point x="544" y="674"/>
      <point x="822" y="700"/>
      <point x="1010" y="700" type="curve"/>
      <point x="1045" y="900" type="line"/>
    </contour>
  </outline>
</glyph>
<glyph name="sigma" format="2">
  <advance width="1300"/>
  <unicode hex="03C3"/>
  <outline>
    <contour>
      <point x="61" y="551" type="curve" smooth="yes"/>
      <point x="61" y="254"/>
      <point x="225" y="-17"/>
      <point x="601" y="-17" type="curve" smooth="yes"/>
      <point x="979" y="-17"/>
      <point x="1142" y="241"/>
      <point x="1142" y="551" type="curve" smooth="yes"/>
      <point x="1142" y="653"/>
      <point x="1131" y="710"/>
      <point x="1096" y="800" type="curve"/>
      <point x="920" y="939" type="line"/>
      <point x="1062" y="917" type="line"/>
      <point x="1235" y="917" type="line"/>
      <point x="1235" y="1117" type="line"/>
      <point x="601" y="1117" type="line" smooth="yes"/>
      <point x="225" y="1117"/>
      <point x="61" y="850"/>
    </contour>
    <contour>
      <point x="368" y="551" type="curve" smooth="yes"/>
      <point x="368" y="723"/>
      <point x="443" y="917"/>
      <point x="601" y="917" type="curve" smooth="yes"/>
      <point x="760" y="917"/>
      <point x="834" y="727"/>
      <point x="834" y="551" type="curve" smooth="yes"/>
      <point x="834" y="378"/>
      <point x="760" y="183"/>
      <point x="601" y="183" type="curve" smooth="yes"/>
      <point x="443" y="183"/>
      <point x="368" y="378"/>
    </contour>
  </outline>
</glyph>
<glyph name="uni03D2" format="2">
  <advance width="1300"/>
  <unicode hex="03D2"/>
  <outline>
    <contour>
      <point x="1234" y="1517" type="line"/>
      <point x="1062" y="1517"/>
      <point x="934" y="1503"/>
      <point x="838" y="1328" type="curve"/>
      <point x="742" y="1157" type="line"/>
      <point x="651" y="799" type="line"/>
      <point x="561" y="1157" type="line"/>
      <point x="464" y="1328" type="line" smooth="yes"/>
      <point x="366" y="1503"/>
      <point x="240" y="1517"/>
      <point x="68" y="1517" type="curve"/>
      <point x="68" y="1320" type="line"/>
      <point x="86" y="1318"/>
      <point x="103" y="1314"/>
      <point x="120" y="1308" type="curve"/>
      <point x="148" y="1297"/>
      <point x="180" y="1280"/>
      <point x="197" y="1245" type="curve" smooth="yes"/>
      <point x="484" y="662" type="line"/>
      <point x="484" y="0" type="line"/>
      <point x="818" y="0" type="line"/>
      <point x="818" y="662" type="line"/>
      <point x="1104" y="1245" type="line"/>
      <point x="1127" y="1290"/>
      <point x="1148" y="1312"/>
      <point x="1167" y="1324" type="curve" smooth="yes"/>
      <point x="1178" y="1331"/>
      <point x="1188" y="1335"/>
      <point x="1197" y="1336" type="curve"/>
    </contour>
  </outline>
</glyph>
<glyph name="endash" format="2">
  <advance width="1300"/>
  <unicode hex="2013"/>
  <outline>
    <contour>
      <point x="300" y="400" type="line"/>
      <point x="1000" y="400" type="line"/>
      <point x="1000" y="624" type="line"/>
      <point x="300" y="624" type="line"/>
    </contour>
  </outline>
</glyph>
<glyph name="emdash" format="2">
  <advance width="1300"/>
  <unicode hex="2014"/>
  <outline>
    <contour>
      <point x="0" y="400" type="line"/>
      <point x="1300" y="400" type="line"/>
      <point x="1300" y="624" type="line"/>
      <point x="0" y="624" type="line"/>
    </contour>
  </outline>
</glyph>
<glyph name="uni2016" format="2">
  <advance width="1300"/>
  <unicode hex="2016"/>
  <outline>
    <contour>
      <point x="370" y="1500" type="line"/>
      <point x="370" y="0" type="line"/>
      <point x="589" y="0" type="line"/>
      <point x="589" y="1500" type="line"/>
    </contour>
    <contour>
      <point x="670" y="1500" type="line"/>
      <point x="670" y="0" type="line"/>
      <point x="889" y="0" type="line"/>
      <point x="889" y="1500" type="line"/>
    </contour>
  </outline>
</glyph>
<glyph name="quotedblright" format="2">
  <advance width="1300"/>
  <unicode hex="201D"/>
  <outline>
    <contour>
      <point x="142" y="1321" type="curve" smooth="yes"/>
      <point x="142" y="1239"/>
      <point x="192" y="1204"/>
      <point x="245" y="1183" type="curve"/>
      <point x="237" y="1119"/>
      <point x="205" y="1041"/>
      <point x="175" y="992" type="curve"/>
      <point x="277" y="934" type="line"/>
      <point x="436" y="1082"/>
      <point x="464" y="1224"/>
      <point x="464" y="1321" type="curve" smooth="yes"/>
      <point x="464" y="1404"/>
      <point x="392" y="1475"/>
      <point x="300" y="1475" type="curve" smooth="yes"/>
      <point x="207" y="1475"/>
      <point x="142" y="1404"/>
    </contour>
    <contour>
      <point x="542" y="1321" type="curve" smooth="yes"/>
      <point x="542" y="1239"/>
      <point x="592" y="1204"/>
      <point x="645" y="1183" type="curve"/>
      <point x="637" y="1119"/>
      <point x="605" y="1041"/>
      <point x="575" y="992" type="curve"/>
      <point x="677" y="934" type="line"/>
      <point x="836" y="1082"/>
      <point x="864" y="1224"/>
      <point x="864" y="1321" type="curve" smooth="yes"/>
      <point x="864" y="1404"/>
      <point x="792" y="1475"/>
      <point x="700" y="1475" type="curve" smooth="yes"/>
      <point x="607" y="1475"/>
      <point x="542" y="1404"/>
    </contour>
  </outline>
</glyph>
<glyph name="quotedblbase" format="2">
  <advance width="1300"/>
  <unicode hex="201E"/>
  <outline>
    <contour>
      <point x="142" y="121" type="curve" smooth="yes"/>
      <point x="142" y="39"/>
      <point x="192" y="4"/>
      <point x="245" y="-17" type="curve"/>
      <point x="237" y="-81"/>
      <point x="205" y="-159"/>
      <point x="175" y="-208" type="curve"/>
      <point x="277" y="-266" type="line"/>
      <point x="436" y="-118"/>
      <point x="464" y="24"/>
      <point x="464" y="121" type="curve" smooth="yes"/>
      <point x="464" y="204"/>
      <point x="392" y="275"/>
      <point x="300" y="275" type="curve" smooth="yes"/>
      <point x="207" y="275"/>
      <point x="142" y="204"/>
    </contour>
    <contour>
      <point x="542" y="121" type="curve" smooth="yes"/>
      <point x="542" y="39"/>
      <point x="592" y="4"/>
      <point x="645" y="-17" type="curve"/>
      <point x="637" y="-81"/>
      <point x="605" y="-159"/>
      <point x="575" y="-208" type="curve"/>
      <point x="677" y="-266" type="line"/>
      <point x="836" y="-118"/>
      <point x="864" y="24"/>
      <point x="864" y="121" type="curve" smooth="yes"/>
      <point x="864" y="204"/>
      <point x="792" y="275"/>
      <point x="700" y="275" type="curve" smooth="yes"/>
      <point x="607" y="275"/>
      <point x="542" y="204"/>
    </contour>
  </outline>
</glyph>
<glyph name="uni2031" format="2">
  <advance width="2600"/>
  <unicode hex="2031"/>
  <outline>
    <contour>
      <point x="1513" y="-16" type="curve" smooth="yes"/>
      <point x="1688" y="-16"/>
      <point x="1780" y="74"/>
      <point x="1812" y="210" type="curve"/>
      <point x="1813" y="212"/>
      <point x="1813" y="214"/>
      <point x="1813" y="215" type="curve"/>
      <point x="1814" y="214"/>
      <point x="1814" y="212"/>
      <point x="1815" y="210" type="curve"/>
      <point x="1848" y="74"/>
      <point x="1942" y="-16"/>
      <point x="2113" y="-16" type="curve" smooth="yes"/>
      <point x="2349" y="-16"/>
      <point x="2428" y="145"/>
      <point x="2428" y="359" type="curve" smooth="yes"/>
      <point x="2428" y="571"/>
      <point x="2341" y="727"/>
      <point x="2113" y="727" type="curve" smooth="yes"/>
      <point x="1936" y="727"/>
      <point x="1845" y="640"/>
      <point x="1813" y="506" type="curve"/>
      <point x="1813" y="504"/>
      <point x="1813" y="502"/>
      <point x="1812" y="501" type="curve"/>
      <point x="1812" y="502"/>
      <point x="1812" y="504"/>
      <point x="1811" y="506" type="curve"/>
      <point x="1777" y="639"/>
      <point x="1682" y="727"/>
      <point x="1513" y="727" type="curve" smooth="yes"/>
      <point x="1336" y="727"/>
      <point x="1245" y="640"/>
      <point x="1213" y="506" type="curve"/>
      <point x="1213" y="504"/>
      <point x="1213" y="502"/>
      <point x="1212" y="501" type="curve"/>
      <point x="1212" y="502"/>
      <point x="1212" y="504"/>
      <point x="1211" y="506" type="curve"/>
      <point x="1177" y="639"/>
      <point x="1082" y="727"/>
      <point x="913" y="727" type="curve" smooth="yes"/>
      <point x="861" y="727"/>
      <point x="816" y="720"/>
      <point x="779" y="706" type="curve"/>
      <point x="1125" y="1473" type="line"/>
      <point x="821" y="1473" type="line"/>
      <point x="683" y="1168" type="line"/>
      <point x="681" y="1203"/>
      <point x="676" y="1236"/>
      <point x="668" y="1268" type="curve" smooth="yes"/>
      <point x="633" y="1400"/>
      <point x="540" y="1489"/>
      <point x="370" y="1489" type="curve" smooth="yes"/>
      <point x="133" y="1489"/>
      <point x="54" y="1332"/>
      <point x="54" y="1121" type="curve" smooth="yes"/>
      <point x="54" y="907"/>
      <point x="141" y="746"/>
      <point x="370" y="746" type="curve" smooth="yes"/>
      <point x="421" y="746"/>
      <point x="466" y="753"/>
      <point x="503" y="768" type="curve"/>
      <point x="157" y="0" type="line" name=".hr01"/>
      <point x="461" y="0" type="line"/>
      <point x="599" y="306" type="line"/>
      <point x="602" y="273"/>
      <point x="607" y="241"/>
      <point x="615" y="210" type="curve" smooth="yes"/>
      <point x="648" y="74"/>
      <point x="742" y="-16" name=".hr02"/>
      <point x="913" y="-16" type="curve" smooth="yes"/>
      <point x="1088" y="-16"/>
      <point x="1180" y="74"/>
      <point x="1212" y="210" type="curve"/>
      <point x="1213" y="212"/>
      <point x="1213" y="214"/>
      <point x="1213" y="215" type="curve"/>
      <point x="1214" y="214"/>
      <point x="1214" y="212"/>
      <point x="1215" y="210" type="curve"/>
      <point x="1248" y="74"/>
      <point x="1342" y="-16"/>
    </contour>
    <contour>
      <point x="423" y="1068" type="line" smooth="yes"/>
      <point x="423" y="1008"/>
      <point x="419" y="956"/>
      <point x="375" y="956" type="curve" smooth="yes"/>
      <point x="323" y="956"/>
      <point x="319" y="1016"/>
      <point x="319" y="1084" type="curve" smooth="yes"/>
      <point x="319" y="1178" type="line" smooth="yes"/>
      <point x="319" y="1239"/>
      <point x="321" y="1291"/>
      <point x="367" y="1291" type="curve" smooth="yes"/>
      <point x="419" y="1291"/>
      <point x="423" y="1232"/>
      <point x="423" y="1165" type="curve" smooth="yes"/>
    </contour>
    <contour>
      <point x="1566" y="306" type="line" smooth="yes"/>
      <point x="1566" y="246"/>
      <point x="1562" y="194"/>
      <point x="1520" y="194" type="curve" smooth="yes"/>
      <point x="1467" y="194"/>
      <point x="1462" y="254"/>
      <point x="1462" y="323" type="curve" smooth="yes"/>
      <point x="1462" y="417" type="line" smooth="yes"/>
      <point x="1462" y="477"/>
      <point x="1466" y="529"/>
      <point x="1510" y="529" type="curve" smooth="yes"/>
      <point x="1562" y="529"/>
      <point x="1566" y="471"/>
      <point x="1566" y="404" type="curve" smooth="yes"/>
    </contour>
    <contour>
      <point x="2166" y="306" type="line" smooth="yes"/>
      <point x="2166" y="246"/>
      <point x="2162" y="194"/>
      <point x="2120" y="194" type="curve" smooth="yes"/>
      <point x="2067" y="194"/>
      <point x="2062" y="254"/>
      <point x="2062" y="323" type="curve" smooth="yes"/>
      <point x="2062" y="417" type="line" smooth="yes"/>
      <point x="2062" y="477"/>
      <point x="2066" y="529"/>
      <point x="2110" y="529" type="curve" smooth="yes"/>
      <point x="2162" y="529"/>
      <point x="2166" y="471"/>
      <point x="2166" y="404" type="curve" smooth="yes"/>
    </contour>
    <contour>
      <point x="966" y="306" type="line" smooth="yes"/>
      <point x="966" y="246" name=".hr03"/>
      <point x="962" y="194"/>
      <point x="920" y="194" type="curve" smooth="yes"/>
      <point x="867" y="194"/>
      <point x="862" y="254"/>
      <point x="862" y="323" type="curve" smooth="yes"/>
      <point x="862" y="417" type="line" smooth="yes"/>
      <point x="862" y="477"/>
      <point x="866" y="529"/>
      <point x="910" y="529" type="curve" smooth="yes"/>
      <point x="962" y="529"/>
      <point x="966" y="471"/>
      <point x="966" y="404" type="curve" smooth="yes"/>
    </contour>
  </outline>
</glyph>
<glyph name="second" format="2">
  <advance width="1300"/>
  <unicode hex="2033"/>
  <outline>
    <contour>
      <point x="480" y="1500" type="line"/>
      <point x="230" y="1520" type="line"/>
      <point x="230" y="1232" type="line"/>
      <point x="166" y="885" type="line"/>
      <point x="319" y="885" type="line"/>
      <point x="480" y="1230" type="line"/>
    </contour>
    <contour>
      <point x="780" y="1500" type="line"/>
      <point x="530" y="1520" type="line"/>
      <point x="530" y="1232" type="line"/>
      <point x="466" y="885" type="line"/>
      <point x="619" y="885" type="line"/>
      <point x="780" y="1230" type="line"/>
    </contour>
  </outline>
</glyph>
<glyph name="uni2034" format="2">
  <advance width="1300"/>
  <unicode hex="2034"/>
  <outline>
    <contour>
      <point x="480" y="1500" type="line"/>
      <point x="230" y="1520" type="line"/>
      <point x="230" y="1232" type="line"/>
      <point x="166" y="885" type="line"/>
      <point x="319" y="885" type="line"/>
      <point x="480" y="1230" type="line"/>
    </contour>
    <contour>
      <point x="780" y="1500" type="line"/>
      <point x="530" y="1520" type="line"/>
      <point x="530" y="1232" type="line"/>
      <point x="466" y="885" type="line"/>
      <point x="619" y="885" type="line"/>
      <point x="780" y="1230" type="line"/>
    </contour>
    <contour>
      <point x="1080" y="1500" type="line"/>
      <point x="830" y="1520" type="line"/>
      <point x="830" y="1232" type="line"/>
      <point x="766" y="885" type="line"/>
      <point x="919" y="885" type="line"/>
      <point x="1080" y="1230" type="line"/>
    </contour>
  </outline>
</glyph>
<glyph name="uni2070" format="2">
  <advance width="1300"/>
  <unicode hex="2070"/>
  <outline>
    <contour>
      <point x="604" y="712" type="curve" smooth="yes"/>
      <point x="806" y="712"/>
      <point x="884" y="915"/>
      <point x="884" y="1095" type="curve" smooth="yes"/>
      <point x="884" y="1268"/>
      <point x="789" y="1478"/>
      <point x="604" y="1478" type="curve" smooth="yes"/>
      <point x="400" y="1478"/>
      <point x="324" y="1274"/>
      <point x="324" y="1095" type="curve" smooth="yes"/>
      <point x="324" y="919"/>
      <point x="416" y="712"/>
    </contour>
    <contour>
      <point x="488" y="1115" type="curve" smooth="yes"/>
      <point x="488" y="1224"/>
      <point x="515" y="1356"/>
      <point x="600" y="1356" type="curve" smooth="yes"/>
      <point x="695" y="1356"/>
      <point x="720" y="1177"/>
      <point x="720" y="1074" type="curve" smooth="yes"/>
      <point x="720" y="965"/>
      <point x="691" y="833"/>
      <point x="607" y="833" type="curve" smooth="yes"/>
      <point x="512" y="833"/>
      <point x="488" y="1013"/>
    </contour>
  </outline>
</glyph>
<glyph name="uni2071" format="2">
  <advance width="1300"/>
  <unicode hex="2071"/>
  <outline>
    <contour>
      <point x="332" y="1340" type="line"/>
      <point x="501" y="1340" type="line"/>
      <point x="501" y="1470" type="line"/>
      <point x="332" y="1470" type="line"/>
    </contour>
    <contour>
      <point x="337" y="1133" type="line"/>
      <point x="337" y="936" type="line" smooth="yes"/>
      <point x="337" y="814"/>
      <point x="405" y="711"/>
      <point x="559" y="711" type="curve" smooth="yes"/>
      <point x="652" y="711"/>
      <point x="689" y="754"/>
      <point x="707" y="769" type="curve"/>
      <point x="677" y="885" type="line"/>
      <point x="642" y="852"/>
      <point x="612" y="838"/>
      <point x="568" y="838" type="curve" smooth="yes"/>
      <point x="528" y="838"/>
      <point x="500" y="877"/>
      <point x="500" y="931" type="curve" smooth="yes"/>
      <point x="500" y="1270" type="line"/>
      <point x="185" y="1270" type="line"/>
      <point x="199" y="1158" type="line"/>
      <point x="287" y="1158" type="line"/>
      <point x="372" y="1178" type="line"/>
    </contour>
  </outline>
</glyph>
<glyph name="uni2075" format="2">
  <advance width="1300"/>
  <unicode hex="2075"/>
  <outline>
    <contour>
      <point x="342" y="1370" type="line"/>
      <point x="601" y="1370" type="line"/>
      <point x="601" y="1470" type="line"/>
      <point x="168" y="1470" type="line"/>
      <point x="168" y="1099" type="line"/>
      <point x="280" y="1099" type="line"/>
      <point x="300" y="1112"/>
      <point x="336" y="1131"/>
      <point x="387" y="1131" type="curve" smooth="yes"/>
      <point x="444" y="1131"/>
      <point x="483" y="1077"/>
      <point x="483" y="1023" type="curve" smooth="yes"/>
      <point x="483" y="915"/>
      <point x="310" y="837"/>
      <point x="168" y="833" type="curve"/>
      <point x="168" y="720" type="line"/>
      <point x="384" y="720"/>
      <point x="647" y="828"/>
      <point x="647" y="1033" type="curve" smooth="yes"/>
      <point x="647" y="1152"/>
      <point x="555" y="1249"/>
      <point x="400" y="1249" type="curve" smooth="yes"/>
      <point x="377" y="1249"/>
      <point x="358" y="1247"/>
      <point x="342" y="1243" type="curve"/>
    </contour>
  </outline>
</glyph>
<glyph name="uni2079" format="2">
  <advance width="1300"/>
  <unicode hex="2079"/>
  <outline>
    <contour>
      <point x="413" y="1100" type="curve" smooth="yes"/>
      <point x="351" y="1100"/>
      <point x="314" y="1165"/>
      <point x="314" y="1237" type="curve" smooth="yes"/>
      <point x="314" y="1309"/>
      <point x="361" y="1370"/>
      <point x="423" y="1370" type="curve" smooth="yes"/>
      <point x="488" y="1370"/>
      <point x="528" y="1277"/>
      <point x="532" y="1192" type="curve"/>
      <point x="511" y="1147"/>
      <point x="459" y="1100"/>
    </contour>
    <contour>
      <point x="279" y="711" type="line"/>
      <point x="543" y="733"/>
      <point x="696" y="920"/>
      <point x="696" y="1156" type="curve" smooth="yes"/>
      <point x="696" y="1276"/>
      <point x="640" y="1478"/>
      <point x="419" y="1478" type="curve" smooth="yes"/>
      <point x="254" y="1478"/>
      <point x="149" y="1376"/>
      <point x="149" y="1228" type="curve" smooth="yes"/>
      <point x="149" y="1085"/>
      <point x="262" y="992"/>
      <point x="408" y="992" type="curve" smooth="yes"/>
      <point x="420" y="992"/>
      <point x="431" y="992"/>
      <point x="441" y="994" type="curve"/>
      <point x="530" y="1070" type="line"/>
      <point x="528" y="948"/>
      <point x="395" y="823"/>
      <point x="258" y="819" type="curve"/>
    </contour>
  </outline>
</glyph>
<glyph name="uni207C" format="2">
  <advance width="1300"/>
  <unicode hex="207C"/>
  <outline>
    <contour>
      <point x="200" y="1010" type="line"/>
      <point x="600" y="1010" type="line"/>
      <point x="600" y="1120" type="line"/>
      <point x="200" y="1120" type="line"/>
    </contour>
    <contour>
      <point x="200" y="810" type="line"/>
      <point x="600" y="810" type="line"/>
      <point x="600" y="920" type="line"/>
      <point x="200" y="920" type="line"/>
    </contour>
  </outline>
</glyph>
<glyph name="uni207D" format="2">
  <advance width="1300"/>
  <unicode hex="207D"/>
  <outline>
    <contour>
      <point x="189" y="736" type="line" smooth="yes"/>
      <point x="189" y="611"/>
      <point x="207" y="507"/>
      <point x="359" y="507" type="curve" smooth="yes"/>
      <point x="394" y="507"/>
      <point x="437" y="517"/>
      <point x="465" y="534" type="curve"/>
      <point x="416" y="594" type="line"/>
      <point x="396" y="594"/>
      <point x="350" y="596"/>
      <point x="350" y="694" type="curve" smooth="yes"/>
      <point x="350" y="1330" type="line" smooth="yes"/>
      <point x="350" y="1426"/>
      <point x="396" y="1432"/>
      <point x="420" y="1432" type="curve"/>
      <point x="465" y="1489" type="line"/>
      <point x="439" y="1507"/>
      <point x="392" y="1517"/>
      <point x="359" y="1517" type="curve" smooth="yes"/>
      <point x="207" y="1517"/>
      <point x="189" y="1420"/>
      <point x="189" y="1296" type="curve" smooth="yes"/>
    </contour>
  </outline>
</glyph>
<glyph name="uni2080" format="2">
  <advance width="1300"/>
  <unicode hex="2080"/>
  <outline>
    <contour>
      <point x="404" y="-518" type="curve" smooth="yes"/>
      <point x="606" y="-518"/>
      <point x="684" y="-315"/>
      <point x="684" y="-135" type="curve" smooth="yes"/>
      <point x="684" y="38"/>
      <point x="589" y="248"/>
      <point x="404" y="248" type="curve" smooth="yes"/>
      <point x="200" y="248"/>
      <point x="124" y="44"/>
      <point x="124" y="-135" type="curve" smooth="yes"/>
      <point x="124" y="-311"/>
      <point x="216" y="-518"/>
    </contour>
    <contour>
      <point x="288" y="-115" type="curve" smooth="yes"/>
      <point x="288" y="-6"/>
      <point x="315" y="126"/>
      <point x="400" y="126" type="curve" smooth="yes"/>
      <point x="495" y="126"/>
      <point x="520" y="-53"/>
      <point x="520" y="-156" type="curve" smooth="yes"/>
      <point x="520" y="-265"/>
      <point x="491" y="-397"/>
      <point x="407" y="-397" type="curve" smooth="yes"/>
      <point x="312" y="-397"/>
      <point x="288" y="-217"/>
    </contour>
  </outline>
</glyph>
<glyph name="uni2084" format="2">
  <advance width="1300"/>
  <unicode hex="2084"/>
  <outline>
    <contour>
      <point x="699" y="-250" type="line"/>
      <point x="599" y="-250" type="line"/>
      <point x="599" y="-100" type="line"/>
      <point x="439" y="-110" type="line"/>
      <point x="439" y="-250" type="line"/>
      <point x="293" y="-250" type="line"/>
      <point x="380" y="-119" type="line"/>
      <point x="546" y="250" type="line"/>
      <point x="405" y="260" type="line"/>
      <point x="159" y="-250" type="line"/>
      <point x="159" y="-350" type="line"/>
      <point x="439" y="-350" type="line"/>
      <point x="439" y="-500" type="line"/>
      <point x="599" y="-500" type="line"/>
      <point x="599" y="-350" type="line"/>
      <point x="688" y="-350" type="line"/>
    </contour>
  </outline>
</glyph>
<glyph name="uni2087" format="2">
  <advance width="1300"/>
  <unicode hex="2087"/>
  <outline>
    <contour>
      <point x="170" y="136" type="line"/>
      <point x="488" y="136" type="line"/>
      <point x="480" y="114"/>
      <point x="459" y="81"/>
      <point x="436" y="43" type="curve" smooth="yes"/>
      <point x="380" y="-48"/>
      <point x="307" y="-172"/>
      <point x="282" y="-291" type="curve" smooth="yes"/>
      <point x="270" y="-346"/>
      <point x="270" y="-458"/>
      <point x="270" y="-500" type="curve"/>
      <point x="438" y="-500" type="line"/>
      <point x="438" y="-449"/>
      <point x="438" y="-375"/>
      <point x="444" y="-327" type="curve" smooth="yes"/>
      <point x="456" y="-227"/>
      <point x="528" y="-106"/>
      <point x="584" y="-12" type="curve"/>
      <point x="632" y="65"/>
      <point x="673" y="134"/>
      <point x="673" y="169" type="curve" smooth="yes"/>
      <point x="673" y="250" type="line"/>
      <point x="170" y="250" type="line"/>
    </contour>
  </outline>
</glyph>
<glyph name="weierstrass" format="2">
  <advance width="1300"/>
  <unicode hex="2118"/>
  <outline>
    <contour>
      <point x="600" y="1117" type="line"/>
      <point x="400" y="1117"/>
      <point x="123" y="951"/>
      <point x="123" y="637" type="curve" smooth="yes"/>
      <point x="123" y="511"/>
      <point x="173" y="422"/>
      <point x="213" y="331" type="curve"/>
      <point x="110" y="185"/>
      <point x="21" y="-45" name=".hr01"/>
      <point x="21" y="-266" type="curve" smooth="yes"/>
      <point x="21" y="-397"/>
      <point x="67" y="-514"/>
      <point x="224" y="-514" type="curve" smooth="yes"/>
      <point x="442" y="-514"/>
      <point x="500" y="-317"/>
      <point x="500" y="-154" type="curve" smooth="yes"/>
      <point x="500" y="20"/>
      <point x="426" y="221"/>
      <point x="346" y="395" type="curve"/>
      <point x="490" y="598"/>
      <point x="645" y="800"/>
      <point x="900" y="800" type="curve" smooth="yes"/>
      <point x="1036" y="800"/>
      <point x="1122" y="693"/>
      <point x="1122" y="546" type="curve" smooth="yes"/>
      <point x="1122" y="357"/>
      <point x="1000" y="97"/>
      <point x="843" y="97" type="curve" smooth="yes"/>
      <point x="737" y="97"/>
      <point x="652" y="175"/>
      <point x="652" y="261" type="curve" smooth="yes"/>
      <point x="652" y="457"/>
      <point x="780" y="520"/>
      <point x="880" y="520" type="curve"/>
      <point x="900" y="600" type="line"/>
      <point x="751" y="600"/>
      <point x="548" y="510"/>
      <point x="548" y="251" type="curve" smooth="yes"/>
      <point x="548" y="82"/>
      <point x="691" y="-17"/>
      <point x="834" y="-17" type="curve" smooth="yes"/>
      <point x="1149" y="-17"/>
      <point x="1261" y="301"/>
      <point x="1277" y="397" type="curve" smooth="yes"/>
      <point x="1285" y="444"/>
      <point x="1289" y="490"/>
      <point x="1289" y="536" type="curve" smooth="yes"/>
      <point x="1289" y="750"/>
      <point x="1198" y="934"/>
      <point x="950" y="934" type="curve" smooth="yes"/>
      <point x="696" y="934"/>
      <point x="472" y="745"/>
      <point x="282" y="448" type="curve"/>
      <point x="282" y="570" type="line"/>
      <point x="275" y="603"/>
      <point x="271" y="634" name=".hr02"/>
      <point x="271" y="662" type="curve" smooth="yes"/>
      <point x="271" y="898"/>
      <point x="456" y="999"/>
      <point x="620" y="1031" type="curve"/>
    </contour>
    <contour>
      <point x="249" y="-358" type="curve" smooth="yes"/>
      <point x="181" y="-358"/>
      <point x="149" y="-315" name=".hr03"/>
      <point x="149" y="-236" type="curve" smooth="yes"/>
      <point x="149" y="-71"/>
      <point x="197" y="143"/>
      <point x="282" y="286" type="curve"/>
      <point x="282" y="200" type="line"/>
      <point x="314" y="115"/>
      <point x="346" y="-63"/>
      <point x="346" y="-161" type="curve" smooth="yes"/>
      <point x="346" y="-253"/>
      <point x="317" y="-358"/>
    </contour>
  </outline>
</glyph>
<glyph name="uni2126" format="2">
  <advance width="1300"/>
  <unicode hex="2126"/>
  <outline>
    <contour>
      <point x="35" y="0" type="line"/>
      <point x="573" y="0" type="line"/>
      <point x="573" y="235" type="line"/>
      <point x="391" y="369"/>
      <point x="406" y="529"/>
      <point x="406" y="807" type="curve" smooth="yes"/>
      <point x="406" y="1058"/>
      <point x="451" y="1279"/>
      <point x="626" y="1279" type="curve" smooth="yes"/>
      <point x="815" y="1279"/>
      <point x="858" y="1027"/>
      <point x="858" y="744" type="curve" smooth="yes"/>
      <point x="858" y="504"/>
      <point x="869" y="361"/>
      <point x="690" y="236" type="curve"/>
      <point x="690" y="0" type="line"/>
      <point x="1227" y="0" type="line"/>
      <point x="1227" y="228" type="line"/>
      <point x="1049" y="228" type="line"/>
      <point x="1064" y="241" type="line"/>
      <point x="1144" y="327"/>
      <point x="1207" y="543"/>
      <point x="1207" y="774" type="curve" smooth="yes"/>
      <point x="1207" y="1214"/>
      <point x="1091" y="1517"/>
      <point x="632" y="1517" type="curve" smooth="yes"/>
      <point x="163" y="1517"/>
      <point x="56" y="1214"/>
      <point x="56" y="774" type="curve" smooth="yes"/>
      <point x="56" y="538"/>
      <point x="116" y="324"/>
      <point x="206" y="237" type="curve"/>
      <point x="216" y="228" type="line"/>
      <point x="35" y="228" type="line"/>
    </contour>
  </outline>
</glyph>
<glyph name="aleph" format="2">
  <advance width="1300"/>
  <unicode hex="2135"/>
  <outline>
    <contour>
      <point x="694" y="1100" type="line"/>
      <point x="675" y="1047"/>
      <point x="666" y="1003"/>
      <point x="666" y="969" type="curve" smooth="yes"/>
      <point x="666" y="909"/>
      <point x="692" y="870"/>
      <point x="752" y="823" type="curve"/>
      <point x="752" y="811" type="line" smooth="yes"/>
      <point x="752" y="755"/>
      <point x="734" y="718"/>
      <point x="629" y="624" type="curve"/>
      <point x="629" y="721" type="line"/>
      <point x="481" y="819"/>
      <point x="320" y="946"/>
      <point x="320" y="1100" type="curve"/>
      <point x="231" y="1100" type="line"/>
      <point x="211" y="1036"/>
      <point x="201" y="984"/>
      <point x="201" y="936" type="curve" smooth="yes"/>
      <point x="201" y="844"/>
      <point x="238" y="771"/>
      <point x="319" y="688" type="curve"/>
      <point x="248" y="619"/>
      <point x="199" y="517" name=".hr01"/>
      <point x="199" y="421" type="curve" smooth="yes"/>
      <point x="199" y="342"/>
      <point x="226" y="280"/>
      <point x="261" y="228" type="curve"/>
      <point x="414" y="140" type="line"/>
      <point x="239" y="140" type="line"/>
      <point x="199" y="0" type="line"/>
      <point x="581" y="0" type="line"/>
      <point x="602" y="35"/>
      <point x="612" y="70"/>
      <point x="612" y="103" type="curve" smooth="yes"/>
      <point x="612" y="271"/>
      <point x="354" y="373"/>
      <point x="354" y="529" type="curve" smooth="yes"/>
      <point x="354" y="557"/>
      <point x="366" y="584"/>
      <point x="443" y="666" type="curve"/>
      <point x="443" y="558" type="line"/>
      <point x="696" y="325"/>
      <point x="957" y="259"/>
      <point x="957" y="0" type="curve"/>
      <point x="1062" y="0" type="line"/>
      <point x="1074" y="28" name=".hr02"/>
      <point x="1093" y="95" name=".hr03"/>
      <point x="1093" y="168" type="curve" smooth="yes"/>
      <point x="1093" y="294"/>
      <point x="1037" y="470"/>
      <point x="778" y="622" type="curve"/>
      <point x="821" y="665"/>
      <point x="848" y="703"/>
      <point x="864" y="759" type="curve"/>
      <point x="919" y="719"/>
      <point x="960" y="670" name=".hr04"/>
      <point x="960" y="568" type="curve"/>
      <point x="1046" y="568" type="line"/>
      <point x="1065" y="619"/>
      <point x="1074" y="665"/>
      <point x="1074" y="707" type="curve" smooth="yes"/>
      <point x="1074" y="944"/>
      <point x="804" y="877"/>
      <point x="788" y="1100" type="curve"/>
    </contour>
  </outline>
</glyph>
<glyph name="uni2158" format="2">
  <advance width="1300"/>
  <unicode hex="2158"/>
  <outline>
    <contour>
      <point x="1170" y="1500" type="line"/>
      <point x="994" y="1500" type="line"/>
      <point x="219" y="0" type="line"/>
      <point x="404" y="0" type="line"/>
    </contour>
    <contour>
      <point x="995" y="650" type="line"/>
      <point x="1254" y="650" type="line"/>
      <point x="1254" y="750" type="line"/>
      <point x="821" y="750" type="line"/>
      <point x="821" y="379" type="line"/>
      <point x="933" y="379" type="line"/>
      <point x="953" y="392"/>
      <point x="989" y="411"/>
      <point x="1040" y="411" type="curve" smooth="yes"/>
      <point x="1097" y="411"/>
      <point x="1136" y="357"/>
      <point x="1136" y="303" type="curve" smooth="yes"/>
      <point x="1136" y="195"/>
      <point x="963" y="117"/>
      <point x="821" y="113" type="curve"/>
      <point x="821" y="0" type="line"/>
      <point x="1037" y="0"/>
      <point x="1300" y="108"/>
      <point x="1300" y="313" type="curve" smooth="yes"/>
      <point x="1300" y="432"/>
      <point x="1208" y="529"/>
      <point x="1053" y="529" type="curve" smooth="yes"/>
      <point x="1030" y="529"/>
      <point x="1011" y="527"/>
      <point x="995" y="523" type="curve"/>
    </contour>
    <contour>
      <point x="649" y="970" type="line"/>
      <point x="549" y="970" type="line"/>
      <point x="549" y="1120" type="line"/>
      <point x="389" y="1110" type="line"/>
      <point x="389" y="970" type="line"/>
      <point x="243" y="970" type="line"/>
      <point x="330" y="1101" type="line"/>
      <point x="496" y="1470" type="line"/>
      <point x="355" y="1480" type="line"/>
      <point x="109" y="970" type="line"/>
      <point x="109" y="870" type="line"/>
      <point x="389" y="870" type="line"/>
      <point x="389" y="720" type="line" name=".hr01"/>
      <point x="549" y="720" type="line"/>
      <point x="549" y="870" type="line"/>
      <point x="638" y="870" type="line"/>
    </contour>
  </outline>
</glyph>
<glyph name="uni215A" format="2">
  <advance width="1300"/>
  <unicode hex="215A"/>
  <outline>
    <contour>
      <point x="1064" y="378" type="curve" smooth="yes"/>
      <point x="1115" y="378"/>
      <point x="1153" y="325"/>
      <point x="1153" y="258" type="curve" smooth="yes"/>
      <point x="1153" y="184"/>
      <point x="1120" y="100"/>
      <point x="1047" y="100" type="curve" smooth="yes"/>
      <point x="998" y="100"/>
      <point x="962" y="154"/>
      <point x="946" y="217" type="curve"/>
      <point x="938" y="244"/>
      <point x="938" y="266"/>
      <point x="938" y="300" type="curve"/>
      <point x="963" y="333"/>
      <point x="1016" y="378"/>
    </contour>
    <contour>
      <point x="1241" y="749" type="line"/>
      <point x="1207" y="758"/>
      <point x="1185" y="758"/>
      <point x="1173" y="758" type="curve" smooth="yes"/>
      <point x="926" y="758"/>
      <point x="769" y="549"/>
      <point x="769" y="313" type="curve" smooth="yes"/>
      <point x="769" y="199"/>
      <point x="830" y="-9"/>
      <point x="1046" y="-9" type="curve" smooth="yes"/>
      <point x="1210" y="-9"/>
      <point x="1322" y="114"/>
      <point x="1322" y="262" type="curve" smooth="yes"/>
      <point x="1322" y="414"/>
      <point x="1200" y="478"/>
      <point x="1071" y="478" type="curve" smooth="yes"/>
      <point x="1055" y="478"/>
      <point x="1038" y="476"/>
      <point x="1020" y="472" type="curve"/>
      <point x="938" y="400" type="line"/>
      <point x="962" y="558"/>
      <point x="1077" y="650"/>
      <point x="1168" y="650" type="curve" smooth="yes"/>
      <point x="1184" y="650"/>
      <point x="1206" y="649"/>
      <point x="1224" y="640" type="curve"/>
    </contour>
    <contour>
      <point x="1024" y="1500" type="line"/>
      <point x="249" y="0" type="line"/>
      <point x="434" y="0" type="line"/>
      <point x="1200" y="1500" type="line"/>
    </contour>
    <contour>
      <point x="571" y="1370" type="line"/>
      <point x="571" y="1470" type="line"/>
      <point x="138" y="1470" type="line"/>
      <point x="138" y="1099" type="line"/>
      <point x="250" y="1099" type="line"/>
      <point x="270" y="1112"/>
      <point x="306" y="1131"/>
      <point x="357" y="1131" type="curve" smooth="yes"/>
      <point x="414" y="1131"/>
      <point x="453" y="1077"/>
      <point x="453" y="1023" type="curve" smooth="yes"/>
      <point x="453" y="915"/>
      <point x="280" y="837"/>
      <point x="138" y="833" type="curve"/>
      <point x="138" y="720" type="line" name=".hr01"/>
      <point x="354" y="720"/>
      <point x="617" y="828"/>
      <point x="617" y="1033" type="curve" smooth="yes"/>
      <point x="617" y="1152"/>
      <point x="525" y="1249"/>
      <point x="370" y="1249" type="curve" smooth="yes"/>
      <point x="347" y="1249"/>
      <point x="328" y="1247"/>
      <point x="312" y="1243" type="curve"/>
      <point x="312" y="1370" type="line"/>
    </contour>
  </outline>
</glyph>
<glyph name="uni215F" format="2">
  <advance width="1300"/>
  <unicode hex="215F"/>
  <outline>
    <contour>
      <point x="1220" y="1500" type="line"/>
      <point x="1044" y="1500" type="line"/>
      <point x="269" y="0" type="line"/>
      <point x="454" y="0" type="line"/>
    </contour>
    <contour>
      <point x="284" y="820" type="line"/>
      <point x="163" y="820" type="line"/>
      <point x="163" y="720" type="line"/>
      <point x="571" y="720" type="line"/>
      <point x="571" y="820" type="line"/>
      <point x="450" y="820" type="line"/>
      <point x="450" y="1470" type="line"/>
      <point x="328" y="1480" type="line"/>
      <point x="88" y="1261" type="line"/>
      <point x="166" y="1169" type="line"/>
      <point x="208" y="1206" type="line"/>
      <point x="321" y="1341" type="line"/>
      <point x="284" y="1160" type="line"/>
    </contour>
  </outline>
</glyph>
<glyph name="uni2168" format="2">
  <advance width="2600"/>
  <unicode hex="2168"/>
  <outline>
    <contour>
      <point x="944" y="228" type="line"/>
      <point x="944" y="1272" type="line"/>
      <point x="1174" y="1272" type="line"/>
      <point x="1446" y="797" type="line"/>
      <point x="1117" y="228" type="line"/>
    </contour>
    <contour>
      <point x="610" y="1272" type="line"/>
      <point x="610" y="228" type="line"/>
      <point x="332" y="228" type="line"/>
      <point x="332" y="0" type="line"/>
      <point x="1328" y="0" type="line"/>
      <point x="1556" y="400" type="line"/>
      <point x="1577" y="583" type="line"/>
      <point x="1889" y="0" type="line"/>
      <point x="2252" y="0" type="line"/>
      <point x="1823" y="800" type="line"/>
      <point x="2223" y="1500" type="line"/>
      <point x="1878" y="1500" type="line"/>
      <point x="1717" y="1199" type="line"/>
      <point x="1686" y="995" type="line"/>
      <point x="1400" y="1500" type="line"/>
      <point x="339" y="1500" type="line"/>
      <point x="304" y="1272" type="line"/>
    </contour>
  </outline>
</glyph>
<glyph name="uni216B" format="2">
  <advance width="2600"/>
  <unicode hex="216B"/>
  <outline>
    <contour>
      <point x="-15" y="0" type="line"/>
      <point x="328" y="0" type="line"/>
      <point x="556" y="400" type="line"/>
      <point x="577" y="583" type="line"/>
      <point x="889" y="0" type="line"/>
      <point x="2460" y="0" type="line"/>
      <point x="2495" y="228" type="line"/>
      <point x="2194" y="228" type="line"/>
      <point x="2194" y="1272" type="line"/>
      <point x="2467" y="1272" type="line"/>
      <point x="2467" y="1500" type="line"/>
      <point x="878" y="1500" type="line"/>
      <point x="717" y="1199" type="line"/>
      <point x="686" y="995" type="line"/>
      <point x="392" y="1520" type="line"/>
      <point x="44" y="1500" type="line"/>
      <point x="281" y="1085"/>
      <point x="415" y="851"/>
      <point x="446" y="797" type="curve"/>
    </contour>
    <contour>
      <point x="1594" y="228" type="line"/>
      <point x="1594" y="1272" type="line"/>
      <point x="1860" y="1272" type="line"/>
      <point x="1860" y="228" type="line"/>
    </contour>
    <contour>
      <point x="1130" y="228" type="line"/>
      <point x="823" y="800" type="line"/>
      <point x="1093" y="1272" type="line"/>
      <point x="1260" y="1272" type="line"/>
      <point x="1260" y="228" type="line"/>
    </contour>
  </outline>
</glyph>
<glyph name="uni2173" format="2">
  <advance width="1300"/>
  <unicode hex="2173"/>
  <outline>
    <contour>
      <point x="290" y="1044" type="line"/>
      <point x="272" y="1100" type="line"/>
      <point x="290" y="1101" type="line"/>
    </contour>
    <contour>
      <point x="290" y="1044" type="line"/>
      <point x="623" y="0" type="line"/>
      <point x="939" y="-17" type="line"/>
      <point x="1312" y="1120" type="line"/>
      <point x="999" y="1100" type="line"/>
      <point x="868" y="700" type="line"/>
      <point x="796" y="300" type="line"/>
      <point x="722" y="700" type="line"/>
      <point x="586" y="1120" type="line"/>
      <point x="290" y="1101" type="line"/>
      <point x="290" y="1120" type="line"/>
      <point x="-10" y="1100" type="line"/>
      <point x="-10" y="0" type="line"/>
      <point x="290" y="0" type="line"/>
    </contour>
  </outline>
</glyph>
<glyph name="arrowdown" format="2">
  <advance width="1300"/>
  <unicode hex="2193"/>
  <outline>
    <contour>
      <point x="500" y="447" type="line"/>
      <point x="512" y="343" type="line"/>
      <point x="437" y="400" type="line"/>
      <point x="200" y="400" type="line"/>
      <point x="500" y="99" type="line"/>
      <point x="600" y="-20" type="line"/>
      <point x="700" y="100" type="line"/>
      <point x="1000" y="400" type="line"/>
      <point x="765" y="400" type="line"/>
      <point x="690" y="343" type="line"/>
      <point x="700" y="447" type="line"/>
      <point x="700" y="1500" type="line"/>
      <point x="500" y="1500" type="line"/>
    </contour>
  </outline>
</glyph>
<glyph name="uni21AA" format="2">
  <advance width="1300"/>
  <unicode hex="21AA"/>
  <outline>
    <contour>
      <point x="753" y="400" type="line"/>
      <point x="857" y="412" type="line"/>
      <point x="800" y="337" type="line"/>
      <point x="800" y="100" type="line"/>
      <point x="1101" y="400" type="line"/>
      <point x="1220" y="500" type="line"/>
      <point x="1100" y="600" type="line"/>
      <point x="800" y="900" type="line"/>
      <point x="800" y="665" type="line"/>
      <point x="857" y="590" type="line"/>
      <point x="753" y="600" type="line"/>
      <point x="300" y="600" type="line" smooth="yes"/>
      <point x="228" y="600"/>
      <point x="170" y="643"/>
      <point x="170" y="700" type="curve" smooth="yes"/>
      <point x="170" y="755"/>
      <point x="228" y="800"/>
      <point x="300" y="800" type="curve"/>
      <point x="300" y="1000" type="line"/>
      <point x="151" y="1000"/>
      <point x="0" y="899"/>
      <point x="0" y="700" type="curve" smooth="yes"/>
      <point x="0" y="499"/>
      <point x="151" y="400"/>
      <point x="300" y="400" type="curve" smooth="yes"/>
    </contour>
  </outline>
</glyph>
<glyph name="uni21B6" format="2">
  <advance width="1300"/>
  <unicode hex="21B6"/>
  <outline>
    <contour>
      <point x="306" y="381" type="line"/>
      <point x="387" y="446" type="line" smooth="yes"/>
      <point x="566" y="590"/>
      <point x="664" y="751"/>
      <point x="853" y="751" type="curve" smooth="yes"/>
      <point x="1025" y="751"/>
      <point x="1100" y="660"/>
      <point x="1100" y="500" type="curve"/>
      <point x="1300" y="500" type="line"/>
      <point x="1295" y="816"/>
      <point x="1100" y="951"/>
      <point x="840" y="951" type="curve" smooth="yes"/>
      <point x="599" y="951"/>
      <point x="471" y="822"/>
      <point x="287" y="630" type="curve" smooth="yes"/>
      <point x="246" y="587" type="line"/>
      <point x="179" y="508" type="line"/>
      <point x="168" y="601" type="line"/>
      <point x="0" y="766" type="line"/>
      <point x="0" y="362" type="line"/>
      <point x="-20" y="180" type="line"/>
      <point x="162" y="200" type="line"/>
      <point x="566" y="200" type="line"/>
      <point x="400" y="369" type="line"/>
    </contour>
  </outline>
</glyph>
<glyph name="uni21B7" format="2">
  <advance width="1300"/>
  <unicode hex="21B7"/>
  <outline>
    <contour>
      <point x="900" y="369" type="line"/>
      <point x="734" y="200" type="line"/>
      <point x="1138" y="200" type="line"/>
      <point x="1320" y="180" type="line"/>
      <point x="1300" y="362" type="line"/>
      <point x="1300" y="766" type="line"/>
      <point x="1132" y="601" type="line"/>
      <point x="1121" y="508" type="line"/>
      <point x="1054" y="587" type="line"/>
      <point x="1013" y="630" type="line" smooth="yes"/>
      <point x="829" y="822"/>
      <point x="701" y="951"/>
      <point x="460" y="951" type="curve" smooth="yes"/>
      <point x="200" y="951"/>
      <point x="5" y="816"/>
      <point x="0" y="500" type="curve"/>
      <point x="200" y="500" type="line"/>
      <point x="200" y="660"/>
      <point x="275" y="751"/>
      <point x="447" y="751" type="curve" smooth="yes"/>
      <point x="636" y="751"/>
      <point x="734" y="590"/>
      <point x="913" y="446" type="curve" smooth="yes"/>
      <point x="994" y="381" type="line"/>
    </contour>
  </outline>
</glyph>
<glyph name="arrowdblup" format="2">
  <advance width="1300"/>
  <unicode hex="21D1"/>
  <outline>
    <contour>
      <point x="600" y="1500" type="line"/>
      <point x="509" y="1393" type="line"/>
      <point x="143" y="1027" type="line"/>
      <point x="143" y="857" type="line"/>
      <point x="388" y="1102" type="line"/>
      <point x="400" y="1002" type="line"/>
      <point x="400" y="0" type="line"/>
      <point x="516" y="0" type="line"/>
      <point x="516" y="852" type="line"/>
      <point x="488" y="1202" type="line"/>
      <point x="600" y="1333" type="line"/>
      <point x="712" y="1202" type="line"/>
      <point x="684" y="852" type="line"/>
      <point x="684" y="0" type="line"/>
      <point x="800" y="0" type="line"/>
      <point x="800" y="1002" type="line"/>
      <point x="813" y="1102" type="line"/>
      <point x="1057" y="857" type="line"/>
      <point x="1057" y="1027" type="line"/>
      <point x="691" y="1393" type="line"/>
    </contour>
  </outline>
</glyph>
<glyph name="uni21D5" format="2">
  <advance width="1300"/>
  <unicode hex="21D5"/>
  <outline>
    <contour>
      <point x="600" y="1333" type="line"/>
      <point x="712" y="1202" type="line"/>
      <point x="684" y="852" type="line"/>
      <point x="684" y="648" type="line"/>
      <point x="712" y="298" type="line"/>
      <point x="600" y="167" type="line"/>
      <point x="488" y="298" type="line"/>
      <point x="516" y="648" type="line"/>
      <point x="516" y="852" type="line"/>
      <point x="488" y="1202" type="line"/>
    </contour>
    <contour>
      <point x="1057" y="473" type="line"/>
      <point x="1057" y="643" type="line"/>
      <point x="813" y="398" type="line"/>
      <point x="800" y="498" type="line"/>
      <point x="800" y="1002" type="line"/>
      <point x="813" y="1102" type="line"/>
      <point x="1057" y="857" type="line"/>
      <point x="1057" y="1027" type="line"/>
      <point x="691" y="1393" type="line"/>
      <point x="600" y="1500" type="line"/>
      <point x="509" y="1393" type="line"/>
      <point x="143" y="1027" type="line"/>
      <point x="143" y="857" type="line"/>
      <point x="388" y="1102" type="line"/>
      <point x="400" y="1002" type="line"/>
      <point x="400" y="498" type="line"/>
      <point x="388" y="398" type="line"/>
      <point x="143" y="643" type="line"/>
      <point x="143" y="473" type="line"/>
      <point x="509" y="107" type="line"/>
      <point x="600" y="0" type="line"/>
      <point x="691" y="107" type="line"/>
    </contour>
  </outline>
</glyph>
<glyph name="uni21DF" format="2">
  <advance width="1300"/>
  <unicode hex="21DF"/>
  <outline>
    <contour>
      <point x="300" y="1000" type="line"/>
      <point x="500" y="1000" type="line"/>
      <point x="500" y="840" type="line"/>
      <point x="300" y="840" type="line"/>
      <point x="300" y="700" type="line"/>
      <point x="500" y="700" type="line"/>
      <point x="500" y="447" type="line"/>
      <point x="512" y="343" type="line"/>
      <point x="437" y="400" type="line"/>
      <point x="200" y="400" type="line"/>
      <point x="500" y="99" type="line"/>
      <point x="600" y="-20" type="line"/>
      <point x="700" y="100" type="line"/>
      <point x="1000" y="400" type="line"/>
      <point x="765" y="400" type="line"/>
      <point x="690" y="343" type="line"/>
      <point x="700" y="447" type="line"/>
      <point x="700" y="700" type="line"/>
      <point x="900" y="700" type="line"/>
      <point x="900" y="840" type="line"/>
      <point x="700" y="840" type="line"/>
      <point x="700" y="1000" type="line"/>
      <point x="900" y="1000" type="line"/>
      <point x="900" y="1140" type="line"/>
      <point x="700" y="1140" type="line"/>
      <point x="700" y="1500" type="line"/>
      <point x="500" y="1500" type="line"/>
      <point x="500" y="1140" type="line"/>
      <point x="300" y="1140" type="line"/>
    </contour>
  </outline>
</glyph>
<glyph name="uni21E3" format="2">
  <advance width="1300"/>
  <unicode hex="21E3"/>
  <outline>
    <contour>
      <point x="500" y="447" type="line"/>
      <point x="512" y="343" type="line"/>
      <point x="437" y="400" type="line"/>
      <point x="200" y="400" type="line"/>
      <point x="500" y="99" type="line"/>
      <point x="600" y="-20" type="line"/>
      <point x="700" y="100" type="line"/>
      <point x="1000" y="400" type="line"/>
      <point x="765" y="400" type="line"/>
      <point x="690" y="343" type="line"/>
      <point x="700" y="447" type="line"/>
      <point x="700" y="550" type="line"/>
      <point x="500" y="550" type="line"/>
    </contour>
    <contour>
      <point x="700" y="700" type="line"/>
      <point x="700" y="950" type="line"/>
      <point x="500" y="950" type="line"/>
      <point x="500" y="700" type="line"/>
    </contour>
    <contour>
      <point x="700" y="1100" type="line"/>
      <point x="700" y="1350" type="line"/>
      <point x="500" y="1350" type="line"/>
      <point x="500" y="1100" type="line"/>
    </contour>
  </outline>
</glyph>
<glyph name="uni2204" format="2">
  <advance width="1300"/>
  <unicode hex="2204"/>
  <outline>
    <contour>
      <point x="900" y="650" type="line"/>
      <point x="900" y="350" type="line"/>
      <point x="915" y="160" type="line"/>
      <point x="447" y="160" type="line"/>
      <point x="620" y="650" type="line"/>
    </contour>
    <contour>
      <point x="920" y="1150" type="line"/>
      <point x="900" y="950" type="line"/>
      <point x="900" y="800" type="line"/>
      <point x="673" y="800" type="line"/>
      <point x="796" y="1150" type="line"/>
    </contour>
    <contour>
      <point x="75" y="0" type="line"/>
      <point x="237" y="0" type="line"/>
      <point x="165" y="-200" type="line"/>
      <point x="320" y="-200" type="line"/>
      <point x="391" y="0" type="line"/>
      <point x="1087" y="0" type="line"/>
      <point x="1070" y="200" type="line"/>
      <point x="1070" y="1100" type="line"/>
      <point x="1092" y="1300" type="line"/>
      <point x="849" y="1300" type="line"/>
      <point x="920" y="1500" type="line"/>
      <point x="774" y="1500" type="line"/>
      <point x="702" y="1300" type="line"/>
      <point x="75" y="1300" type="line"/>
      <point x="75" y="1150" type="line"/>
      <point x="649" y="1150" type="line"/>
      <point x="523" y="800" type="line"/>
      <point x="130" y="800" type="line"/>
      <point x="148" y="650" type="line"/>
      <point x="470" y="650" type="line"/>
      <point x="294" y="160" type="line"/>
      <point x="75" y="160" type="line"/>
    </contour>
  </outline>
</glyph>
<glyph name="emptyset" format="2">
  <advance width="1300"/>
  <unicode hex="2205"/>
  <outline>
    <contour>
      <point x="600" y="-17" type="curve" smooth="yes"/>
      <point x="976" y="-17"/>
      <point x="1190" y="266"/>
      <point x="1190" y="650" type="curve" smooth="yes"/>
      <point x="1190" y="842"/>
      <point x="1134" y="1008"/>
      <point x="1033" y="1128" type="curve" smooth="yes"/>
      <point x="991" y="1177"/>
      <point x="942" y="1216"/>
      <point x="886" y="1247" type="curve"/>
      <point x="975" y="1500" type="line"/>
      <point x="829" y="1500" type="line"/>
      <point x="757" y="1299" type="line"/>
      <point x="708" y="1311"/>
      <point x="656" y="1317"/>
      <point x="600" y="1317" type="curve" smooth="yes"/>
      <point x="224" y="1317"/>
      <point x="10" y="1034"/>
      <point x="10" y="650" type="curve" smooth="yes"/>
      <point x="10" y="458"/>
      <point x="65" y="292"/>
      <point x="168" y="173" type="curve" smooth="yes"/>
      <point x="209" y="125"/>
      <point x="256" y="85"/>
      <point x="311" y="54" type="curve"/>
      <point x="220" y="-200" type="line"/>
      <point x="375" y="-200" type="line"/>
      <point x="446" y="1" type="line" name=".hr01"/>
      <point x="494" y="-11"/>
      <point x="545" y="-17" name=".hr02"/>
    </contour>
    <contour>
      <point x="367" y="210" type="line"/>
      <point x="336" y="235"/>
      <point x="309" y="265"/>
      <point x="287" y="300" type="curve"/>
      <point x="220" y="401"/>
      <point x="192" y="539"/>
      <point x="192" y="680" type="curve" smooth="yes"/>
      <point x="192" y="931"/>
      <point x="308" y="1169"/>
      <point x="595" y="1169" type="curve" smooth="yes"/>
      <point x="635" y="1169"/>
      <point x="672" y="1165"/>
      <point x="706" y="1156" type="curve"/>
    </contour>
    <contour>
      <point x="1008" y="623" type="curve" smooth="yes"/>
      <point x="1008" y="375"/>
      <point x="889" y="131"/>
      <point x="605" y="131" type="curve" smooth="yes"/>
      <point x="566" y="131"/>
      <point x="529" y="135"/>
      <point x="496" y="144" type="curve"/>
      <point x="831" y="1092" type="line"/>
      <point x="864" y="1067"/>
      <point x="891" y="1036"/>
      <point x="914" y="1001" type="curve" smooth="yes"/>
      <point x="979" y="898"/>
      <point x="1008" y="763"/>
    </contour>
  </outline>
</glyph>
<glyph name="gradient" format="2">
  <advance width="1300"/>
  <unicode hex="2207"/>
  <outline>
    <contour>
      <point x="1062" y="1392" type="line" name=".hr02"/>
      <point x="977" y="1300" type="line"/>
      <point x="666" y="242" type="line"/>
      <point x="636" y="75" type="line"/>
      <point x="606" y="242" type="line"/>
      <point x="295" y="1300" type="line"/>
      <point x="213" y="1392" type="line"/>
      <point x="336" y="1340" type="line" name=".hr01"/>
      <point x="936" y="1340" type="line"/>
    </contour>
    <contour>
      <point x="748" y="0" type="line"/>
      <point x="1221" y="1500" type="line"/>
      <point x="49" y="1500" type="line"/>
      <point x="521" y="0" type="line"/>
    </contour>
  </outline>
</glyph>
<glyph name="element" format="2">
  <advance width="1300"/>
  <unicode hex="2208"/>
  <outline>
    <contour>
      <point x="1200" y="153" type="line"/>
      <point x="847" y="153" type="line" smooth="yes"/>
      <point x="583" y="153"/>
      <point x="399" y="239"/>
      <point x="319" y="428" type="curve" smooth="yes"/>
      <point x="300" y="472"/>
      <point x="289" y="521"/>
      <point x="284" y="575" type="curve"/>
      <point x="1200" y="575" type="line"/>
      <point x="1200" y="725" type="line"/>
      <point x="284" y="725" type="line"/>
      <point x="289" y="778"/>
      <point x="300" y="827"/>
      <point x="319" y="871" type="curve" smooth="yes"/>
      <point x="399" y="1060"/>
      <point x="583" y="1146"/>
      <point x="847" y="1146" type="curve" smooth="yes"/>
      <point x="1200" y="1146" type="line"/>
      <point x="1220" y="1300" type="line"/>
      <point x="843" y="1300" type="line" smooth="yes"/>
      <point x="387" y="1300"/>
      <point x="100" y="1083"/>
      <point x="100" y="650" type="curve" smooth="yes"/>
      <point x="100" y="217"/>
      <point x="387" y="0"/>
      <point x="843" y="0" type="curve" smooth="yes"/>
      <point x="1220" y="0" type="line"/>
    </contour>
  </outline>
</glyph>
<glyph name="notelement" format="2">
  <advance width="1300"/>
  <unicode hex="2209"/>
  <outline>
    <contour>
      <point x="1120" y="1500" type="line"/>
      <point x="974" y="1500" type="line"/>
      <point x="902" y="1300" type="line"/>
      <point x="843" y="1300" type="line" smooth="yes"/>
      <point x="387" y="1300"/>
      <point x="100" y="1083"/>
      <point x="100" y="650" type="curve" smooth="yes"/>
      <point x="100" y="434"/>
      <point x="172" y="271"/>
      <point x="301" y="163" type="curve" smooth="yes"/>
      <point x="347" y="124"/>
      <point x="400" y="91"/>
      <point x="460" y="66" type="curve"/>
      <point x="365" y="-200" type="line"/>
      <point x="520" y="-200" type="line"/>
      <point x="599" y="24" type="line"/>
      <point x="674" y="8"/>
      <point x="755" y="0"/>
      <point x="843" y="0" type="curve" smooth="yes"/>
      <point x="1220" y="0" type="line"/>
      <point x="1200" y="153" type="line"/>
      <point x="847" y="153" type="line" smooth="yes"/>
      <point x="776" y="153"/>
      <point x="710" y="159"/>
      <point x="651" y="172" type="curve"/>
      <point x="794" y="575" type="line"/>
      <point x="1200" y="575" type="line"/>
      <point x="1200" y="725" type="line"/>
      <point x="846" y="725" type="line"/>
      <point x="995" y="1146" type="line"/>
      <point x="1200" y="1146" type="line"/>
      <point x="1220" y="1300" type="line"/>
      <point x="1049" y="1300" type="line"/>
    </contour>
    <contour>
      <point x="284" y="725" type="line"/>
      <point x="289" y="778"/>
      <point x="300" y="827"/>
      <point x="319" y="871" type="curve" smooth="yes"/>
      <point x="399" y="1060"/>
      <point x="583" y="1146"/>
      <point x="847" y="1146" type="curve"/>
      <point x="696" y="725" type="line"/>
    </contour>
    <contour>
      <point x="515" y="219" type="line"/>
      <point x="514" y="220" type="line"/>
      <point x="424" y="264"/>
      <point x="359" y="333"/>
      <point x="319" y="428" type="curve" smooth="yes"/>
      <point x="300" y="472"/>
      <point x="289" y="521"/>
      <point x="284" y="575" type="curve"/>
      <point x="643" y="575" type="line"/>
    </contour>
  </outline>
</glyph>
<glyph name="union" format="2">
  <advance width="1300"/>
  <unicode hex="222A"/>
  <outline>
    <contour>
      <point x="649" y="143" type="curve" smooth="yes"/>
      <point x="298" y="143"/>
      <point x="279" y="453"/>
      <point x="279" y="710" type="curve" smooth="yes"/>
      <point x="279" y="1300" type="line"/>
      <point x="100" y="1280" type="line"/>
      <point x="100" y="745" type="line" smooth="yes"/>
      <point x="100" y="289"/>
      <point x="186" y="-17"/>
      <point x="649" y="-17" type="curve" smooth="yes"/>
      <point x="1112" y="-17"/>
      <point x="1199" y="289"/>
      <point x="1199" y="745" type="curve" smooth="yes"/>
      <point x="1199" y="1300" type="line"/>
      <point x="1020" y="1280" type="line"/>
      <point x="1020" y="710" type="line" smooth="yes"/>
      <point x="1020" y="453"/>
      <point x="1001" y="143"/>
    </contour>
  </outline>
</glyph>
<glyph name="approxequal" format="2">
  <advance width="1300"/>
  <unicode hex="2248"/>
  <outline>
    <contour>
      <point x="1100" y="817" type="line"/>
      <point x="1040" y="765"/>
      <point x="960" y="734"/>
      <point x="880" y="734" type="curve" smooth="yes"/>
      <point x="754" y="734"/>
      <point x="666" y="886" name=".hr01"/>
      <point x="540" y="886" type="curve" smooth="yes"/>
      <point x="445" y="886"/>
      <point x="370" y="825"/>
      <point x="300" y="747" type="curve"/>
      <point x="300" y="571" type="line"/>
      <point x="359" y="624"/>
      <point x="441" y="676"/>
      <point x="520" y="676" type="curve" smooth="yes"/>
      <point x="624" y="676"/>
      <point x="734" y="525" name=".hr02"/>
      <point x="860" y="525" type="curve" smooth="yes"/>
      <point x="956" y="525"/>
      <point x="1029" y="565"/>
      <point x="1100" y="645" type="curve"/>
    </contour>
    <contour>
      <point x="1100" y="429" type="line"/>
      <point x="1040" y="377"/>
      <point x="960" y="346"/>
      <point x="880" y="346" type="curve" smooth="yes"/>
      <point x="754" y="346"/>
      <point x="666" y="498" name=".hr03"/>
      <point x="540" y="498" type="curve" smooth="yes"/>
      <point x="445" y="498"/>
      <point x="370" y="437"/>
      <point x="300" y="359" type="curve"/>
      <point x="300" y="183" type="line"/>
      <point x="359" y="236"/>
      <point x="441" y="288"/>
      <point x="520" y="288" type="curve" smooth="yes"/>
      <point x="624" y="288"/>
      <point x="734" y="137" name=".hr04"/>
      <point x="860" y="137" type="curve" smooth="yes"/>
      <point x="956" y="137"/>
      <point x="1029" y="177"/>
      <point x="1100" y="257" type="curve"/>
    </contour>
  </outline>
</glyph>
<glyph name="equivalence" format="2">
  <advance width="1300"/>
  <unicode hex="2261"/>
  <outline>
    <contour>
      <point x="200" y="116" type="line"/>
      <point x="1000" y="116" type="line"/>
      <point x="1000" y="300" type="line"/>
      <point x="200" y="300" type="line"/>
    </contour>
    <contour>
      <point x="200" y="416" type="line"/>
      <point x="1000" y="416" type="line"/>
      <point x="1000" y="600" type="line"/>
      <point x="200" y="600" type="line"/>
    </contour>
    <contour>
      <point x="200" y="716" type="line"/>
      <point x="1000" y="716" type="line"/>
      <point x="1000" y="900" type="line"/>
      <point x="200" y="900" type="line"/>
    </contour>
  </outline>
</glyph>
<glyph name="reflexsuperset" format="2">
  <advance width="1300"/>
  <unicode hex="2287"/>
  <outline>
    <contour>
      <point x="80" y="300" type="line"/>
      <point x="457" y="300" type="line" smooth="yes"/>
      <point x="686" y="300"/>
      <point x="870" y="354"/>
      <point x="999" y="462" type="curve" smooth="yes"/>
      <point x="1063" y="516"/>
      <point x="1113" y="584"/>
      <point x="1148" y="666" type="curve" smooth="yes"/>
      <point x="1183" y="746"/>
      <point x="1200" y="824"/>
      <point x="1200" y="900" type="curve" smooth="yes"/>
      <point x="1200" y="976"/>
      <point x="1183" y="1054"/>
      <point x="1148" y="1134" type="curve" smooth="yes"/>
      <point x="1113" y="1217"/>
      <point x="1063" y="1284"/>
      <point x="999" y="1337" type="curve" smooth="yes"/>
      <point x="870" y="1446"/>
      <point x="686" y="1500"/>
      <point x="457" y="1500" type="curve" smooth="yes"/>
      <point x="80" y="1500" type="line"/>
      <point x="100" y="1346" type="line"/>
      <point x="453" y="1346" type="line" smooth="yes"/>
      <point x="717" y="1346"/>
      <point x="901" y="1260"/>
      <point x="981" y="1071" type="curve" smooth="yes"/>
      <point x="999" y="1028"/>
      <point x="1008" y="970"/>
      <point x="1008" y="899" type="curve" smooth="yes"/>
      <point x="1008" y="828"/>
      <point x="999" y="771"/>
      <point x="981" y="728" type="curve" smooth="yes"/>
      <point x="901" y="539"/>
      <point x="717" y="453"/>
      <point x="453" y="453" type="curve" smooth="yes"/>
      <point x="100" y="453" type="line"/>
    </contour>
    <contour>
      <point x="1100" y="155" type="line"/>
      <point x="100" y="155" type="line"/>
      <point x="80" y="1" type="line"/>
      <point x="1100" y="1" type="line"/>
    </contour>
  </outline>
</glyph>
<glyph name="uni22EE" format="2">
  <advance width="1300"/>
  <unicode hex="22EE"/>
  <outline>
    <contour>
      <point x="3" y="1383" type="curve" smooth="yes"/>
      <point x="3" y="1274"/>
      <point x="92" y="1183"/>
      <point x="202" y="1183" type="curve" smooth="yes"/>
      <point x="310" y="1183"/>
      <point x="398" y="1274"/>
      <point x="398" y="1383" type="curve" smooth="yes"/>
      <point x="398" y="1492"/>
      <point x="309" y="1581"/>
      <point x="200" y="1581" type="curve" smooth="yes"/>
      <point x="92" y="1581"/>
      <point x="3" y="1492"/>
    </contour>
    <contour>
      <point x="3" y="783" type="curve" smooth="yes"/>
      <point x="3" y="674"/>
      <point x="92" y="583"/>
      <point x="202" y="583" type="curve" smooth="yes"/>
      <point x="310" y="583"/>
      <point x="398" y="674"/>
      <point x="398" y="783" type="curve" smooth="yes"/>
      <point x="398" y="892"/>
      <point x="309" y="981"/>
      <point x="200" y="981" type="curve" smooth="yes"/>
      <point x="92" y="981"/>
      <point x="3" y="892"/>
    </contour>
    <contour>
      <point x="3" y="183" type="curve" smooth="yes"/>
      <point x="3" y="74"/>
      <point x="92" y="-17"/>
      <point x="202" y="-17" type="curve" smooth="yes"/>
      <point x="310" y="-17"/>
      <point x="398" y="74"/>
      <point x="398" y="183" type="curve" smooth="yes"/>
      <point x="398" y="292"/>
      <point x="309" y="381"/>
      <point x="200" y="381" type="curve" smooth="yes"/>
      <point x="92" y="381"/>
      <point x="3" y="292"/>
    </contour>
  </outline>
</glyph>
<glyph name="house" format="2">
  <advance width="1300"/>
  <unicode hex="2302"/>
  <outline>
    <contour>
      <point x="400" y="500" type="line"/>
      <point x="500" y="500" type="line"/>
      <point x="500" y="100" type="line"/>
      <point x="400" y="100" type="line"/>
    </contour>
    <contour>
      <point x="600" y="100" type="line"/>
      <point x="600" y="600" type="line"/>
      <point x="300" y="600" type="line"/>
      <point x="300" y="100" type="line"/>
      <point x="200" y="100" type="line"/>
      <point x="200" y="815" type="line"/>
      <point x="650" y="1000" type="line"/>
      <point x="1100" y="765" type="line"/>
      <point x="1100" y="100" type="line"/>
    </contour>
    <contour>
      <point x="900" y="500" type="line"/>
      <point x="900" y="400" type="line"/>
      <point x="800" y="400" type="line"/>
      <point x="800" y="500" type="line"/>
    </contour>
    <contour>
      <point x="1300" y="885" type="line"/>
      <point x="671" y="1200" type="line"/>
      <point x="650" y="1216" type="line"/>
      <point x="629" y="1200" type="line"/>
      <point x="300" y="1041" type="line"/>
      <point x="300" y="1200" type="line"/>
      <point x="100" y="1200" type="line"/>
      <point x="100" y="935" type="line"/>
      <point x="0" y="885" type="line"/>
      <point x="0" y="700" type="line"/>
      <point x="51" y="700" type="line"/>
      <point x="100" y="800" type="line"/>
      <point x="100" y="0" type="line"/>
      <point x="1200" y="0" type="line"/>
      <point x="1200" y="800" type="line"/>
      <point x="1250" y="700" type="line"/>
      <point x="1300" y="700" type="line"/>
    </contour>
    <contour>
      <point x="1000" y="300" type="line"/>
      <point x="1000" y="600" type="line"/>
      <point x="700" y="600" type="line"/>
      <point x="700" y="300" type="line"/>
    </contour>
  </outline>
</glyph>
<glyph name="POWERON-OFFSYMBOL" format="2">
  <advance width="1300"/>
  <unicode hex="23FC"/>
  <outline>
    <contour>
      <point x="767" y="334.5" type="line" smooth="yes"/>
      <point x="767" y="247.5"/>
      <point x="838" y="176.5"/>
      <point x="926" y="176.5" type="curve" smooth="yes"/>
      <point x="1014" y="176.5"/>
      <point x="1084" y="246.5"/>
      <point x="1084" y="334.5" type="curve" smooth="yes"/>
      <point x="1084" y="915.5" type="line" smooth="yes"/>
      <point x="1084" y="1003.5"/>
      <point x="1014" y="1073.5"/>
      <point x="926" y="1073.5" type="curve" smooth="yes"/>
      <point x="838" y="1073.5"/>
      <point x="767" y="1003.5"/>
      <point x="767" y="915.5" type="curve" smooth="yes"/>
    </contour>
    <contour>
      <point x="0" y="627.5" type="curve" smooth="yes"/>
      <point x="0" y="116.5"/>
      <point x="414" y="-297.5"/>
      <point x="926" y="-298.5" type="curve"/>
      <point x="1438" y="-298.5"/>
      <point x="1851" y="116.5"/>
      <point x="1851" y="627.5" type="curve" smooth="yes"/>
      <point x="1851" y="1139.5"/>
      <point x="1437" y="1552.5"/>
      <point x="926" y="1552.5" type="curve"/>
      <point x="926" y="1394.5" type="line"/>
      <point x="926" y="1236.5" type="line"/>
      <point x="1094" y="1236.5"/>
      <point x="1245" y="1168.5"/>
      <point x="1356" y="1057.5" type="curve" smooth="yes"/>
      <point x="1467" y="946.5"/>
      <point x="1535" y="796.5"/>
      <point x="1535" y="627.5" type="curve" smooth="yes"/>
      <point x="1535" y="458.5"/>
      <point x="1467" y="307.5"/>
      <point x="1356" y="196.5" type="curve" smooth="yes"/>
      <point x="1245" y="85.5"/>
      <point x="1095" y="18.5"/>
      <point x="926" y="18.5" type="curve" smooth="yes"/>
      <point x="757" y="18.5"/>
      <point x="606" y="85.5"/>
      <point x="495" y="196.5" type="curve" smooth="yes"/>
      <point x="384" y="307.5"/>
      <point x="317" y="458.5"/>
      <point x="317" y="627.5" type="curve" smooth="yes"/>
      <point x="317" y="796.5"/>
      <point x="384" y="946.5"/>
      <point x="495" y="1057.5" type="curve" smooth="yes"/>
      <point x="606" y="1168.5"/>
      <point x="757" y="1236.5"/>
      <point x="926" y="1236.5" type="curve"/>
      <point x="926" y="1394.5" type="line"/>
      <point x="926" y="1552.5" type="line"/>
      <point x="414" y="1552.5"/>
      <point x="0" y="1139.5"/>
    </contour>
  </outline>
</glyph>
<glyph name="POWERONSYMBOL" format="2">
  <advance width="1300"/>
  <unicode hex="23FD"/>
  <outline>
    <contour>
      <point x="647.5" y="1559.5" type="curve"/>
      <point x="650.5" y="1559.5" type="line" smooth="yes"/>
      <point x="738.5" y="1559.5"/>
      <point x="809.5" y="1487.5"/>
      <point x="809.5" y="1399.5" type="curve" smooth="yes"/>
      <point x="809.5" y="1397.5" type="line"/>
      <point x="809.5" y="-144.5" type="line"/>
      <point x="809.5" y="-146.5" type="line" smooth="yes"/>
      <point x="809.5" y="-234.5"/>
      <point x="738.5" y="-305.5"/>
      <point x="650.5" y="-305.5" type="curve" smooth="yes"/>
      <point x="562.5" y="-305.5"/>
      <point x="490.5" y="-234.5"/>
      <point x="490.5" y="-146.5" type="curve" smooth="yes"/>
      <point x="490.5" y="-144.5" type="line"/>
      <point x="490.5" y="1397.5" type="line"/>
      <point x="490.5" y="1399.5" type="line" smooth="yes"/>
      <point x="490.5" y="1486.5"/>
      <point x="560.5" y="1558.5"/>
    </contour>
  </outline>
</glyph>
<glyph name="POWERSLEEPSYMBOL" format="2">
  <advance width="1300"/>
  <unicode hex="23FE"/>
  <outline>
    <contour>
      <point x="565.631" y="1528.23" type="curve"/>
      <point x="389.631" y="1218.23"/>
      <point x="355.631" y="832.234"/>
      <point x="508.631" y="479.234" type="curve" smooth="yes"/>
      <point x="661.631" y="126.234"/>
      <point x="966.631" y="-113.766"/>
      <point x="1313.63" y="-196.766" type="curve"/>
      <point x="837.631" y="-402.766"/>
      <point x="283.631" y="-183.766"/>
      <point x="77.6309" y="292.234" type="curve" smooth="yes"/>
      <point x="-128.369" y="768.234"/>
      <point x="89.6309" y="1322.23"/>
    </contour>
  </outline>
</glyph>
<glyph name="uni25B9" format="2">
  <advance width="1300"/>
  <unicode hex="25B9"/>
  <outline>
    <contour>
      <point x="487" y="554" type="line"/>
      <point x="496" y="695" type="line"/>
      <point x="496" y="705" type="line"/>
      <point x="487" y="847" type="line"/>
      <point x="740" y="700" type="line"/>
    </contour>
    <contour>
      <point x="399" y="991" type="line"/>
      <point x="416" y="700" type="line"/>
      <point x="399" y="410" type="line"/>
      <point x="900" y="700" type="line"/>
    </contour>
  </outline>
</glyph>
<glyph name="uni2602" format="2">
  <advance width="1300"/>
  <unicode hex="2602"/>
  <outline>
    <contour>
      <point x="785" y="90" type="curve" smooth="yes"/>
      <point x="743" y="90"/>
      <point x="700" y="113"/>
      <point x="700" y="174" type="curve" smooth="yes"/>
      <point x="700" y="800" type="line"/>
      <point x="901" y="800"/>
      <point x="1024" y="791"/>
      <point x="1100" y="782" type="curve" smooth="yes"/>
      <point x="1144" y="777"/>
      <point x="1177" y="771"/>
      <point x="1200" y="764" type="curve"/>
      <point x="1200" y="999"/>
      <point x="900" y="1200"/>
      <point x="650" y="1200" type="curve" smooth="yes"/>
      <point x="399" y="1200"/>
      <point x="100" y="999"/>
      <point x="100" y="764" type="curve"/>
      <point x="123" y="771"/>
      <point x="156" y="777"/>
      <point x="200" y="782" type="curve" smooth="yes"/>
      <point x="276" y="791"/>
      <point x="399" y="800"/>
      <point x="600" y="800" type="curve"/>
      <point x="600" y="164" type="line" smooth="yes"/>
      <point x="600" y="58"/>
      <point x="676" y="-17"/>
      <point x="785" y="-17" type="curve" smooth="yes"/>
      <point x="887" y="-17"/>
      <point x="967" y="59"/>
      <point x="967" y="136" type="curve"/>
      <point x="859" y="164" type="line"/>
      <point x="859" y="123"/>
      <point x="826" y="90"/>
    </contour>
  </outline>
</glyph>
<glyph name="uni2603" format="2">
  <advance width="1300"/>
  <unicode hex="2603"/>
  <outline>
    <contour>
      <point x="1237" y="1137" type="line"/>
      <point x="1115" y="1207" type="line"/>
      <point x="973" y="962" type="line"/>
      <point x="990" y="839" type="line"/>
      <point x="925" y="914"/>
      <point x="840" y="961"/>
      <point x="787" y="982" type="curve"/>
      <point x="856" y="1038"/>
      <point x="900" y="1081"/>
      <point x="900" y="1177" type="curve" smooth="yes"/>
      <point x="900" y="1342"/>
      <point x="766" y="1517"/>
      <point x="600" y="1517" type="curve" smooth="yes"/>
      <point x="434" y="1517"/>
      <point x="300" y="1342"/>
      <point x="300" y="1177" type="curve" smooth="yes"/>
      <point x="300" y="1081"/>
      <point x="344" y="1038"/>
      <point x="413" y="982" type="curve"/>
      <point x="374" y="966"/>
      <point x="336" y="941"/>
      <point x="300" y="906" type="curve" smooth="yes"/>
      <point x="170" y="778"/>
      <point x="83" y="541"/>
      <point x="83" y="368" type="curve" smooth="yes"/>
      <point x="83" y="83"/>
      <point x="315" y="-17"/>
      <point x="600" y="-17" type="curve" smooth="yes"/>
      <point x="885" y="-17"/>
      <point x="1117" y="83" name=".hr01"/>
      <point x="1117" y="368" type="curve" smooth="yes"/>
      <point x="1117" y="472"/>
      <point x="1086" y="700"/>
      <point x="1032" y="783" type="curve"/>
    </contour>
    <contour>
      <point x="400" y="1250" type="curve" smooth="yes"/>
      <point x="400" y="1278"/>
      <point x="422" y="1300"/>
      <point x="450" y="1300" type="curve" smooth="yes"/>
      <point x="478" y="1300"/>
      <point x="500" y="1278"/>
      <point x="500" y="1250" type="curve" smooth="yes"/>
      <point x="500" y="1222"/>
      <point x="478" y="1200"/>
      <point x="450" y="1200" type="curve" smooth="yes"/>
      <point x="422" y="1200"/>
      <point x="400" y="1222"/>
    </contour>
    <contour>
      <point x="700" y="1260" type="curve" smooth="yes"/>
      <point x="700" y="1288"/>
      <point x="722" y="1300"/>
      <point x="750" y="1300" type="curve" smooth="yes"/>
      <point x="778" y="1300"/>
      <point x="800" y="1278"/>
      <point x="800" y="1250" type="curve" smooth="yes" name=".hr02"/>
      <point x="800" y="1227"/>
      <point x="789" y="1221"/>
      <point x="774" y="1221" type="curve" smooth="yes"/>
      <point x="745" y="1221"/>
      <point x="700" y="1252"/>
    </contour>
    <contour>
      <point x="577" y="1208" type="curve"/>
      <point x="586" y="1225"/>
      <point x="603" y="1234"/>
      <point x="620" y="1234" type="curve" smooth="yes"/>
      <point x="629" y="1234"/>
      <point x="638" y="1232"/>
      <point x="645" y="1227" type="curve"/>
      <point x="668" y="1214"/>
      <point x="794" y="1119"/>
      <point x="794" y="1087" type="curve" smooth="yes"/>
      <point x="794" y="1085"/>
      <point x="794" y="1084"/>
      <point x="793" y="1083" type="curve"/>
      <point x="791" y="1080"/>
      <point x="786" y="1078"/>
      <point x="778" y="1078" type="curve" smooth="yes"/>
      <point x="735" y="1078"/>
      <point x="613" y="1127"/>
      <point x="595" y="1140" type="curve"/>
      <point x="579" y="1149"/>
      <point x="570" y="1166"/>
      <point x="570" y="1183" type="curve" smooth="yes"/>
      <point x="570" y="1192"/>
      <point x="572" y="1201"/>
    </contour>
    <contour>
      <point x="600" y="749" type="curve" smooth="yes"/>
      <point x="600" y="777"/>
      <point x="623" y="800"/>
      <point x="651" y="800" type="curve" smooth="yes"/>
      <point x="679" y="800"/>
      <point x="702" y="777"/>
      <point x="702" y="749" type="curve" smooth="yes"/>
      <point x="702" y="721"/>
      <point x="679" y="698" name=".hr03"/>
      <point x="651" y="698" type="curve" smooth="yes"/>
      <point x="623" y="698"/>
      <point x="600" y="721"/>
    </contour>
    <contour>
      <point x="600" y="549" type="curve" smooth="yes"/>
      <point x="600" y="577"/>
      <point x="623" y="600"/>
      <point x="651" y="600" type="curve" smooth="yes"/>
      <point x="679" y="600"/>
      <point x="702" y="577"/>
      <point x="702" y="549" type="curve" smooth="yes"/>
      <point x="702" y="521"/>
      <point x="679" y="498"/>
      <point x="651" y="498" type="curve" smooth="yes"/>
      <point x="623" y="498"/>
      <point x="600" y="521"/>
    </contour>
    <contour>
      <point x="600" y="349" type="curve" smooth="yes"/>
      <point x="600" y="377"/>
      <point x="623" y="400"/>
      <point x="651" y="400" type="curve" smooth="yes"/>
      <point x="679" y="400"/>
      <point x="702" y="377"/>
      <point x="702" y="349" type="curve" smooth="yes"/>
      <point x="702" y="321"/>
      <point x="679" y="298"/>
      <point x="651" y="298" type="curve" smooth="yes"/>
      <point x="623" y="298"/>
      <point x="600" y="321"/>
    </contour>
  </outline>
</glyph>
<glyph name="uni2612" format="2">
  <advance width="1300"/>
  <unicode hex="2612"/>
  <outline>
    <contour>
      <point x="1035" y="935" type="line"/>
      <point x="1035" y="165" type="line"/>
      <point x="265" y="165" type="line"/>
      <point x="265" y="935" type="line"/>
    </contour>
    <contour>
      <point x="100" y="1100" type="line"/>
      <point x="100" y="0" type="line"/>
      <point x="1200" y="0" type="line"/>
      <point x="1200" y="1100" type="line"/>
    </contour>
    <contour>
      <point x="755" y="569" type="line"/>
      <point x="959" y="870" type="line"/>
      <point x="768" y="853" type="line"/>
      <point x="628" y="631" type="line"/>
      <point x="615" y="733" type="line"/>
      <point x="522" y="869" type="line"/>
      <point x="327" y="844" type="line"/>
      <point x="548" y="558" type="line"/>
      <point x="326" y="230" type="line"/>
      <point x="505" y="230" type="line"/>
      <point x="662" y="468" type="line"/>
      <point x="670" y="400" type="line"/>
      <point x="801" y="230" type="line"/>
      <point x="996" y="230" type="line"/>
    </contour>
  </outline>
</glyph>
<glyph name="sun" format="2">
  <advance width="1300"/>
  <unicode hex="263C"/>
  <outline>
    <contour>
      <point x="1286" y="451" type="line"/>
      <point x="1286" y="477" type="line"/>
      <point x="1092" y="521" type="line"/>
      <point x="1091" y="552"/>
      <point x="1089" y="581"/>
      <point x="1082" y="612" type="curve"/>
      <point x="1229" y="692" type="line"/>
      <point x="1220" y="720" type="line"/>
      <point x="1054" y="698" type="line"/>
      <point x="1035" y="740"/>
      <point x="1011" y="779"/>
      <point x="980" y="815" type="curve"/>
      <point x="1050" y="928" type="line"/>
      <point x="1026" y="953" type="line"/>
      <point x="914" y="880" type="line"/>
      <point x="890" y="899"/>
      <point x="865" y="915"/>
      <point x="838" y="928" type="curve"/>
      <point x="883" y="1122" type="line"/>
      <point x="859" y="1132" type="line"/>
      <point x="759" y="961" type="line"/>
      <point x="728" y="970"/>
      <point x="699" y="975"/>
      <point x="668" y="979" type="curve"/>
      <point x="637" y="1144" type="line"/>
      <point x="607" y="1144" type="line"/>
      <point x="576" y="979" type="line"/>
      <point x="529" y="974"/>
      <point x="485" y="963"/>
      <point x="443" y="946" type="curve"/>
      <point x="357" y="1047" type="line"/>
      <point x="326" y="1031" type="line"/>
      <point x="361" y="902" type="line"/>
      <point x="336" y="885"/>
      <point x="312" y="866"/>
      <point x="291" y="845" type="curve"/>
      <point x="122" y="949" type="line"/>
      <point x="105" y="927" type="line"/>
      <point x="235" y="779" type="line"/>
      <point x="218" y="754"/>
      <point x="202" y="727"/>
      <point x="191" y="698" type="curve"/>
      <point x="24" y="720" type="line"/>
      <point x="15" y="692" type="line"/>
      <point x="162" y="612" type="line"/>
      <point x="155" y="581"/>
      <point x="152" y="547"/>
      <point x="152" y="510" type="curve" smooth="yes"/>
      <point x="152" y="498"/>
      <point x="153" y="487"/>
      <point x="153" y="476" type="curve"/>
      <point x="30" y="423" type="line"/>
      <point x="36" y="389" type="line"/>
      <point x="169" y="384" type="line"/>
      <point x="177" y="353"/>
      <point x="188" y="326"/>
      <point x="201" y="298" type="curve"/>
      <point x="51" y="169" type="line"/>
      <point x="65" y="147" type="line"/>
      <point x="247" y="225" type="line"/>
      <point x="266" y="201"/>
      <point x="287" y="179"/>
      <point x="310" y="159" type="curve"/>
      <point x="238" y="7" type="line"/>
      <point x="261" y="-10" type="line"/>
      <point x="384" y="105" type="line"/>
      <point x="423" y="82"/>
      <point x="466" y="65"/>
      <point x="510" y="52" type="curve"/>
      <point x="521" y="-80" type="line"/>
      <point x="556" y="-85" type="line"/>
      <point x="604" y="41" type="line"/>
      <point x="607" y="40"/>
      <point x="610" y="40"/>
      <point x="613" y="40" type="curve" smooth="yes"/>
      <point x="615" y="40" type="line"/>
      <point x="615" y="40" type="line"/>
      <point x="616" y="40" type="line"/>
      <point x="617" y="40" type="line"/>
      <point x="617" y="40" type="line"/>
      <point x="623" y="40" type="line" smooth="yes"/>
      <point x="646" y="40"/>
      <point x="670" y="42"/>
      <point x="693" y="45" type="curve"/>
      <point x="770" y="-138" type="line"/>
      <point x="796" y="-133" type="line"/>
      <point x="778" y="66" type="line"/>
      <point x="806" y="75"/>
      <point x="833" y="89"/>
      <point x="860" y="105" type="curve"/>
      <point x="982" y="-10" type="line"/>
      <point x="1007" y="7" type="line"/>
      <point x="934" y="159" type="line"/>
      <point x="969" y="190"/>
      <point x="997" y="224"/>
      <point x="1024" y="263" type="curve"/>
      <point x="1153" y="233" type="line"/>
      <point x="1166" y="264" type="line"/>
      <point x="1064" y="347" type="line"/>
      <point x="1074" y="376"/>
      <point x="1082" y="405"/>
      <point x="1087" y="434" type="curve"/>
    </contour>
    <contour>
      <point x="623" y="146" type="curve" smooth="yes"/>
      <point x="424" y="146"/>
      <point x="258" y="311"/>
      <point x="258" y="510" type="curve" smooth="yes"/>
      <point x="258" y="708"/>
      <point x="423" y="874"/>
      <point x="623" y="874" type="curve" smooth="yes"/>
      <point x="823" y="874"/>
      <point x="986" y="708"/>
      <point x="986" y="510" type="curve" smooth="yes"/>
      <point x="986" y="313"/>
      <point x="820" y="146"/>
    </contour>
  </outline>
</glyph>
<glyph name="spade" format="2">
  <advance width="1300"/>
  <unicode hex="2660"/>
  <outline>
    <contour>
      <point x="66" y="591" type="curve" smooth="yes"/>
      <point x="66" y="396"/>
      <point x="147" y="271"/>
      <point x="336" y="271" type="curve"/>
      <point x="536" y="441" type="line"/>
      <point x="536" y="280"/>
      <point x="520" y="106"/>
      <point x="200" y="106" type="curve"/>
      <point x="200" y="0" type="line"/>
      <point x="1000" y="0" type="line"/>
      <point x="1000" y="106" type="line"/>
      <point x="680" y="106"/>
      <point x="663" y="280"/>
      <point x="663" y="441" type="curve"/>
      <point x="864" y="271" type="line"/>
      <point x="1053" y="271"/>
      <point x="1134" y="396"/>
      <point x="1134" y="591" type="curve" smooth="yes"/>
      <point x="1134" y="846"/>
      <point x="679" y="1101" name=".hr01"/>
      <point x="679" y="1300" type="curve"/>
      <point x="522" y="1300" type="line"/>
      <point x="522" y="1101"/>
      <point x="66" y="846"/>
    </contour>
  </outline>
</glyph>
<glyph name="uni2690" format="2">
  <advance width="1300"/>
  <unicode hex="2690"/>
  <outline>
    <contour>
      <point x="932" y="1121" type="line"/>
      <point x="905" y="1102"/>
      <point x="876" y="1089"/>
      <point x="841" y="1089" type="curve" smooth="yes"/>
      <point x="788" y="1089"/>
      <point x="724" y="1116"/>
      <point x="648" y="1191" type="curve" smooth="yes"/>
      <point x="552" y="1284"/>
      <point x="448" y="1310"/>
      <point x="362" y="1310" type="curve" smooth="yes"/>
      <point x="277" y="1310"/>
      <point x="213" y="1286"/>
      <point x="187" y="1277" type="curve" smooth="yes"/>
      <point x="184" y="1276"/>
      <point x="183" y="1275"/>
      <point x="182" y="1275" type="curve"/>
      <point x="200" y="1040" type="line"/>
      <point x="200" y="-20" type="line"/>
      <point x="300" y="0" type="line"/>
      <point x="300" y="673" type="line"/>
      <point x="313" y="678"/>
      <point x="326" y="680"/>
      <point x="339" y="680" type="curve" smooth="yes"/>
      <point x="420" y="680"/>
      <point x="484" y="618"/>
      <point x="600" y="535" type="curve" smooth="yes"/>
      <point x="677" y="479"/>
      <point x="738" y="469"/>
      <point x="800" y="469" type="curve" smooth="yes"/>
      <point x="892" y="469"/>
      <point x="968" y="502"/>
      <point x="1000" y="541" type="curve"/>
      <point x="1000" y="1100" type="line"/>
    </contour>
    <contour>
      <point x="900" y="600" type="line"/>
      <point x="881" y="581"/>
      <point x="843" y="564"/>
      <point x="800" y="564" type="curve" smooth="yes"/>
      <point x="747" y="564"/>
      <point x="685" y="592"/>
      <point x="600" y="668" type="curve" smooth="yes"/>
      <point x="526" y="734"/>
      <point x="428" y="800"/>
      <point x="300" y="800" type="curve"/>
      <point x="315" y="900" type="line"/>
      <point x="300" y="1200" type="line"/>
      <point x="327" y="1205"/>
      <point x="351" y="1208"/>
      <point x="372" y="1208" type="curve" smooth="yes"/>
      <point x="443" y="1208"/>
      <point x="509" y="1181"/>
      <point x="600" y="1100" type="curve" smooth="yes"/>
      <point x="677" y="1031"/>
      <point x="754" y="989"/>
      <point x="833" y="989" type="curve" smooth="yes"/>
      <point x="854" y="989"/>
      <point x="877" y="993"/>
      <point x="900" y="1000" type="curve"/>
    </contour>
  </outline>
</glyph>
<glyph name="uni26A0" format="2">
  <advance width="2600"/>
  <unicode hex="26A0"/>
  <outline>
    <contour>
      <point x="2074" y="261" type="curve" smooth="yes"/>
      <point x="1401" y="1410" type="line" smooth="yes"/>
      <point x="1360" y="1481"/>
      <point x="1303" y="1517"/>
      <point x="1251" y="1517" type="curve" smooth="yes"/>
      <point x="1195" y="1517"/>
      <point x="1142" y="1482"/>
      <point x="1101" y="1410" type="curve"/>
      <point x="427" y="261" type="line" smooth="yes"/>
      <point x="403" y="220"/>
      <point x="392" y="180"/>
      <point x="392" y="145" type="curve" smooth="yes"/>
      <point x="392" y="58"/>
      <point x="459" y="0"/>
      <point x="576" y="0" type="curve" smooth="yes"/>
      <point x="1923" y="0" type="line" smooth="yes"/>
      <point x="2040" y="0"/>
      <point x="2109" y="59"/>
      <point x="2109" y="146" type="curve" smooth="yes"/>
      <point x="2109" y="183"/>
      <point x="2097" y="221"/>
    </contour>
    <contour>
      <point x="504" y="123" type="line"/>
      <point x="1251" y="1409" type="line"/>
      <point x="2003" y="123" type="line"/>
    </contour>
    <contour>
      <point x="1176" y="1100" type="line"/>
      <point x="1176" y="560" type="line"/>
      <point x="1326" y="573" type="line"/>
      <point x="1326" y="1100" type="line"/>
    </contour>
    <contour>
      <point x="1164" y="351" type="curve" smooth="yes"/>
      <point x="1164" y="303" name=".hr01"/>
      <point x="1203" y="263"/>
      <point x="1251" y="263" type="curve" smooth="yes"/>
      <point x="1298" y="263"/>
      <point x="1337" y="303"/>
      <point x="1337" y="351" type="curve" smooth="yes"/>
      <point x="1337" y="397"/>
      <point x="1298" y="438"/>
      <point x="1250" y="438" type="curve" smooth="yes"/>
      <point x="1203" y="438"/>
      <point x="1164" y="397"/>
    </contour>
  </outline>
</glyph>
<glyph name="uni2780" format="2">
  <advance width="1300"/>
  <unicode hex="2780"/>
  <outline>
    <contour>
      <point x="10" y="750" type="curve" smooth="yes"/>
      <point x="10" y="370"/>
      <point x="270" y="10"/>
      <point x="650" y="10" type="curve" smooth="yes"/>
      <point x="1030" y="10"/>
      <point x="1290" y="370"/>
      <point x="1290" y="750" type="curve" smooth="yes"/>
      <point x="1290" y="1130"/>
      <point x="1030" y="1490"/>
      <point x="650" y="1490" type="curve" smooth="yes"/>
      <point x="270" y="1490"/>
      <point x="10" y="1130"/>
    </contour>
    <contour>
      <point x="169" y="750" type="curve" smooth="yes"/>
      <point x="169" y="1040"/>
      <point x="360" y="1320"/>
      <point x="650" y="1320" type="curve" smooth="yes"/>
      <point x="940" y="1320"/>
      <point x="1130" y="1040"/>
      <point x="1130" y="750" type="curve" smooth="yes"/>
      <point x="1130" y="460"/>
      <point x="941" y="179"/>
      <point x="650" y="179" type="curve" smooth="yes"/>
      <point x="360" y="179"/>
      <point x="169" y="460"/>
    </contour>
    <contour>
      <point x="584" y="450" type="line"/>
      <point x="438" y="450" type="line"/>
      <point x="438" y="330" type="line"/>
      <point x="928" y="330" type="line"/>
      <point x="928" y="450" type="line"/>
      <point x="783" y="450" type="line"/>
      <point x="783" y="1230" type="line"/>
      <point x="637" y="1242" type="line"/>
      <point x="349" y="980" type="line"/>
      <point x="442" y="869" type="line"/>
      <point x="492" y="913" type="line"/>
      <point x="628" y="1076" type="line"/>
      <point x="584" y="858" type="line"/>
    </contour>
  </outline>
</glyph>
<glyph name="uni2783" format="2">
  <advance width="1300"/>
  <unicode hex="2783"/>
  <outline>
    <contour>
      <point x="10" y="750" type="curve" smooth="yes"/>
      <point x="10" y="370"/>
      <point x="270" y="10"/>
      <point x="650" y="10" type="curve" smooth="yes"/>
      <point x="1030" y="10"/>
      <point x="1290" y="370"/>
      <point x="1290" y="750" type="curve" smooth="yes"/>
      <point x="1290" y="1130"/>
      <point x="1030" y="1490"/>
      <point x="650" y="1490" type="curve" smooth="yes"/>
      <point x="270" y="1490"/>
      <point x="10" y="1130"/>
    </contour>
    <contour>
      <point x="169" y="750" type="curve" smooth="yes"/>
      <point x="169" y="1040"/>
      <point x="360" y="1320"/>
      <point x="650" y="1320" type="curve" smooth="yes"/>
      <point x="940" y="1320"/>
      <point x="1130" y="1040"/>
      <point x="1130" y="750" type="curve" smooth="yes"/>
      <point x="1130" y="460"/>
      <point x="941" y="179"/>
      <point x="650" y="179" type="curve" smooth="yes"/>
      <point x="360" y="179"/>
      <point x="169" y="460"/>
    </contour>
    <contour>
      <point x="964" y="600" type="line"/>
      <point x="845" y="600" type="line"/>
      <point x="845" y="780" type="line"/>
      <point x="652" y="768" type="line"/>
      <point x="652" y="600" type="line"/>
      <point x="477" y="600" type="line"/>
      <point x="582" y="758" type="line"/>
      <point x="780" y="1200" type="line"/>
      <point x="612" y="1212" type="line"/>
      <point x="316" y="600" type="line"/>
      <point x="316" y="480" type="line"/>
      <point x="652" y="480" type="line"/>
      <point x="652" y="300" type="line"/>
      <point x="845" y="300" type="line"/>
      <point x="845" y="480" type="line"/>
      <point x="951" y="480" type="line"/>
    </contour>
  </outline>
</glyph>
